<svg width="16" height="17" viewBox="0 0 16 17" fill="none" xmlns="http://www.w3.org/2000/svg">
<g id="Globe">
<path d="M8 0.508301C3.58174 0.508301 0 4.09004 0 8.5083C0 12.9266 3.58174 16.5083 8 16.5083C12.4183 16.5083 16 12.9266 16 8.5083C16 4.09004 12.4183 0.508301 8 0.508301ZM8.25046 15.0589C8.15918 15.1407 8.06441 15.1579 8.00082 15.1579C7.93662 15.1579 7.84082 15.1405 7.7481 15.0572C6.62215 14.0443 5.79344 12.7493 5.32185 11.3157C7.07918 10.8667 8.92513 10.8605 10.6851 11.297C10.2144 12.7389 9.38215 14.0414 8.25046 15.0589ZM5.02031 10.1227C4.9241 9.59466 4.87179 9.05497 4.87179 8.5083C4.87179 7.96163 4.9241 7.42194 5.0201 6.89394C6.01026 7.14645 7.02544 7.27322 8.04103 7.27322C9.02974 7.27322 10.0183 7.15281 10.9836 6.91343C11.0773 7.43528 11.1284 7.9684 11.1284 8.5083C11.1284 9.0482 11.0773 9.58133 10.9836 10.1032C9.02667 9.61784 6.97436 9.62399 5.02031 10.1227ZM7.74974 1.95774C7.84082 1.87589 7.93579 1.85866 7.99918 1.85866C8.06338 1.85866 8.15918 1.8763 8.2519 1.95938C9.38277 2.97661 10.2142 4.27856 10.6847 5.71958C8.92472 6.15589 7.07877 6.14994 5.32144 5.70092C5.79323 4.26666 6.62277 2.97086 7.74974 1.95774ZM12.1678 6.55384C12.8421 6.31158 13.4989 6.00758 14.1307 5.64286C14.5395 6.51363 14.7692 7.48451 14.7692 8.5083C14.7692 9.5321 14.5395 10.503 14.1309 11.3737C13.4991 11.0088 12.8423 10.705 12.168 10.4628C12.2919 9.82563 12.3592 9.17189 12.3592 8.5083C12.359 7.84471 12.2919 7.19117 12.1678 6.55384ZM13.5085 4.58112C12.9772 4.88758 12.4265 5.14707 11.8615 5.35692C11.4683 4.14522 10.8494 3.02399 10.0429 2.05456C11.4539 2.50235 12.665 3.40143 13.5085 4.58112ZM5.95733 2.05476C5.15713 3.01661 4.54215 4.12799 4.14872 5.32881C3.58831 5.1161 3.04185 4.85599 2.51528 4.54789C3.35754 3.38461 4.55938 2.49825 5.95733 2.05476ZM1.88574 5.60574C2.51364 5.97353 3.16656 6.28102 3.83713 6.52697C3.70974 7.17271 3.64103 7.83548 3.64103 8.5083C3.64103 9.18112 3.70954 9.84389 3.83713 10.4896C3.16656 10.7358 2.51364 11.0431 1.88574 11.4109C1.46626 10.5307 1.23077 9.54666 1.23077 8.5083C1.23077 7.46994 1.46626 6.48594 1.88574 5.60574ZM2.51528 12.4685C3.04164 12.1606 3.5881 11.9003 4.14872 11.6876C4.54215 12.8884 5.15713 14 5.95733 14.9618C4.55938 14.5184 3.35754 13.632 2.51528 12.4685ZM10.0429 14.9618C10.8494 13.9922 11.4681 12.8712 11.8613 11.6595C12.4263 11.8693 12.977 12.129 13.5083 12.4353C12.665 13.615 11.4539 14.514 10.0429 14.9618Z" fill="#495054"/>
</g>
</svg>
