<svg width="32" height="33" viewBox="0 0 32 33" fill="none" xmlns="http://www.w3.org/2000/svg">
<path d="M16.0001 28.0171C13.4001 28.0171 11.1945 27.1116 9.38341 25.3005C7.5723 23.4894 6.66675 21.2838 6.66675 18.6838C6.66675 16.5949 7.28341 14.7227 8.51675 13.0671C9.75008 11.4116 11.3667 10.2949 13.3667 9.71714C12.9223 9.60603 12.489 9.44492 12.0667 9.23381C11.6445 9.0227 11.2667 8.75047 10.9334 8.41714C10.2001 7.68381 9.72786 6.81158 9.51675 5.80047C9.30564 4.78936 9.25564 3.76158 9.36675 2.71714C10.4112 2.60603 11.439 2.65603 12.4501 2.86714C13.4612 3.07825 14.3334 3.55047 15.0667 4.28381C15.5779 4.79492 15.9501 5.37269 16.1834 6.01714C16.4167 6.66158 16.5667 7.33936 16.6334 8.05047C16.9223 7.36158 17.2723 6.71158 17.6834 6.10047C18.0945 5.48936 18.5556 4.92825 19.0667 4.41714C19.3112 4.17269 19.6223 4.05047 20.0001 4.05047C20.3779 4.05047 20.689 4.17269 20.9334 4.41714C21.1779 4.66158 21.3001 4.97269 21.3001 5.35047C21.3001 5.72825 21.1779 6.03936 20.9334 6.28381C20.4445 6.7727 20.0112 7.31158 19.6334 7.90047C19.2556 8.48936 18.9779 9.11714 18.8001 9.78381C20.7556 10.406 22.3334 11.5338 23.5334 13.1671C24.7334 14.8005 25.3334 16.6394 25.3334 18.6838C25.3334 21.2838 24.4279 23.4894 22.6167 25.3005C20.8056 27.1116 18.6001 28.0171 16.0001 28.0171ZM16.0001 25.3505C17.8445 25.3505 19.4167 24.7005 20.7167 23.4005C22.0167 22.1005 22.6667 20.5283 22.6667 18.6838C22.6667 16.8394 22.0167 15.2671 20.7167 13.9671C19.4167 12.6671 17.8445 12.0171 16.0001 12.0171C14.1556 12.0171 12.5834 12.6671 11.2834 13.9671C9.98341 15.2671 9.33341 16.8394 9.33341 18.6838C9.33341 20.5283 9.98341 22.1005 11.2834 23.4005C12.5834 24.7005 14.1556 25.3505 16.0001 25.3505Z" fill="#007C54"/>
</svg>