<svg width="64" height="64" viewBox="0 0 64 64" fill="none" xmlns="http://www.w3.org/2000/svg">
<path d="M32 35.3249C26.675 35.3249 21.525 38.9499 20.65 44.3874C20.275 46.7124 20.775 49.0499 21.9625 51.0749C22.675 52.2874 23.375 53.4874 24.0875 54.6999C25.05 56.3374 26 57.9624 26.9625 59.5999C27.175 59.9749 27.4 60.3374 27.6125 60.7124C28.2125 61.7499 29.1125 62.4499 30.2 62.9124C32.475 63.8624 35.1625 62.7624 36.375 60.6999C37.05 59.5499 37.725 58.3999 38.4 57.2499C39.375 55.5999 40.3375 53.9499 41.3125 52.2999C42.1 50.9749 42.8625 49.6624 43.225 48.1374C44.4875 42.7874 40.8875 37.6874 35.9125 35.9624C34.6625 35.5249 33.3125 35.3374 32 35.3249C30.7875 35.3124 30.7875 37.1874 32 37.1999C34.6375 37.2249 37.175 38.1624 39.0625 40.0249C40.7625 41.6999 41.6875 44.0124 41.5875 46.3874C41.5125 48.0374 40.8 49.4624 39.975 50.8499C39.05 52.4124 38.1375 53.9874 37.2125 55.5499C36.425 56.8874 35.65 58.2249 34.8625 59.5624C33.9375 61.1499 32.0875 61.8499 30.4 60.9249C29.325 60.3374 28.75 58.9374 28.15 57.9124C27.15 56.2124 26.1625 54.5124 25.1625 52.8249C24.625 51.9124 24.0875 50.9999 23.55 50.0874C22.575 48.4249 22.15 46.4999 22.4875 44.5874C23.275 40.0999 27.575 37.1874 31.975 37.1874C33.2125 37.1999 33.2125 35.3249 32 35.3249ZM32 18.8749C29.25 18.8749 26.5625 20.3499 25.575 22.9999C25.1125 24.2374 25.3 25.5749 25.825 26.7499C26.1125 27.3874 26.5625 27.9624 26.9375 28.5499C27.9625 30.1374 28.85 32.0749 30.725 32.7749C32.05 33.2749 33.5 32.8499 34.575 32.0249C35.175 31.5624 35.575 30.7999 35.975 30.1624C37.1125 28.3999 38.75 26.5499 38.65 24.3249C38.5125 20.9249 35.1 18.9124 32 18.8749C30.7875 18.8624 30.7875 20.7374 32 20.7499C34.325 20.7749 36.9625 22.2624 36.8 24.8874C36.75 25.6499 36.3 26.2874 35.8875 26.8999C35.3625 27.6999 34.8375 28.5124 34.3125 29.3124C33.9125 29.9249 33.6 30.5249 32.9375 30.8874C32.025 31.3874 30.7875 31.0249 30.225 30.1749C29.4125 28.9249 28.6 27.6749 27.775 26.4124C27.0375 25.2749 26.9875 24.0124 27.7 22.8374C28.575 21.3999 30.375 20.7499 31.975 20.7499C33.2125 20.7499 33.2125 18.8749 32 18.8749Z" fill="#007C54"/>
<path d="M31.9999 20.75C34.7499 20.75 37.4374 19.275 38.4249 16.625C38.8874 15.3875 38.6999 14.05 38.1749 12.875C37.8874 12.2375 37.4374 11.6625 37.0624 11.075C36.0374 9.48748 35.1499 7.54998 33.2749 6.84998C31.9499 6.34998 30.4999 6.77498 29.4249 7.59998C28.8249 8.06248 28.4249 8.82498 28.0249 9.46248C26.8874 11.225 25.2499 13.075 25.3499 15.3C25.4874 18.7 28.8999 20.7125 31.9999 20.75C33.2124 20.7625 33.2124 18.8875 31.9999 18.875C29.6749 18.85 27.0374 17.3625 27.1999 14.7375C27.2499 13.975 27.6999 13.3375 28.1124 12.725C28.6374 11.925 29.1624 11.1125 29.6874 10.3125C30.0874 9.69998 30.3999 9.09998 31.0624 8.73748C31.9749 8.23748 33.2124 8.59998 33.7749 9.44998C34.5874 10.7 35.3999 11.95 36.2249 13.2125C36.9624 14.35 37.0124 15.6125 36.2999 16.7875C35.4249 18.225 33.6249 18.875 32.0249 18.875C30.7874 18.875 30.7874 20.75 31.9999 20.75ZM55.6874 36.35C55.6874 34.85 54.8499 33.4875 53.5624 32.75C52.9624 32.4125 52.4374 32.2625 52.0124 31.6C51.8999 31.425 51.8249 31.225 51.7374 31.0375C51.0624 29.5125 50.3999 27.975 49.7249 26.45C49.1749 25.1875 48.6249 23.925 48.0749 22.6625C46.9249 20.0375 43.4374 19.6125 41.4624 21.5C40.7374 22.1875 40.0499 22.9125 39.3499 23.6125C38.4999 24.4625 39.8249 25.8 40.6749 24.9375C41.2249 24.3875 41.7749 23.8375 42.3124 23.3C42.9374 22.675 43.4999 22.175 44.4374 22.175C46.0749 22.1875 46.5624 23.875 47.0999 25.1C47.8749 26.875 48.6499 28.65 49.4374 30.4375C49.6749 30.9875 49.9124 31.5375 50.1624 32.0875C50.2874 32.3625 50.4249 32.6125 50.5999 32.8625C51.0749 33.525 51.8374 34.025 52.4499 34.3C53.2624 34.65 53.8124 35.4625 53.8124 36.35C53.8124 37.5625 55.6874 37.5625 55.6874 36.35ZM10.1874 36.35C10.1874 35.7875 10.3999 35.2625 10.7749 34.85C11.2999 34.2625 11.9249 34.2125 12.5499 33.7375C13.2249 33.225 13.6374 32.5625 13.9749 31.8C14.6874 30.1875 15.3874 28.5625 16.0999 26.95C16.6249 25.75 17.0874 24.4875 17.6999 23.325C18.2374 22.3125 19.4374 21.9875 20.4749 22.3375C21.1749 22.575 21.7749 23.4 22.2874 23.9C22.6374 24.25 22.9874 24.6 23.3499 24.9625C24.1999 25.8125 25.5374 24.4875 24.6749 23.6375C23.4749 22.4375 22.2749 20.8125 20.5499 20.4125C19.1999 20.1 17.7999 20.55 16.7999 21.475C16.2999 21.9375 16.0124 22.5375 15.7499 23.15C15.0374 24.7875 14.3124 26.425 13.5999 28.0625C13.0624 29.2875 12.6249 30.65 11.9124 31.7875C11.6374 32.2125 11.1624 32.4625 10.7874 32.625C10.2874 32.8375 9.84991 33.15 9.47491 33.5375C8.74991 34.275 8.33741 35.3375 8.33741 36.3625C8.31241 37.5625 10.1874 37.5625 10.1874 36.35ZM55.4249 54.975C55.4249 54.1125 55.4874 53.225 55.3124 52.375C55.1624 51.625 54.7124 50.95 54.1874 50.4125C53.6624 49.875 52.9999 49.5125 52.4749 48.95C51.3624 47.7375 51.0749 46.0625 50.6624 44.5125C50.1624 42.65 49.6624 40.7875 49.1624 38.925C48.6749 37.0875 48.1374 35.4 46.7624 33.975C45.7374 32.9125 44.2999 32.25 43.0249 31.525C41.9499 30.9125 40.8624 30.3125 39.7874 29.7C38.7374 29.1 37.7874 30.725 38.8374 31.325C40.1874 32.0875 41.5374 32.85 42.8749 33.6125C43.3999 33.9125 43.9374 34.1875 44.4499 34.5125C45.6874 35.275 46.5749 36.5625 46.9499 37.9625C47.7374 40.8875 48.5124 43.8125 49.2999 46.7375C49.7499 48.425 50.5999 49.9375 51.9624 51.0625C52.7624 51.725 53.5374 52.2125 53.5374 53.375C53.5374 53.9125 53.5374 54.45 53.5374 54.9875C53.5499 56.175 55.4249 56.175 55.4249 54.975ZM10.4499 54.975C10.4499 54.1625 10.3499 53.3 10.5999 52.525C10.8124 51.8875 11.3874 51.55 11.8749 51.1625C12.5374 50.6375 13.0874 50.025 13.5749 49.3375C14.4874 48.0125 14.7999 46.3375 15.2124 44.8C15.7124 42.95 16.1999 41.1 16.6999 39.2375C16.8124 38.8125 16.9249 38.3875 17.0374 37.95C17.3999 36.5875 18.2249 35.4 19.3874 34.6C20.3124 33.95 21.3749 33.45 22.3499 32.9C23.2874 32.375 24.2249 31.85 25.1499 31.3125C26.1999 30.7125 25.2624 29.1 24.1999 29.6875C22.8499 30.45 21.4999 31.2125 20.1624 31.975C19.6374 32.275 19.0999 32.55 18.5874 32.875C17.2124 33.725 16.1374 35.05 15.5374 36.55C15.0124 37.8375 14.7499 39.25 14.3874 40.5875C13.9124 42.35 13.4374 44.1125 12.9749 45.8875C12.5374 47.5 11.8624 48.925 10.4374 49.925C9.32491 50.7 8.69991 51.825 8.58741 53.175C8.53741 53.775 8.58741 54.3875 8.58741 54.9875C8.57491 56.175 10.4499 56.175 10.4499 54.975ZM52.0624 10.275C51.4624 10.1875 50.8624 10.0875 50.2749 9.99998C49.5999 9.89998 48.7999 9.67498 48.1124 9.79998C46.6999 10.05 46.2374 11.575 45.2874 12.4625C44.6624 13.0625 43.7874 13.2375 43.1749 13.8375C41.3999 15.6125 39.6374 17.375 37.8624 19.15C37.0124 20 38.3374 21.3375 39.1874 20.475C40.8999 18.7625 42.6124 17.05 44.3249 15.3375C44.7249 14.9375 45.2124 14.775 45.6999 14.475C46.2374 14.15 46.6999 13.7125 47.1124 13.25C47.5249 12.775 47.8124 12.175 48.2249 11.7125C48.3999 11.525 48.4999 11.6 48.7249 11.6375C49.0624 11.6875 49.4124 11.7375 49.7499 11.8C50.3499 11.8875 50.9499 11.9875 51.5374 12.075C52.0374 12.15 52.5374 11.95 52.6874 11.425C52.8374 10.975 52.5749 10.35 52.0624 10.275ZM12.4374 12.075C12.9999 11.9875 13.5499 11.9 14.1124 11.825C14.4749 11.775 14.8249 11.7125 15.1874 11.6625C15.4749 11.6125 15.4999 11.575 15.6749 11.6625C15.8999 11.775 16.0249 12.1125 16.1624 12.3125C16.3499 12.5875 16.5499 12.85 16.7624 13.1125C17.1624 13.6125 17.6374 14.0125 18.1499 14.3875C18.6374 14.7375 19.2124 14.875 19.6374 15.3C21.3624 17.025 23.0874 18.75 24.8124 20.475C25.6624 21.325 26.9999 20 26.1374 19.15C24.3749 17.3875 22.6124 15.625 20.8624 13.875C20.2874 13.3 19.4874 13.1 18.8624 12.5875C17.8249 11.725 17.4374 10.2625 16.0749 9.82498C15.4124 9.61248 14.5249 9.87498 13.8624 9.97498C13.2249 10.075 12.5874 10.175 11.9499 10.2625C11.4499 10.3375 11.1749 10.9625 11.2999 11.4125C11.4249 11.9625 11.9249 12.1625 12.4374 12.075Z" fill="#007C54"/>
<path d="M37.1499 1.70003C37.1499 2.58753 37.3249 3.66253 37.0749 4.52503C36.9624 4.91253 36.5874 5.16253 36.2499 5.32503C35.8624 5.51253 35.5249 5.77503 35.2374 6.10003C34.5874 6.81253 34.2749 7.78753 34.1124 8.72503C33.9124 9.91253 35.7124 10.4125 35.9249 9.22503C36.0499 8.46253 36.2374 7.55003 36.9374 7.08753C37.3374 6.82503 37.7499 6.63753 38.1124 6.30003C38.5249 5.91253 38.7874 5.38753 38.9374 4.85003C39.2124 3.88753 39.0374 2.67503 39.0374 1.68753C39.0249 0.50003 37.1499 0.50003 37.1499 1.70003Z" fill="#007C54"/>
<path d="M24.9751 1.70005C24.9751 2.73755 24.8626 3.83755 25.0751 4.86255C25.2751 5.85005 26.0751 6.58755 26.9501 7.01255C27.7501 7.40005 27.9501 8.43755 28.0876 9.22505C28.2876 10.4125 30.1001 9.91255 29.9001 8.72505C29.7376 7.75005 29.4001 6.87505 28.7751 6.10005C28.2626 5.46255 27.2376 5.32505 26.9376 4.52505C26.7751 4.10005 26.8626 3.52505 26.8626 3.07505C26.8626 2.61255 26.8626 2.15005 26.8626 1.70005C26.8501 0.500049 24.9751 0.500049 24.9751 1.70005Z" fill="#007C54"/>
</svg>
