<svg width="32" height="26" viewBox="0 0 32 26" fill="none" xmlns="http://www.w3.org/2000/svg">
<path d="M18.796 25.5172H18.7848C14.3202 25.4958 11.9205 24.7882 10.7708 23.1587L9.34217 20.9074C5.22358 19.964 1.87513 17.3161 0.100453 13.5747C-0.0334845 13.2959 -0.0334845 12.9743 0.100453 12.6849C1.88629 8.922 5.27939 6.28478 9.34217 5.3521L10.7374 3.14369C11.8312 1.58924 17.2557 0.120539 18.9634 0.613678C19.8005 0.860247 20.0907 1.48203 20.0907 1.97517C20.0907 3.52963 19.5215 5.01977 18.5281 6.19901C20.8943 7.24961 22.9034 8.93272 24.3209 11.0982C25.6268 9.62954 27.9149 7.80707 30.8838 7.80707C31.3415 7.80707 31.7433 8.06436 31.9107 8.47174C32.0781 8.87912 31.9888 9.34009 31.6652 9.64027C30.616 10.6373 28.9417 14.5824 30.3481 16.8122C30.5602 17.1446 30.5602 17.5519 30.3704 17.895C30.1695 18.238 29.8012 18.4417 29.3994 18.4417C28.0377 18.4417 26.3523 17.3054 24.3767 15.0648C22.9704 17.2625 20.9613 18.9777 18.5281 20.0498C19.5326 21.229 20.1018 22.7192 20.1018 24.2736C20.1018 24.606 19.9679 24.9169 19.7224 25.1527C19.488 25.3778 19.1531 25.5065 18.8183 25.5065L18.796 25.5172ZM2.35507 13.1244C3.94001 16.1368 6.79735 18.2273 10.2686 18.892C10.5699 18.9563 10.8378 19.1278 11.0052 19.3851L12.6571 21.9902C13.2152 22.7835 14.9341 23.2445 17.7691 23.341C17.5235 22.2153 16.8427 21.2076 15.8382 20.5322C15.8382 20.5322 15.8382 20.5322 15.827 20.5215C15.3136 20.1784 14.7332 19.9747 14.1751 19.7925C13.5947 19.6102 13.271 18.9992 13.4608 18.4417C13.6505 17.8843 14.2867 17.5734 14.8671 17.7556C15.4029 17.9271 16.0167 18.1416 16.6195 18.4739C19.3875 17.5412 21.6086 15.6544 22.9592 13.1137C21.5305 10.4229 19.0973 8.48246 16.173 7.61411C16.1507 7.61411 16.1284 7.60339 16.106 7.59267C14.2867 7.06737 12.2107 6.97088 10.3132 7.32466C10.2797 7.32466 10.2462 7.33538 10.2128 7.3461C6.81967 8.02148 3.95117 10.0905 2.35507 13.1137V13.1244ZM25.5487 13.0708C26.3411 14.0249 27.022 14.7217 27.5912 15.2149C27.4796 13.5854 27.9261 11.9023 28.5288 10.5408C27.1447 11.2269 26.0844 12.3632 25.5487 13.0708ZM12.646 4.98761C13.8737 4.98761 15.0792 5.13769 16.2176 5.41642C17.0771 4.69815 17.6352 3.71188 17.8026 2.63984C16.3627 2.71488 13.1371 3.70116 12.6125 4.31222L12.1883 4.98761C12.3446 4.98761 12.5009 4.98761 12.6571 4.98761H12.646Z" fill="#0098CB"/>
<path d="M7.07629 14.0782H7.06512C6.45124 14.0782 5.94897 13.5957 5.94897 13.0061C5.94897 12.4165 6.45124 11.9341 7.06512 11.9341C7.67901 11.9341 8.19243 12.4165 8.19243 13.0061C8.19243 13.5957 7.70133 14.0782 7.08745 14.0782H7.07629Z" fill="#0098CB"/>
</svg>