<svg width="64" height="64" viewBox="0 0 64 64" fill="none" xmlns="http://www.w3.org/2000/svg">
<path d="M52.9429 12.0857C50.4326 9.57504 46.6667 8.71154 43.1149 9.83142L31.9999 13.3365L20.8849 9.83142C17.3331 8.71129 13.5673 9.57517 11.0569 12.0857L3.71245 19.4295C-0.0904267 23.2329 0.104073 29.6224 4.1467 33.6727C8.58495 38.1194 13.3717 42.914 17.3623 46.904C17.1777 47.5996 17.1775 48.3312 17.3618 49.0268C17.5462 49.7223 17.9086 50.3579 18.4134 50.8707L18.4669 50.9243C18.8486 51.3034 19.3014 51.6033 19.7994 51.8068C20.2974 52.0102 20.8307 52.1133 21.3686 52.1099C21.7306 52.1095 22.0912 52.0642 22.4421 51.9749L22.8671 52.3978C23.4962 53.0273 24.2957 53.4591 25.1671 53.6399C25.9162 54.299 26.8818 54.659 27.8796 54.6513C27.9302 54.6513 27.981 54.6504 28.0319 54.6487C29.1817 54.6046 30.2715 54.1244 31.0799 53.3057L31.9999 52.3847L32.9209 53.3057C33.7294 54.1244 34.8192 54.6046 35.9689 54.6487C36.0199 54.6504 36.0706 54.6513 36.1212 54.6513C37.1165 54.6584 38.0798 54.2999 38.8283 53.6438C39.7009 53.4601 40.5015 53.0273 41.1332 52.3978L41.5602 51.9728C42.2565 52.1574 42.9889 52.1579 43.6854 51.9741C44.382 51.7902 45.0188 51.4285 45.5333 50.9243L45.5859 50.8714C46.0893 50.3579 46.4507 49.7224 46.6347 49.0273C46.8188 48.3322 46.8192 47.6011 46.6359 46.9058C50.5899 42.9529 55.3161 38.2189 59.8532 33.673C63.8958 29.623 64.0907 23.2333 60.2869 19.4299L52.9429 12.0857ZM19.8816 49.5107L19.8281 49.4572C19.7101 49.3389 19.6075 49.2064 19.5224 49.0627L20.2776 49.8168C20.1332 49.7317 20.0002 49.6288 19.8816 49.5104V49.5107ZM29.6647 51.8918C29.5392 52.0168 29.4016 52.1291 29.2539 52.2271C29.674 51.7242 29.9645 51.1259 30.0998 50.4848L30.5858 50.9708L29.6647 51.8918ZM44.1714 49.4576L44.1187 49.5103C43.2617 50.3674 41.7949 50.2952 40.8489 49.3493L25.4913 33.9914C25.3989 33.8969 25.2885 33.8216 25.1668 33.7699C25.045 33.7183 24.9142 33.6913 24.7819 33.6906C24.6497 33.6898 24.5186 33.7154 24.3962 33.7656C24.2739 33.8159 24.1628 33.8899 24.0692 33.9835C23.9757 34.077 23.9017 34.1881 23.8514 34.3105C23.8011 34.4328 23.7756 34.5639 23.7764 34.6962C23.7771 34.8284 23.8041 34.9592 23.8557 35.081C23.9074 35.2028 23.9826 35.3131 24.0772 35.4055L37.4423 48.7707L37.4491 48.7777C37.909 49.2282 38.1802 49.8369 38.2074 50.4802C38.2235 50.7694 38.1784 51.0587 38.075 51.3292C37.9716 51.5998 37.8123 51.8454 37.6075 52.0502C37.4027 52.255 37.157 52.4143 36.8865 52.5177C36.6159 52.621 36.3266 52.6661 36.0374 52.6501C35.3942 52.6229 34.7855 52.3517 34.3349 51.8918L32.7068 50.2638L20.9631 38.52C20.7755 38.3325 20.5212 38.2271 20.2559 38.2271C19.9907 38.2271 19.7364 38.3325 19.5488 38.52C19.3613 38.7076 19.2559 38.9619 19.2559 39.2272C19.2559 39.4924 19.3613 39.7468 19.5488 39.9343L27.4261 47.8116L27.4314 47.8169C27.8913 48.2675 28.1625 48.8762 28.1897 49.5194C28.2041 49.8078 28.1585 50.096 28.0557 50.3657C27.9529 50.6355 27.7951 50.881 27.5924 51.0865L27.5424 51.1366C26.6874 51.9913 25.2229 51.9213 24.2777 50.9806C24.002 50.7061 23.7132 50.4186 23.4113 50.1181L23.4062 50.1129C22.2277 48.9386 20.8618 47.5747 19.3712 46.0848C19.2878 45.9465 19.172 45.8307 19.0337 45.7473C14.9931 41.708 10.0962 36.803 5.56207 32.2598C2.29782 28.9894 2.1027 23.868 5.12707 20.8437L12.4711 13.5C14.4521 11.5192 17.4454 10.8443 20.2836 11.7392L28.6749 14.385L23.9874 15.8633C23.7695 15.932 23.5816 16.0733 23.4551 16.2637C23.3287 16.4541 23.2713 16.6821 23.2924 16.9097L23.4068 18.137C23.4353 18.8992 23.6196 19.6474 23.9484 20.3356C24.2772 21.0237 24.7435 21.6372 25.3186 22.1382C25.908 22.6473 26.596 23.0295 27.3396 23.261C28.0832 23.4926 28.8666 23.5685 29.6408 23.484L30.3071 23.4187L31.2933 24.4062L45.0226 38.1549C45.9671 39.1007 46.0387 40.5674 45.1822 41.4233L45.1769 41.4287C44.3403 42.2598 42.9281 42.2099 41.9831 41.3313C40.4249 39.773 38.7261 38.075 37.1124 36.4625C33.4947 32.8462 30.3702 29.723 30.0683 29.419C29.8811 29.2324 29.6276 29.1274 29.3633 29.1271C29.0989 29.1268 28.8452 29.2312 28.6576 29.4175C28.47 29.6037 28.3638 29.8567 28.3622 30.1211C28.3606 30.3854 28.4637 30.6397 28.6491 30.8282C28.9537 31.135 32.0793 34.2593 35.6991 37.877L40.4571 42.6332C40.4702 42.648 40.4839 42.6625 40.4982 42.6768C40.5289 42.7077 40.5607 42.7379 40.5916 42.7678C41.8666 44.0428 43.0479 45.2236 44.0119 46.1876C44.9569 47.1334 45.0288 48.6 44.1714 49.4573V49.4576ZM58.4374 32.2598C54.0719 36.6337 49.5304 41.1828 45.6716 45.0413C45.5933 44.95 45.5121 44.8603 45.4256 44.7738C45.1593 44.5074 44.8764 44.2244 44.5796 43.9277C45.3432 43.768 46.0438 43.3894 46.5957 42.8381L46.6032 42.8307C48.2317 41.1942 48.1583 38.4649 46.4374 36.7417L33.4124 23.6989L34.3124 22.797C34.4581 22.6512 34.5551 22.464 34.5902 22.261C34.6254 22.058 34.5969 21.849 34.5088 21.6628C34.4207 21.4765 34.2772 21.322 34.0979 21.2204C33.9187 21.1188 33.7124 21.0751 33.5073 21.0952L29.4448 21.4935C28.9413 21.5504 28.4315 21.5029 27.9472 21.3541C27.4628 21.2052 27.0143 20.9583 26.6296 20.6285C26.2574 20.3023 25.9564 19.9029 25.7454 19.4552C25.5343 19.0075 25.4178 18.5211 25.4029 18.0264C25.4029 18.0095 25.4011 17.9925 25.3996 17.9758L25.3578 17.5279L32.2818 15.3444L32.2853 15.3434L43.7157 11.7389C46.5532 10.8438 49.5469 11.5187 51.5282 13.4998L58.8721 20.8437C61.8971 23.868 61.7019 28.9894 58.4374 32.2598Z" fill="#007C54"/>
</svg>
