<svg width="30" height="28" viewBox="0 0 30 28" fill="none" xmlns="http://www.w3.org/2000/svg">
<path d="M29.4901 5.63669C29.4901 2.81443 27.1438 0.521973 24.2707 0.521973C23.6841 0.521973 23.1075 0.613671 22.5507 0.807256C21.8946 1.03141 21.5466 1.7548 21.7653 2.41707C21.9841 3.07933 22.6899 3.44612 23.3361 3.22197C23.6344 3.12009 23.9525 3.06914 24.2707 3.06914C25.7818 3.06914 27.0046 4.22046 27.0046 5.63669C27.0046 6.40084 26.8257 7.03254 26.5871 7.53178C24.1712 4.91329 20.4729 3.23216 16.3173 3.23216C10.3821 3.23216 5.15273 6.7065 3.60182 11.6786C3.55211 11.8314 3.51234 11.9639 3.06496 11.9639C1.65324 11.9639 0.5 13.1865 0.5 14.6944V16.8137C0.5 19.1673 3.41292 20.8076 5.74923 22.1322C6.29602 22.4378 6.80305 22.7333 7.12119 22.9982V26.2382C7.12119 26.9412 7.67792 27.5118 8.3639 27.5118H11.0183C11.426 27.5118 11.8037 27.308 12.0324 26.9718L12.8576 25.7593C15.1243 26.2993 17.5003 26.2993 19.7671 25.7593L20.5922 26.9718C20.8209 27.308 21.2086 27.5118 21.6063 27.5118H24.2607C24.9467 27.5118 25.5034 26.9412 25.5034 26.2382V22.9676C25.5034 22.9676 25.5233 22.8861 25.583 22.8352C28.0982 20.665 29.4801 17.7714 29.4801 14.6842C29.4801 12.9012 29.0029 11.2303 28.1678 9.72235C29.0029 8.65254 29.4801 7.1548 29.4801 5.6265L29.4901 5.63669ZM23.9923 20.8993C23.3759 21.4291 23.0279 22.1831 23.0279 22.9778V24.9748H22.2624L21.5864 23.9763C21.1291 23.3039 20.3039 22.9982 19.5285 23.202C17.4307 23.7522 15.2137 23.7522 13.116 23.202C12.3406 22.9982 11.5154 23.3039 11.0581 23.9763L10.3821 24.9748H9.61656V23.0084C9.61656 22.1424 9.19901 21.3374 8.50309 20.8382C8.11536 20.5631 7.57851 20.2574 6.95218 19.911C5.96795 19.3608 2.98543 17.6695 2.98543 16.8137V14.6944C2.98543 14.5722 3.05502 14.5212 3.06496 14.511C4.50651 14.511 5.57028 13.7571 5.97789 12.4529C7.20072 8.52009 11.4558 5.77933 16.3272 5.77933C22.2227 5.77933 27.0146 9.77329 27.0146 14.6944C27.0146 17.0174 25.9409 19.2182 24.0022 20.8891L23.9923 20.8993Z" fill="currentcolor"/>
<path d="M9.39736 13.8855C8.71139 13.8855 8.13477 13.315 8.13477 12.612C8.13477 11.9089 8.67162 11.3384 9.3576 11.3384H9.39736C10.0833 11.3384 10.6401 11.9089 10.6401 12.612C10.6401 13.315 10.0833 13.8855 9.39736 13.8855Z" fill="currentcolor"/>
</svg>