<svg width="64" height="64" viewBox="0 0 64 64" fill="none" xmlns="http://www.w3.org/2000/svg">
<path d="M16.7492 41.504C13.5562 41.504 10.6414 37.834 10.6414 33.8062C10.6414 30.0965 13.2117 27.3936 16.7492 27.3936C20.2868 27.3936 22.8571 30.0965 22.8571 33.8062C22.8571 37.516 19.8363 41.504 16.7492 41.504ZM16.7492 29.328C14.2981 29.328 12.5757 31.1697 12.5757 33.8062C12.5757 36.6548 14.6824 39.5697 16.7492 39.5697C18.5909 39.5697 20.9227 36.8536 20.9227 33.8062C20.9227 31.1697 19.2136 29.328 16.7492 29.328Z" fill="#007C54"/>
<path d="M17.4514 50.7123C10.9858 50.7123 7.97822 49.0694 7.32901 45.3728C6.86529 42.7627 7.66024 40.4971 9.56813 39C10.5088 38.258 11.5555 37.675 12.6552 37.2643C13.1587 37.0788 13.7151 37.3306 13.9006 37.834C14.0861 38.3375 13.8344 38.894 13.3309 39.0795C12.4167 39.4239 11.5423 39.9142 10.7606 40.5236C9.07791 41.8485 8.99841 43.7034 9.2369 45.0284C9.64762 47.347 11.4098 49.4006 21.4792 48.5924C22.0091 48.5526 22.4861 48.9501 22.5259 49.4801C22.5656 50.0101 22.1681 50.487 21.6382 50.5268C20.1145 50.646 18.7233 50.7123 17.4514 50.7123Z" fill="#007C54"/>
<path d="M23.9839 41.2789C23.7322 41.2789 23.4937 41.1861 23.295 41.0007C23.0432 40.7754 21.2943 39.477 20.1417 39.0795C19.6382 38.9073 19.3732 38.3508 19.5454 37.8473C19.7177 37.3439 20.2741 37.0789 20.7776 37.2511C22.3675 37.8076 24.4741 39.4505 24.6729 39.636C25.0571 40.0202 25.0571 40.6297 24.6729 41.0007C24.4874 41.1861 24.2357 41.2789 23.9839 41.2789Z" fill="#007C54"/>
<path d="M48.0438 41.504C44.9567 41.504 41.9359 37.6883 41.9359 33.8062C41.9359 29.9242 44.5062 27.3936 48.0438 27.3936C51.5813 27.3936 54.1517 30.0965 54.1517 33.8062C54.1517 37.834 51.2368 41.504 48.0438 41.504ZM48.0438 29.328C45.5927 29.328 43.8703 31.1697 43.8703 33.8062C43.8703 36.8536 46.2021 39.5697 48.0438 39.5697C50.1107 39.5697 52.2173 36.6681 52.2173 33.8062C52.2173 31.1697 50.5081 29.328 48.0438 29.328Z" fill="#007C54"/>
<path d="M47.342 50.7123C46.0833 50.7123 44.6921 50.646 43.1552 50.5268C42.6253 50.487 42.2278 50.0233 42.2675 49.4801C42.3073 48.9501 42.7843 48.5526 43.3142 48.5924C53.3836 49.4006 55.1458 47.3602 55.5565 45.0284C55.795 43.7034 55.7155 41.8485 54.0196 40.5236C53.2379 39.9009 52.3634 39.4239 51.4492 39.0795C50.9458 38.894 50.694 38.3375 50.8795 37.834C51.065 37.3306 51.6215 37.0788 52.1249 37.2643C53.2246 37.675 54.2713 38.2713 55.212 39C57.1199 40.4971 57.9149 42.7627 57.4511 45.3728C56.8019 49.0694 53.7943 50.7123 47.3287 50.7123H47.342Z" fill="#007C54"/>
<path d="M40.8102 41.2656C40.5452 41.2656 40.2935 41.1596 40.108 40.9609C39.7503 40.5767 39.7503 39.9937 40.1213 39.6227C40.3068 39.4372 42.4134 37.7943 44.0165 37.2378C44.52 37.0656 45.0765 37.3306 45.2487 37.8341C45.4209 38.3375 45.156 38.894 44.6525 39.0662C43.4998 39.4637 41.7509 40.7754 41.4594 41.0271C41.2739 41.1861 41.0487 41.2656 40.8102 41.2656Z" fill="#007C54"/>
<path d="M32.3966 42.6038C28.6868 42.6038 25.189 38.1653 25.189 33.4618C25.189 29.0763 28.2231 25.8833 32.3966 25.8833C36.5701 25.8833 39.6041 29.0763 39.6041 33.4618C39.6041 38.0726 36.0269 42.6038 32.3966 42.6038ZM32.3966 27.8309C29.2963 27.8309 27.1234 30.1495 27.1234 33.4751C27.1234 37.1054 29.7335 40.6694 32.3966 40.6694C35.0597 40.6694 37.6698 36.9729 37.6698 33.4751C37.6698 29.9773 35.4969 27.8309 32.3966 27.8309Z" fill="#007C54"/>
<path d="M32.4634 54.3161C30.6483 54.3161 28.8596 54.1836 27.071 53.9318C25.5606 53.7198 24.1694 53.0574 23.03 52.0239C21.9038 50.9905 21.1221 49.6656 20.7643 48.1949L20.6848 47.8902C19.9826 45.0019 21.0426 41.9545 23.3877 40.1262C24.5404 39.212 25.8255 38.4965 27.1637 37.993C27.6672 37.8075 28.2236 38.0593 28.4091 38.5627C28.5946 39.0662 28.3429 39.6227 27.8394 39.8082C26.6735 40.2454 25.5738 40.8681 24.5669 41.6498C22.8312 43.0145 22.0363 45.2801 22.553 47.4397L22.6325 47.7444C22.8975 48.8441 23.4804 49.8378 24.3284 50.593C25.1763 51.3615 26.2098 51.8517 27.336 52.0107C30.5423 52.4744 33.8148 52.5009 37.0741 52.0902L37.4318 52.0372C40.0154 51.706 42.0293 49.6788 42.3341 47.0952C42.5725 45.1476 41.7511 43.1735 40.2009 41.9678L39.7902 41.6498C38.8495 40.9079 37.8028 40.3116 36.7031 39.8744C36.1997 39.6757 35.9612 39.1192 36.1599 38.6157C36.3587 38.1123 36.9151 37.8738 37.4186 38.0725C38.7038 38.576 39.9094 39.265 40.9959 40.1262L41.4066 40.4441C43.4867 42.0738 44.5732 44.7104 44.2552 47.3337C43.8445 50.7918 41.1416 53.5211 37.6836 53.9583L37.3259 54.0113C35.6962 54.2233 34.0665 54.3293 32.4501 54.3293L32.4634 54.3161Z" fill="#007C54"/>
<path d="M32.3965 22.2927C32.264 22.2927 32.1182 22.2662 31.999 22.2C27.693 20.2391 25.1359 17.258 25.1359 14.224C25.1359 11.7198 27.0968 9.59998 29.4154 9.59998C30.5813 9.59998 31.6545 10.0902 32.4097 10.8719C33.1649 10.0769 34.2381 9.59998 35.404 9.59998C37.7226 9.59998 39.6835 11.7198 39.6835 14.224C39.6835 17.2978 37.1132 20.2921 32.8072 22.2132C32.6747 22.2662 32.5422 22.2927 32.4097 22.2927H32.3965ZM29.4021 11.5344C28.1567 11.5344 27.057 12.793 27.057 14.224C27.057 16.7545 29.7466 18.9539 32.3965 20.2523C35.0463 18.9804 37.7226 16.7943 37.7226 14.224C37.7226 12.793 36.6362 11.5344 35.3775 11.5344C34.3043 11.5344 33.5226 12.2896 33.3239 13.0315C33.2047 13.4555 32.8204 13.7337 32.3965 13.7337C31.9725 13.7337 31.575 13.4422 31.469 13.0315C31.257 12.2896 30.4886 11.5344 29.4154 11.5344H29.4021Z" fill="#007C54"/>
<path d="M48.0441 22.4782C47.9116 22.4782 47.7658 22.4517 47.6466 22.3855C44.3475 20.8883 42.3734 18.5697 42.3734 16.2113C42.3734 14.2107 43.95 12.5148 45.8049 12.5148C46.6529 12.5148 47.4478 12.8328 48.0308 13.376C48.627 12.8461 49.4087 12.5148 50.2567 12.5148C52.1248 12.5148 53.6882 14.2107 53.6882 16.2113C53.6882 18.6095 51.7141 20.9148 48.415 22.3987C48.2958 22.4517 48.15 22.4782 48.0176 22.4782H48.0441ZM45.8049 14.4492C45.0232 14.4492 44.3078 15.2839 44.3078 16.2113C44.3078 17.9602 46.1759 19.4972 48.0441 20.4378C49.9122 19.5237 51.7671 17.9867 51.7671 16.2113C51.7671 15.2972 51.0516 14.4492 50.2699 14.4492C49.5942 14.4492 49.104 14.9262 48.9715 15.3899C48.8523 15.8139 48.468 16.0921 48.0441 16.0921C47.6201 16.0921 47.2226 15.8006 47.1166 15.3899C46.9841 14.9262 46.4939 14.4492 45.8182 14.4492H45.8049Z" fill="#007C54"/>
<path d="M16.7495 22.4782C16.617 22.4782 16.4713 22.4517 16.352 22.3855C13.053 20.8883 11.0789 18.5697 11.0789 16.2113C11.0789 14.2107 12.6555 12.5148 14.5104 12.5148C15.3584 12.5148 16.1533 12.8328 16.7363 13.376C17.3325 12.8461 18.1142 12.5148 18.9621 12.5148C20.8303 12.5148 22.3937 14.2107 22.3937 16.2113C22.3937 18.6095 20.4195 20.9148 17.1205 22.3987C17.0013 22.4517 16.8555 22.4782 16.723 22.4782H16.7495ZM14.5237 14.4492C13.7419 14.4492 13.0265 15.2839 13.0265 16.2113C13.0265 17.9602 14.8946 19.4972 16.7628 20.4378C18.6309 19.5237 20.4858 17.9867 20.4858 16.2113C20.4858 15.2972 19.7703 14.4492 18.9886 14.4492C18.3129 14.4492 17.8227 14.9262 17.6902 15.3899C17.571 15.8139 17.1867 16.0921 16.7628 16.0921C16.3388 16.0921 15.9413 15.8006 15.8353 15.3899C15.7028 14.9262 15.2126 14.4492 14.5369 14.4492H14.5237Z" fill="#007C54"/>
</svg>
