<svg width="64" height="64" viewBox="0 0 64 64" fill="none" xmlns="http://www.w3.org/2000/svg">
<path d="M28.2929 27.0477L20.2862 15.9045C20.1931 15.7772 20.0709 15.674 19.9298 15.6037C19.7886 15.5333 19.6327 15.4977 19.475 15.5C19.3173 15.4976 19.1614 15.533 19.0202 15.6032C18.879 15.6733 18.7566 15.7763 18.6632 15.9034L10.6555 27.0225C10.6367 27.0485 10.6194 27.0725 10.6032 27.0999C8.94862 29.9385 8.9685 33.3854 10.6564 36.3229C11.5415 37.8833 12.8248 39.1809 14.3753 40.0832C15.9259 40.9856 17.688 41.4604 19.482 41.4591C21.276 41.4578 23.0375 40.9806 24.5867 40.076C26.136 39.1715 27.4175 37.872 28.3004 36.3104C29.9799 33.3794 29.996 29.9456 28.3432 27.1254C28.3276 27.0989 28.3109 27.0727 28.2929 27.0477ZM26.5651 35.3155C25.8572 36.5719 24.8282 37.6176 23.5833 38.3456C22.3384 39.0737 20.9225 39.4578 19.4804 39.4588C18.0382 39.4597 16.6218 39.0774 15.376 38.3511C14.1301 37.6247 13.0997 36.5803 12.3901 35.3249C11.0516 32.9954 11.0222 30.3809 12.3074 28.1442L19.4724 18.1885L26.6399 28.1751C27.9224 30.3935 27.8957 32.9935 26.5651 35.3155Z" fill="#007C54"/>
<path d="M24.2718 30.4607C24.0066 30.4607 23.7523 30.566 23.5647 30.7536C23.3772 30.9411 23.2718 31.1955 23.2718 31.4607C23.2674 32.4805 22.8586 33.4568 22.135 34.1755C21.4115 34.8942 20.4324 35.2964 19.4126 35.2939C19.1474 35.2939 18.893 35.3993 18.7055 35.5868C18.518 35.7744 18.4126 36.0287 18.4126 36.2939C18.4126 36.5592 18.518 36.8135 18.7055 37.001C18.893 37.1886 19.1474 37.2939 19.4126 37.2939C20.9625 37.2956 22.4499 36.6823 23.5482 35.5888C24.6466 34.4952 25.2664 33.0106 25.2716 31.4607C25.2716 31.1955 25.1663 30.9412 24.9788 30.7537C24.7913 30.5661 24.537 30.4608 24.2718 30.4607Z" fill="#007C54"/>
<path d="M53.1607 44.5482L43.8077 31.5292C43.7146 31.4019 43.5922 31.2988 43.451 31.2284C43.3098 31.1581 43.1537 31.1226 42.996 31.125C42.8384 31.1226 42.6824 31.1579 42.5412 31.228C42.4 31.2982 42.2777 31.4011 42.1844 31.5281L32.8306 44.518C32.812 44.544 32.7945 44.568 32.7784 44.5954C30.8762 47.8586 30.8996 51.8224 32.8409 55.201C33.8601 56.9982 35.3379 58.4927 37.1235 59.532C38.9091 60.5713 40.9386 61.1181 43.0046 61.1167C45.0707 61.1152 47.0994 60.5655 48.8835 59.5237C50.6677 58.4819 52.1434 56.9853 53.1601 55.1867C55.0917 51.8159 55.1107 47.8677 53.211 44.6259C53.1956 44.6 53.1787 44.5732 53.1607 44.5482ZM51.4251 54.192C50.5834 55.6852 49.36 56.928 47.8803 57.7931C46.4005 58.6583 44.7174 59.1148 43.0033 59.1159C41.2892 59.117 39.6056 58.6627 38.1247 57.7995C36.6438 56.9363 35.4188 55.6951 34.5751 54.203C32.9795 51.4259 32.9467 48.3074 34.4829 45.6405L42.9942 33.8125L51.5082 45.675C53.0411 48.3221 53.0114 51.4234 51.4251 54.192Z" fill="#007C54"/>
<path d="M48.6001 48.6052C48.3349 48.6052 48.0805 48.7106 47.893 48.8981C47.7054 49.0857 47.6001 49.34 47.6001 49.6052C47.5947 50.8409 47.0993 52.0241 46.2227 52.895C45.3461 53.766 44.1598 54.2537 42.9241 54.2511C42.6589 54.2511 42.4045 54.3565 42.217 54.544C42.0294 54.7315 41.9241 54.9859 41.9241 55.2511C41.9241 55.5163 42.0294 55.7707 42.217 55.9582C42.4045 56.1457 42.6589 56.2511 42.9241 56.2511C44.6901 56.2531 46.3847 55.5545 47.6363 54.3086C48.8878 53.0627 49.5941 51.3712 49.6001 49.6052C49.6001 49.34 49.4947 49.0857 49.3072 48.8981C49.1196 48.7106 48.8653 48.6052 48.6001 48.6052Z" fill="#007C54"/>
<path d="M47.75 29.5C48.0152 29.5 48.2696 29.3946 48.4571 29.2071C48.6446 29.0196 48.75 28.7652 48.75 28.5V26.25C48.75 25.9848 48.6446 25.7304 48.4571 25.5429C48.2696 25.3554 48.0152 25.25 47.75 25.25C47.4848 25.25 47.2304 25.3554 47.0429 25.5429C46.8554 25.7304 46.75 25.9848 46.75 26.25V28.5C46.75 28.7652 46.8554 29.0196 47.0429 29.2071C47.2304 29.3946 47.4848 29.5 47.75 29.5ZM47.75 22.5C48.0152 22.5 48.2696 22.3946 48.4571 22.2071C48.6446 22.0196 48.75 21.7652 48.75 21.5V9.75C48.75 9.48478 48.6446 9.23043 48.4571 9.04289C48.2696 8.85536 48.0152 8.75 47.75 8.75C47.4848 8.75 47.2304 8.85536 47.0429 9.04289C46.8554 9.23043 46.75 9.48478 46.75 9.75V21.5C46.75 21.7652 46.8554 22.0196 47.0429 22.2071C47.2304 22.3946 47.4848 22.5 47.75 22.5ZM47.75 7C48.0152 7 48.2696 6.89464 48.4571 6.70711C48.6446 6.51957 48.75 6.26522 48.75 6V3.875C48.75 3.60978 48.6446 3.35543 48.4571 3.16789C48.2696 2.98036 48.0152 2.875 47.75 2.875C47.4848 2.875 47.2304 2.98036 47.0429 3.16789C46.8554 3.35543 46.75 3.60978 46.75 3.875V6C46.75 6.26522 46.8554 6.51957 47.0429 6.70711C47.2304 6.89464 47.4848 7 47.75 7Z" fill="#007C54"/>
<path d="M41.875 27C42.1402 27 42.3946 26.8946 42.5821 26.7071C42.7696 26.5196 42.875 26.2652 42.875 26V15.875C42.875 15.6098 42.7696 15.3554 42.5821 15.1679C42.3946 14.9804 42.1402 14.875 41.875 14.875C41.6098 14.875 41.3554 14.9804 41.1679 15.1679C40.9804 15.3554 40.875 15.6098 40.875 15.875V26C40.875 26.2652 40.9804 26.5196 41.1679 26.7071C41.3554 26.8946 41.6098 27 41.875 27ZM41.875 12C42.1402 12 42.3946 11.8946 42.5821 11.7071C42.7696 11.5196 42.875 11.2652 42.875 11V7.5C42.875 7.23478 42.7696 6.98043 42.5821 6.79289C42.3946 6.60536 42.1402 6.5 41.875 6.5C41.6098 6.5 41.3554 6.60536 41.1679 6.79289C40.9804 6.98043 40.875 7.23478 40.875 7.5V11C40.875 11.2652 40.9804 11.5196 41.1679 11.7071C41.3554 11.8946 41.6098 12 41.875 12Z" fill="#007C54"/>
<path d="M36 29.625C36.2652 29.625 36.5196 29.5196 36.7071 29.3321C36.8946 29.1446 37 28.8902 37 28.625V23.5C37 23.2348 36.8946 22.9804 36.7071 22.7929C36.5196 22.6054 36.2652 22.5 36 22.5C35.7348 22.5 35.4804 22.6054 35.2929 22.7929C35.1054 22.9804 35 23.2348 35 23.5V28.625C35 28.8902 35.1054 29.1446 35.2929 29.3321C35.4804 29.5196 35.7348 29.625 36 29.625ZM36 20.75C36.2652 20.75 36.5196 20.6446 36.7071 20.4571C36.8946 20.2696 37 20.0152 37 19.75V6.625C37 6.35978 36.8946 6.10543 36.7071 5.91789C36.5196 5.73036 36.2652 5.625 36 5.625C35.7348 5.625 35.4804 5.73036 35.2929 5.91789C35.1054 6.10543 35 6.35978 35 6.625V19.75C35 20.0152 35.1054 20.2696 35.2929 20.4571C35.4804 20.6446 35.7348 20.75 36 20.75Z" fill="#007C54"/>
<path d="M30.125 12.875C29.8598 12.875 29.6054 12.9804 29.4179 13.1679C29.2304 13.3554 29.125 13.6098 29.125 13.875V22.75C29.125 23.0152 29.2304 23.2696 29.4179 23.4571C29.6054 23.6446 29.8598 23.75 30.125 23.75C30.3902 23.75 30.6446 23.6446 30.8321 23.4571C31.0196 23.2696 31.125 23.0152 31.125 22.75V13.875C31.125 13.6098 31.0196 13.3554 30.8321 13.1679C30.6446 12.9804 30.3902 12.875 30.125 12.875ZM30.125 4.125C29.8598 4.125 29.6054 4.23036 29.4179 4.41789C29.2304 4.60543 29.125 4.85978 29.125 5.125V10.125C29.125 10.3902 29.2304 10.6446 29.4179 10.8321C29.6054 11.0196 29.8598 11.125 30.125 11.125C30.3902 11.125 30.6446 11.0196 30.8321 10.8321C31.0196 10.6446 31.125 10.3902 31.125 10.125V5.125C31.125 4.85978 31.0196 4.60543 30.8321 4.41789C30.6446 4.23036 30.3902 4.125 30.125 4.125Z" fill="#007C54"/>
</svg>
