<svg width="32" height="32" viewBox="0 0 32 32" fill="none" xmlns="http://www.w3.org/2000/svg">
<path d="M21.0001 26.6666H5.33341C4.60008 26.6666 3.9723 26.4055 3.45008 25.8833C2.92786 25.361 2.66675 24.7333 2.66675 23.9999V7.99992C2.66675 7.26659 2.92786 6.63881 3.45008 6.11659C3.9723 5.59436 4.60008 5.33325 5.33341 5.33325H26.6667C27.4001 5.33325 28.0279 5.59436 28.5501 6.11659C29.0723 6.63881 29.3334 7.26659 29.3334 7.99992V23.9999C29.3334 24.7333 29.0723 25.361 28.5501 25.8833C28.0279 26.4055 27.4001 26.6666 26.6667 26.6666H24.8001L18.5334 20.3999C18.0667 20.711 17.5612 20.9444 17.0167 21.0999C16.4723 21.2555 15.9112 21.3333 15.3334 21.3333C13.6667 21.3333 12.2501 20.7499 11.0834 19.5833C9.91675 18.4166 9.33341 16.9999 9.33341 15.3333C9.33341 13.6666 9.91675 12.2499 11.0834 11.0833C12.2501 9.91659 13.6667 9.33325 15.3334 9.33325C17.0001 9.33325 18.4167 9.91659 19.5834 11.0833C20.7501 12.2499 21.3334 13.6666 21.3334 15.3333C21.3334 15.9333 21.2556 16.4999 21.1001 17.0333C20.9445 17.5666 20.7112 18.0666 20.4001 18.5333L25.8667 23.9999H26.6667V7.99992H5.33341V23.9999H18.3334L21.0001 26.6666ZM15.3334 18.6666C16.2667 18.6666 17.0556 18.3444 17.7001 17.6999C18.3445 17.0555 18.6667 16.2666 18.6667 15.3333C18.6667 14.3999 18.3445 13.611 17.7001 12.9666C17.0556 12.3221 16.2667 11.9999 15.3334 11.9999C14.4001 11.9999 13.6112 12.3221 12.9667 12.9666C12.3223 13.611 12.0001 14.3999 12.0001 15.3333C12.0001 16.2666 12.3223 17.0555 12.9667 17.6999C13.6112 18.3444 14.4001 18.6666 15.3334 18.6666Z" fill="#007C54"/>
</svg>
