<svg width="158" height="34" viewBox="0 0 158 34" fill="none" xmlns="http://www.w3.org/2000/svg">
<g id="Dept PIR Logo Horizontal Full Colour 1" clip-path="url(#clip0_2737_1369)">
<path id="Vector" d="M15.9688 7.38578C20.941 7.19939 25.1153 11.1136 25.3003 16.1228C25.4853 21.132 21.6001 25.3375 16.6279 25.5239C11.6557 25.7102 7.48139 21.7961 7.29638 16.7868C7.11137 11.7776 10.9966 7.57217 15.9688 7.38578ZM15.9688 7.56052C11.0891 7.73527 7.28482 11.8708 7.45827 16.7868C7.63172 21.7029 11.7367 25.5355 16.6163 25.3608C21.496 25.186 25.3003 21.0505 25.1269 16.1345C24.9534 11.2184 20.8485 7.38578 15.9688 7.56052Z" fill="#878787"/>
<path id="Vector_2" d="M4.1281 18.3827L3.51525 18.7439C3.44587 18.7905 3.30711 18.8487 3.26086 18.8604C2.9949 18.8953 3.09897 18.5342 2.97178 18.5575C2.92552 18.5575 2.91396 18.5924 2.92552 18.639C2.94865 18.8371 2.98334 19.0235 3.00647 19.2215C3.02959 19.4195 3.04116 19.6059 3.06428 19.804C3.06428 19.8506 3.07585 19.8855 3.13366 19.8739C3.23773 19.8622 3.07585 19.6409 3.35336 19.4778L5.56194 18.1614C6.18635 17.7886 6.34824 17.777 6.33668 17.7071C6.33668 17.6488 6.2673 17.6721 6.03603 17.6022C5.72383 17.4974 5.72383 17.4158 5.65445 17.4275C5.59663 17.4275 5.51569 17.5673 5.481 17.5673C5.44631 17.5673 5.24973 17.509 3.6887 17.113C3.33024 17.0198 3.05272 16.8916 2.92552 16.7868C2.78676 16.6703 2.82145 16.4722 2.72895 16.4839C2.69426 16.4839 2.67113 16.5072 2.6827 16.5538C2.70582 16.7285 2.72895 16.88 2.75208 17.0431C2.78676 17.3692 2.79833 17.4857 2.80989 17.5906C2.80989 17.6488 2.80989 17.6721 2.87927 17.6605C2.9949 17.6488 2.83302 17.2527 3.33024 17.1945C3.469 17.1712 3.63088 17.2178 4.02403 17.311L4.15123 18.3827H4.1281ZM4.24373 18.3128L4.1281 17.3343L5.40006 17.6372L4.24373 18.3128Z" fill="#878787"/>
<path id="Vector_3" d="M4.53273 21.295C4.03552 21.5629 3.8505 22.1454 4.27834 22.9375C4.6368 23.6132 5.18028 23.7646 5.79313 23.4385L7.14602 22.7162C7.51605 22.5182 7.782 22.5764 7.92076 22.7162C8.01327 22.8094 8.02483 22.8676 8.08265 22.8327C8.11734 22.8094 8.11734 22.7861 8.08265 22.7162C8.0017 22.5648 7.93232 22.4483 7.83982 22.2735C7.74731 22.0871 7.6895 21.9706 7.60855 21.8192C7.57386 21.7493 7.55074 21.726 7.50448 21.7493C7.44667 21.7843 7.49292 21.8192 7.50448 21.959C7.53917 22.1454 7.44667 22.4017 7.06508 22.6114L5.70062 23.3453C5.16871 23.6249 4.72931 23.5317 4.45179 23.0191C4.20896 22.5531 4.31303 22.0871 4.77556 21.8425L6.64881 20.8407C6.94945 20.6776 6.9957 21.1202 7.09977 21.062C7.15759 21.0387 7.14602 21.0037 7.11133 20.9338C7.03039 20.7824 6.96101 20.6776 6.82225 20.4213C6.6835 20.165 6.63724 20.0485 6.5563 19.8971C6.52161 19.8272 6.49848 19.8039 6.44067 19.8388C6.32504 19.8971 6.66037 20.1766 6.35972 20.3397L4.49804 21.3416L4.53273 21.295Z" fill="#878787"/>
<path id="Vector_4" d="M6.66046 26.1646C6.66046 26.1646 6.63733 26.2229 6.66046 26.2345C6.72984 26.2928 6.78765 26.118 6.93797 26.2345C7.03048 26.3161 7.15767 26.6772 7.43519 26.8985C8.03648 27.4111 8.66089 27.2364 9.00779 26.8287C9.78253 25.8967 8.20993 24.9648 8.79965 24.2541C8.99623 24.0095 9.30844 23.9746 9.59752 24.2192C10.0138 24.5687 9.90972 25.1162 9.6669 25.6637C9.64377 25.7103 9.60908 25.7686 9.63221 25.7919C9.65533 25.8152 9.69002 25.8152 9.71315 25.7686C9.7594 25.722 9.96754 25.4424 10.3607 24.8599C10.3954 24.8133 10.3954 24.79 10.3607 24.7667C10.2913 24.7085 10.2335 24.8716 10.1294 24.7784C9.9791 24.6502 9.99067 24.3939 9.65533 24.1144C9.22749 23.7532 8.59152 23.7998 8.25618 24.1959C7.46988 25.1395 9.11186 25.9899 8.45276 26.7704C8.23306 27.0383 7.87459 27.1199 7.50457 26.8054C7.01892 26.386 7.22705 25.7336 7.55082 25.2094C7.60864 25.1162 7.63177 25.0812 7.59708 25.0463C7.57395 25.0346 7.55082 25.023 7.51613 25.0579L6.63733 26.118L6.66046 26.1646Z" fill="#878787"/>
<path id="Vector_5" d="M13.2052 26.386C13.6678 26.5491 13.9221 27.1082 13.9684 27.5509C13.98 27.679 13.98 27.7489 14.0147 27.7606C14.0493 27.7606 14.0609 27.7606 14.0725 27.7373C14.0956 27.679 14.1072 27.5509 14.1187 27.4577L14.2344 26.6306C14.2344 26.6306 14.2575 26.5374 14.2112 26.5258C14.1881 26.5258 14.165 26.5258 14.1418 26.5374C14.1072 26.5374 14.0609 26.5491 13.9684 26.5141L11.9795 25.8268C11.887 25.7918 11.8523 25.7569 11.8292 25.7336C11.8176 25.7103 11.8061 25.687 11.7829 25.6754C11.7367 25.6637 11.7136 25.7219 11.702 25.7452L11.2857 26.4792C11.2395 26.5607 11.1701 26.6655 11.147 26.7238C11.147 26.7471 11.147 26.7704 11.1701 26.7704C11.1932 26.7704 11.2395 26.7238 11.332 26.6306C11.6442 26.3044 12.1877 26.0248 12.6502 26.1879L11.7136 28.9605C11.6095 29.275 11.2048 28.9605 11.1585 29.0886C11.1354 29.1469 11.1817 29.1702 11.251 29.1935C11.4707 29.2634 11.5864 29.2983 11.8639 29.3915C12.1414 29.4847 12.257 29.5429 12.4652 29.6128C12.5346 29.6361 12.5924 29.6478 12.6039 29.5895C12.6502 29.473 12.1414 29.4614 12.2455 29.1469L13.1937 26.3743L13.2052 26.386Z" fill="#878787"/>
<path id="Vector_6" d="M16.443 29.8571C16.4776 30.195 16.0614 30.0668 16.0729 30.195C16.0729 30.2532 16.1076 30.2649 16.1886 30.2532C16.362 30.2416 16.4776 30.2183 16.7667 30.195C17.0558 30.1717 17.183 30.1717 17.3564 30.1484C17.4374 30.1484 17.4605 30.1251 17.4605 30.0668C17.4605 29.9387 17.0674 30.1367 17.0327 29.7989L16.9286 28.5874H17.0095C17.3796 28.5524 17.4836 28.6456 17.8768 29.2747L18.3624 30.0552C18.7903 30.0202 19.1256 29.9969 19.195 29.9969C19.2644 29.9969 19.2875 29.9736 19.2875 29.927C19.2875 29.7989 18.9406 30.0086 18.6978 29.5892L18.3856 29.0533C18.0965 28.5641 17.8768 28.5058 17.4143 28.4942C18.1081 28.3777 18.5475 28.0165 18.5128 27.5156C18.4781 27.0846 18.0734 26.6536 17.1252 26.7351C16.9402 26.7468 16.7436 26.7817 16.4892 26.805C16.2001 26.8283 16.0729 26.8283 15.8995 26.8516C15.8185 26.8516 15.7954 26.8749 15.7954 26.9331C15.7954 27.0613 16.1886 26.8632 16.2232 27.2011L16.4545 29.8804L16.443 29.8571ZM16.7667 26.8749L17.0558 26.8516C17.5183 26.8166 17.8074 27.003 17.8537 27.5739C17.8999 28.1563 17.6455 28.401 17.1252 28.4476L16.9055 28.4709L16.7667 26.8749Z" fill="#878787"/>
<path id="Vector_7" d="M25.4276 26.1992C25.6704 26.4322 25.2773 26.6186 25.3698 26.7001C25.416 26.7467 25.4391 26.7234 25.497 26.6652C25.6126 26.537 25.6935 26.4438 25.8901 26.2225C26.6186 25.4303 26.9192 25.1275 27.1736 24.8479L26.4914 23.9276C26.4451 23.8693 26.422 23.8344 26.3989 23.8227C26.3758 23.8111 26.3526 23.7994 26.3295 23.8227C26.3064 23.846 26.3179 23.8693 26.3526 23.9392C26.6186 24.3819 26.7805 25.1158 26.2601 25.6633C26.0982 25.8381 25.9595 25.8847 25.7513 25.6866L23.8781 23.9276C23.6353 23.6946 24.0284 23.5082 23.9359 23.4266C23.8897 23.38 23.8665 23.4033 23.8087 23.4616C23.6931 23.5897 23.6122 23.6829 23.4156 23.9043C23.219 24.114 23.1265 24.2072 23.0109 24.3236C22.9646 24.3819 22.9415 24.4052 22.9877 24.4518C23.0802 24.5333 23.2421 24.1373 23.485 24.3586L25.4391 26.1875L25.4276 26.1992Z" fill="#878787"/>
<path id="Vector_8" d="M28.2606 22.2502C28.5612 22.39 28.2606 22.6928 28.3647 22.7394C28.4225 22.7627 28.4456 22.7394 28.4687 22.6695C28.5381 22.5181 28.5844 22.4016 28.7116 22.1337C28.8387 21.8657 28.8966 21.7609 28.9659 21.5978C29.0006 21.5279 29.0006 21.4929 28.9428 21.4697C28.8272 21.4114 28.8041 21.8541 28.5034 21.7143L26.0867 20.5726C25.7861 20.4329 26.0983 20.13 25.9826 20.0717C25.9248 20.0484 25.9017 20.0717 25.8786 20.1416C25.8092 20.2931 25.7629 20.4212 25.6357 20.6775C25.5085 20.9454 25.4507 21.0503 25.3813 21.2134C25.3467 21.2833 25.3466 21.3182 25.4045 21.3415C25.5201 21.3998 25.5432 20.9571 25.8439 21.0969L28.2606 22.2269V22.2502Z" fill="#878787"/>
<path id="Vector_9" d="M28.6653 17.5787L29.3475 17.3807C29.4284 17.3574 29.5787 17.3224 29.625 17.3341C29.891 17.369 29.7059 17.6835 29.8331 17.7068C29.8794 17.7068 29.891 17.6835 29.9025 17.637C29.9256 17.4389 29.9372 17.2525 29.9603 17.0545C29.9835 16.8564 30.0182 16.6701 30.0413 16.472C30.0413 16.4254 30.0413 16.3905 29.995 16.3788C29.891 16.3672 29.995 16.6118 29.6944 16.705L27.2314 17.4506C26.5376 17.6602 26.3757 17.637 26.3757 17.6952C26.3757 17.7534 26.4451 17.7418 26.6417 17.8699C26.9192 18.0447 26.8961 18.1262 26.977 18.1262C27.0348 18.1262 27.1389 18.033 27.1852 18.033C27.2198 18.033 27.3933 18.1379 28.8156 18.9067C29.1393 19.0815 29.3822 19.2679 29.4747 19.4077C29.5787 19.5591 29.5094 19.7455 29.5903 19.7571C29.625 19.7571 29.6481 19.7571 29.6597 19.6989C29.6828 19.5241 29.6944 19.3727 29.7059 19.2096C29.7406 18.8834 29.7753 18.7669 29.7869 18.6621C29.7869 18.6038 29.7869 18.5806 29.7406 18.5806C29.625 18.5689 29.6944 18.9883 29.1972 18.9184C29.0584 18.8951 28.9196 18.8252 28.5496 18.6388L28.6768 17.5671L28.6653 17.5787ZM28.5496 17.6137L28.434 18.5922L27.2661 17.9864L28.5496 17.6137Z" fill="#878787"/>
<path id="Vector_10" d="M8.18682 10.2282C8.18682 10.2282 8.24464 10.2515 8.2562 10.2282C8.32558 10.1583 8.14057 10.1001 8.29089 9.94862C8.3834 9.85543 8.74186 9.73893 8.99625 9.471C9.55129 8.86523 9.42409 8.22451 9.03094 7.86338C8.14057 7.02463 7.11144 8.60894 6.42921 7.97988C6.19795 7.75854 6.18639 7.44401 6.45234 7.16442C6.83393 6.74504 7.3774 6.88484 7.90931 7.15277C7.95556 7.17607 8.01338 7.22267 8.0365 7.18772C8.05963 7.16442 8.05963 7.12947 8.02494 7.09453C7.97869 7.04793 7.71273 6.82659 7.1577 6.39556C7.11144 6.36061 7.08832 6.36061 7.06519 6.38391C6.99581 6.45381 7.1577 6.51206 7.06519 6.62855C6.92643 6.76834 6.67204 6.75669 6.3714 7.08288C5.97825 7.50225 5.97825 8.15462 6.35983 8.51575C7.26177 9.3545 8.22151 7.71194 8.96156 8.4109C9.20439 8.64389 9.27377 9.01667 8.93843 9.38945C8.48747 9.87873 7.85149 9.63409 7.34271 9.27296C7.2502 9.20306 7.21551 9.19141 7.18082 9.22636C7.1577 9.24966 7.1577 9.27296 7.18082 9.30791L8.18682 10.2515V10.2282Z" fill="#878787"/>
<path id="Vector_11" d="M12.4768 5.09077C12.9393 6.12757 12.708 6.81488 12.1183 7.08281C11.517 7.35075 10.8695 7.05952 10.407 6.02272C9.94444 4.98593 10.1757 4.29861 10.7654 4.03068C11.3667 3.76274 12.0143 4.05398 12.4768 5.09077ZM10.7192 3.92583C9.94444 4.27532 9.34315 5.26551 9.80568 6.29066C10.2566 7.3158 11.3898 7.53714 12.1646 7.18766C12.9393 6.83818 13.5406 5.84798 13.0781 4.82284C12.6271 3.79769 11.4939 3.57635 10.7192 3.92583Z" fill="#878787"/>
<path id="Vector_12" d="M14.8935 5.31188C14.8935 5.8827 15.3444 6.30208 16.2695 6.29043C17.0442 6.27878 17.4489 5.85941 17.4374 5.14879L17.4143 3.59943C17.4143 3.1684 17.5877 2.95871 17.7727 2.90047C17.8999 2.85387 17.9577 2.87717 17.9577 2.80727C17.9577 2.76067 17.923 2.74902 17.8421 2.74902C17.6571 2.74902 17.5299 2.76067 17.3217 2.77232C17.1136 2.77232 16.9749 2.77232 16.8014 2.77232C16.7205 2.77232 16.6973 2.78397 16.6973 2.83057C16.6973 2.90047 16.7552 2.87717 16.8939 2.91211C17.0905 2.97036 17.2755 3.1684 17.2755 3.59943L17.2986 5.14879C17.2986 5.75456 17.0095 6.11569 16.4198 6.11569C15.8763 6.11569 15.5063 5.81281 15.4948 5.28859L15.4601 3.15675C15.4601 2.81892 15.8763 2.97036 15.8648 2.84222C15.8648 2.78397 15.8301 2.77232 15.7492 2.77232C15.5757 2.77232 15.4485 2.78397 15.1479 2.79562C14.8472 2.79562 14.72 2.79562 14.5466 2.79562C14.4656 2.79562 14.4425 2.80727 14.4425 2.86552C14.4425 2.99366 14.8588 2.81892 14.8588 3.15675L14.8935 5.28859V5.31188Z" fill="#878787"/>
<path id="Vector_13" d="M21.5654 3.98404C22.0395 4.17043 22.2708 4.7529 22.2939 5.20722C22.2939 5.33537 22.2939 5.40526 22.3286 5.41691C22.3633 5.42856 22.3749 5.41691 22.3864 5.39361C22.4095 5.33537 22.4211 5.21887 22.4442 5.11403L22.6061 4.28692C22.6061 4.28692 22.6292 4.19373 22.5946 4.18208C22.5714 4.18208 22.5483 4.18208 22.5252 4.19373C22.4905 4.19373 22.4442 4.19373 22.3402 4.15878L20.3397 3.34333C20.2472 3.30838 20.2125 3.27343 20.1894 3.23848C20.1778 3.21518 20.1778 3.19188 20.1431 3.18023C20.0969 3.16858 20.0738 3.22683 20.0506 3.25013L19.5997 3.96074C19.5419 4.04229 19.4725 4.14713 19.4494 4.19373C19.4494 4.21703 19.4494 4.24033 19.4725 4.25198C19.4956 4.25198 19.5534 4.21703 19.6459 4.12383C19.9813 3.82095 20.5479 3.56466 21.0104 3.7627L19.9234 6.47701C19.7962 6.79154 19.4031 6.45371 19.3568 6.5702C19.3337 6.62845 19.38 6.65175 19.4494 6.68669C19.6691 6.77989 19.7962 6.81484 20.0738 6.93133C20.3513 7.04783 20.4669 7.10607 20.6866 7.18762C20.756 7.22257 20.8138 7.22257 20.8369 7.17597C20.8832 7.05947 20.3628 7.02453 20.49 6.70999L21.577 3.99569L21.5654 3.98404Z" fill="#878787"/>
<path id="Vector_14" d="M25.1963 8.39924L24.2481 9.38944C24.0169 9.63408 23.8319 9.22635 23.7394 9.31954C23.6931 9.36614 23.7162 9.38944 23.774 9.44769C23.9012 9.56418 24.0053 9.65737 24.2134 9.86706C24.4331 10.0768 24.5141 10.1699 24.6413 10.2981C24.6991 10.3563 24.7222 10.368 24.7685 10.3214C24.861 10.2282 24.4447 10.0535 24.676 9.80882L26.5261 7.87502C26.7574 7.63038 26.9424 8.03811 27.0349 7.94492C27.0811 7.89832 27.058 7.87502 27.0002 7.81677C26.873 7.70028 26.7689 7.60708 26.5608 7.3974C26.3411 7.18771 26.2601 7.09451 26.1329 6.96637C26.0751 6.90812 26.052 6.89647 26.0057 6.94307C25.9248 7.03627 26.3295 7.21101 26.0982 7.45564L25.2773 8.30605L24.2366 7.29255L25.0576 6.44215C25.2888 6.19751 25.4738 6.60524 25.5663 6.51204C25.6126 6.46545 25.5895 6.44215 25.5317 6.3839C25.4045 6.25576 25.3004 6.17421 25.0923 5.96452C24.8725 5.75483 24.7916 5.66164 24.6644 5.5335C24.6066 5.47525 24.5835 5.4636 24.5372 5.5102C24.4447 5.60339 24.861 5.77813 24.6297 6.02277L22.7796 7.95657C22.5483 8.2012 22.3633 7.79347 22.2708 7.88667C22.2246 7.93327 22.2477 7.95657 22.3055 8.01481C22.4327 8.13131 22.5368 8.2245 22.7449 8.43419C22.9646 8.64388 23.0456 8.73707 23.1728 8.86522C23.2306 8.92346 23.2537 8.93511 23.2999 8.88852C23.3925 8.79532 22.9762 8.62058 23.2074 8.37594L24.1556 7.38575L25.1963 8.39924Z" fill="#878787"/>
<path id="Vector_15" d="M15.8417 1.56102C8.83436 1.8173 3.14525 6.93138 1.82704 13.5715L0.312256 13.2803C1.80391 5.70819 8.42964 0 16.3851 0C24.3406 0 30.8045 5.5684 32.4002 13.0007L30.8854 13.3152C29.3938 6.37221 23.1265 1.29308 15.8301 1.56102H15.8417Z" fill="#00427A"/>
<path id="Vector_16" d="M31.2092 17.4275C31.2439 16.9499 31.2439 16.4606 31.2208 15.9713C31.1861 15.1675 31.0936 14.3754 30.9432 13.6065L32.458 13.292C32.6662 14.3404 32.7702 15.4238 32.7702 16.5305C32.7702 16.8683 32.7702 17.2178 32.7355 17.5557L31.1976 17.4508L31.2092 17.4275Z" fill="#E50040"/>
<path id="Vector_17" d="M31.0242 19.0118C31.0935 18.5807 31.1514 18.1497 31.1861 17.707L32.724 17.8119C32.6893 18.3128 32.6315 18.8021 32.539 19.2797L31.0242 19.0001V19.0118Z" fill="#F9B000"/>
<path id="Vector_18" d="M1.85011 19.5478C3.28395 26.5724 9.58591 31.733 16.9401 31.4651C24.0053 31.2088 29.7406 26.0132 30.9895 19.2915L32.5042 19.5711C31.082 27.2364 24.41 33.0378 16.3967 33.0378C8.38334 33.0378 1.86167 27.3645 0.335327 19.839L1.85011 19.5361V19.5478Z" fill="#00427A"/>
<path id="Vector_19" d="M1.60725 17.9634C1.6535 18.4061 1.71131 18.8371 1.79226 19.2681L0.277474 19.571C0.184968 19.0934 0.115589 18.6041 0.0693359 18.1032L1.60725 17.9634Z" fill="#F9B000"/>
<path id="Vector_20" d="M1.76917 13.8509C1.58416 14.8877 1.50322 15.9594 1.54947 17.0545C1.54947 17.2641 1.5726 17.4738 1.58416 17.6835L0.0462529 17.8233C0.0115632 17.3923 0 16.9496 0 16.5186C0 15.5167 0.0925058 14.5265 0.265954 13.5713L1.78074 13.8625L1.76917 13.8509Z" fill="#E50040"/>
<path id="Vector_21" d="M19.9234 13.5018C19.9234 13.5018 19.9003 13.4552 19.8656 13.4552C19.8424 13.4669 19.8078 13.4902 19.7846 13.5018C19.669 13.595 19.5649 13.7232 19.484 13.8163C19.4493 13.9095 19.3337 14.0027 19.4724 14.1891L19.9581 13.6999C19.9581 13.6999 19.9581 13.5601 19.9234 13.5135V13.5018ZM19.7384 13.0708C19.6343 13.1989 19.5071 13.3387 19.4262 13.5018C19.4146 13.5368 19.403 13.5601 19.3915 13.595C19.3684 13.6533 19.3337 13.7232 19.4377 13.7581L19.6112 13.5018L19.669 13.4203C19.7384 13.3271 19.8656 13.2688 19.8193 13.129L19.7384 13.0824V13.0708ZM19.3684 13.5018C19.4609 13.3387 19.5071 13.1523 19.6112 13.0009C19.5996 12.9426 19.6343 12.8728 19.5765 12.8378C19.403 12.8029 19.4262 13.0358 19.2874 13.1057C19.2874 12.9077 19.4377 12.7563 19.403 12.5699C19.3684 12.5 19.3452 12.4417 19.1833 12.4068C19.1371 12.7446 19.1371 13.0941 19.2758 13.5018L19.3105 13.595C19.3105 13.595 19.3568 13.5368 19.3684 13.5018ZM13.6908 12.1272L13.6446 12.0922C13.4827 12.1155 13.4133 12.3019 13.3439 12.4301C13.4249 12.6747 13.5289 12.896 13.5752 13.1523C13.7024 12.9426 13.6908 12.6864 13.7139 12.4417C13.6908 12.3252 13.6908 12.2553 13.6908 12.1272ZM13.3786 12.8495C13.3208 12.7679 13.3555 12.6048 13.2167 12.6048C13.1358 12.6631 13.1242 12.7446 13.1011 12.8262C13.1936 12.9892 13.2398 13.164 13.4364 13.3853C13.4827 13.2455 13.4017 13.129 13.3786 12.8378V12.8495ZM13.3555 13.5018C13.2977 13.397 13.2052 13.3038 13.1589 13.1989L13.0086 13.0591C12.8351 13.1873 13.0317 13.362 13.078 13.5135C13.0548 13.5484 13.0317 13.5251 13.0201 13.5135C12.997 13.4785 12.9854 13.4319 12.9161 13.4319C12.8814 13.4436 12.8698 13.4785 12.8583 13.5135C12.8583 13.5601 12.8467 13.6067 12.8351 13.6416C12.8929 13.7931 13.078 13.8513 13.1705 14.0377C13.0664 14.0144 12.9623 13.9328 12.7889 14.0493L13.1589 14.4454C13.0895 14.5153 13.0201 14.3988 12.8236 14.4221C12.8236 14.527 12.8467 14.5852 12.8583 14.6784C12.9854 14.7949 13.1473 14.8881 13.3323 14.7716C13.2977 14.4454 13.263 14.061 13.3786 13.7465C13.4133 13.6649 13.3902 13.5834 13.3555 13.5135V13.5018ZM20.0043 14.061L19.9581 14.026C19.7731 14.026 19.6227 14.1775 19.484 14.294C19.484 14.3522 19.3799 14.4105 19.4493 14.4571C19.6112 14.4221 19.7731 14.3988 19.9118 14.3173C19.9465 14.2474 20.0275 14.1775 19.9928 14.0726L20.0043 14.061ZM19.8656 14.492C19.7037 14.3872 19.5418 14.5386 19.4609 14.7599C19.5996 14.7832 19.7731 14.7366 19.8656 14.492ZM15.5294 14.8298C15.6566 14.9463 15.8069 15.0512 15.7491 15.2259C15.6797 15.2609 15.5987 15.2026 15.5294 15.191C15.4369 15.1677 15.2981 15.1327 15.2634 15.2259C15.2865 15.2259 15.3097 15.2492 15.3443 15.2609C15.4947 15.3541 15.6566 15.5288 15.83 15.3657C15.8531 15.3308 15.8647 15.2958 15.8763 15.2609C15.9109 15.1211 15.8531 14.9696 15.8069 14.8182C15.6912 14.7134 15.5525 14.6085 15.4253 14.7017C15.46 14.7367 15.4947 14.7832 15.5409 14.8182L15.5294 14.8298ZM16.281 15.191L16.1306 15.0978C16.1306 15.0978 16.0728 15.1444 16.0844 15.2609V15.3075C16.0844 15.3075 16.1653 15.3657 16.2463 15.2609C16.2578 15.2376 16.2694 15.2143 16.2925 15.191H16.281ZM18.5127 17.0199H18.6283C18.8249 16.9384 18.5936 16.8335 18.6052 16.717C18.6977 16.7054 18.7439 16.8335 18.8249 16.8685C18.9058 16.8918 19.0215 17.0083 19.0908 16.8918C19.0908 16.752 18.9983 16.6471 18.929 16.5074C19.0677 16.5656 19.1949 16.717 19.4724 16.6355C19.4724 16.4258 19.2874 16.3443 19.1602 16.2278C19.299 16.1928 19.4377 16.286 19.6806 16.1462C19.6459 15.9365 19.4493 15.8666 19.2643 15.8433C19.3105 15.7618 19.4262 15.7268 19.4955 15.4939C19.3452 15.3774 19.2412 15.5521 19.1024 15.5521C19.0215 15.4356 19.218 15.424 19.2527 15.3191C19.2527 15.3075 19.2527 15.2842 19.2643 15.2725C19.2758 15.2143 19.299 15.1677 19.2643 15.1094C19.1487 15.0279 19.0793 15.156 18.9983 15.2143C18.9521 15.1444 18.9983 15.0628 18.9983 14.9813H18.9058C18.8711 15.0628 18.848 15.1677 18.8249 15.2609C18.7902 15.4007 18.7671 15.5288 18.7092 15.657C18.6283 15.82 18.5242 15.9831 18.4202 16.1462C18.3277 16.2744 18.2467 16.4142 18.1889 16.554C18.1658 16.6588 18.2236 16.752 18.2583 16.8452C18.3161 16.9384 18.4086 17.0083 18.5127 17.0199ZM13.1126 16.1229C13.2283 16.2511 13.3902 16.1695 13.5289 16.1462H13.5636C13.4827 16.2161 13.4017 16.321 13.4133 16.4258C13.3786 16.5074 13.4364 16.5773 13.5058 16.6005C13.6792 16.6471 13.7833 16.4724 13.9221 16.4491C13.8758 16.5773 13.7371 16.6471 13.9105 16.8801C14.0377 16.9034 14.0955 16.7636 14.1765 16.8335C14.1765 16.9034 14.1996 16.985 14.269 17.0199C14.4424 17.0432 14.5465 16.9034 14.6274 16.7753C14.7199 16.554 14.5812 16.3443 14.5002 16.1462L14.4771 16.088C14.3383 15.8783 14.084 15.7385 14.0377 15.4822C14.0146 15.4123 14.0146 15.3424 14.003 15.2725C14.003 15.1211 13.9799 14.9696 13.8643 14.8764C13.7833 14.9347 13.8643 15.0628 13.8643 15.1444C13.7833 15.156 13.7717 15.0512 13.5983 15.0279C13.552 15.1211 13.5983 15.191 13.6214 15.2609L13.6446 15.3075C13.6446 15.3774 13.7602 15.424 13.6792 15.4939C13.5636 15.4939 13.4711 15.3657 13.367 15.3424C13.3092 15.3424 13.2051 15.3191 13.182 15.4007C13.182 15.5288 13.2745 15.6337 13.5058 15.7851C13.4133 15.8317 13.3208 15.8899 13.2283 15.9132C13.1589 15.9715 13.078 16.0181 13.1126 16.1113V16.1229ZM17.0326 22.7514C17.0673 22.8446 17.102 22.9378 17.2985 22.8796C17.2985 22.833 17.2985 22.7864 17.2985 22.7514C17.2754 22.6 17.206 22.4485 17.1251 22.3087C17.0095 22.1107 16.8591 21.9127 16.7898 21.6913C16.7319 21.6214 16.6857 21.3418 16.5701 21.5282L16.5932 21.6214C16.651 21.8661 16.7666 22.0874 16.8707 22.3087C16.9285 22.4252 16.9863 22.5534 17.0326 22.6699C17.0326 22.6932 17.0441 22.7165 17.0557 22.7398L17.0326 22.7514ZM16.385 22.7514C16.385 22.7514 16.4544 22.8446 16.5238 22.8912C16.6047 22.9378 16.6163 23.066 16.7666 22.9495V22.7514C16.7319 22.6 16.7088 22.4485 16.6857 22.3087C16.6394 22.0874 16.5816 21.8777 16.5122 21.6564L16.3966 21.5632C16.3157 21.6214 16.3619 21.7379 16.3388 21.8195C16.3388 21.8544 16.3388 21.8777 16.3388 21.9127C16.3388 22.0292 16.3157 22.1689 16.3041 22.2971C16.2925 22.4602 16.2925 22.6116 16.3619 22.7398L16.385 22.7514ZM15.83 22.7514C15.83 22.8446 15.83 22.9378 15.9341 23.031C16.0035 22.9262 16.1075 22.8446 16.1885 22.7514C16.2 22.7281 16.2232 22.7165 16.2347 22.6932C16.2347 22.565 16.2347 22.4369 16.2347 22.3087C16.2347 22.0758 16.2347 21.8544 16.2347 21.6331L16.1422 21.5981C16.0844 21.8428 15.9803 22.0758 15.9109 22.3204C15.8994 22.3786 15.8878 22.4369 15.8763 22.4951C15.8763 22.5883 15.8416 22.6699 15.83 22.7631V22.7514ZM15.1593 22.3087L15.009 22.5417C15.009 22.5417 14.9396 22.6699 15.09 22.7398C15.1709 22.6116 15.2518 22.4835 15.3443 22.3786C15.5294 22.0641 15.7606 21.7729 15.8647 21.4234L15.83 21.3535C15.5756 21.668 15.3675 21.9826 15.1593 22.3087ZM15.5409 21.4234C15.3097 21.6564 15.0553 21.8661 14.8356 22.1107C14.7893 22.1806 14.7315 22.2388 14.6852 22.3087C14.639 22.3786 14.6043 22.4602 14.6506 22.5417C14.8009 22.565 14.8356 22.4019 14.9049 22.3204C15.0206 22.0991 15.2865 21.9593 15.4253 21.7612C15.4947 21.6447 15.5987 21.5515 15.6681 21.435C15.6912 21.3884 15.7144 21.3418 15.7375 21.2952H15.6912C15.6912 21.2952 15.5987 21.3768 15.5409 21.435V21.4234ZM15.1709 21.4234C14.9512 21.5865 14.7431 21.7496 14.558 21.936C14.5118 22.0059 14.4424 22.0641 14.558 22.2039C14.639 22.2039 14.6621 22.1224 14.7199 22.0758C14.9049 21.8195 15.2056 21.668 15.4137 21.4234C15.4369 21.4001 15.46 21.3768 15.4715 21.3535C15.5294 21.2952 15.6334 21.237 15.6103 21.1555H15.5525C15.4253 21.237 15.2981 21.3302 15.1709 21.4234ZM14.454 21.4234C14.373 21.4816 14.3268 21.5865 14.373 21.7379C14.6043 21.8544 14.6852 21.5748 14.8471 21.4234C14.7546 21.3535 14.5927 21.3651 14.5002 21.3884C14.4771 21.3884 14.454 21.4117 14.4424 21.4234H14.454ZM13.5405 21.4234C13.4827 21.4816 13.4595 21.5748 13.4364 21.6447C13.5636 21.7612 13.7486 21.7146 13.8989 21.6913C13.9221 21.668 13.9452 21.6447 13.9683 21.6214C14.0146 21.5632 14.0261 21.4933 14.003 21.4117C13.8989 21.3302 13.7486 21.3651 13.6446 21.3535C13.5983 21.3535 13.5752 21.3884 13.5405 21.4117V21.4234ZM12.5923 21.4234C12.5923 21.4234 12.5229 21.4816 12.4998 21.5282C12.4882 21.5865 12.4998 21.6447 12.546 21.6913C12.7657 21.7496 13.078 21.7845 13.2745 21.6331C13.3092 21.5748 13.3555 21.5049 13.3323 21.4234L13.1936 21.3768C13.0086 21.4001 12.7426 21.3069 12.5807 21.4234H12.5923ZM17.0904 20.5497C17.0557 20.6545 17.0095 20.7361 17.021 20.8409C17.102 20.9924 17.287 21.0856 17.4142 21.2021L18.3739 21.1089C18.2467 20.9341 18.0964 20.806 17.9229 20.6545C17.8767 20.6079 17.8304 20.573 17.7842 20.5497C17.6917 20.5031 17.5992 20.4798 17.4951 20.4681C17.4142 20.4448 17.4026 20.2352 17.2292 20.2002C17.206 20.2818 17.1366 20.4681 17.102 20.5497H17.0904ZM15.7144 20.5497C15.83 20.8875 15.9803 21.2137 16.281 21.4234C16.4544 21.4583 16.5469 21.2486 16.6279 21.1555C16.7898 20.9807 16.8823 20.771 16.9516 20.5497C16.9748 20.4681 17.0095 20.3982 17.021 20.3167C16.9863 20.2818 16.8938 20.2818 16.9169 20.2002C17.0904 20.0138 17.0904 19.7925 17.1482 19.5478C17.206 19.4313 17.1135 19.2916 17.1829 19.1751C17.2176 19.1518 17.2523 19.1867 17.287 19.1751C17.3563 19.0003 17.4604 18.8139 17.4604 18.6042C17.3448 18.2897 17.1945 17.9868 17.1482 17.6606C17.0904 17.4277 17.1135 17.218 17.1482 17.0083C17.1482 16.9151 17.1713 16.8102 17.1829 16.717C17.2292 16.519 17.2292 16.321 17.1829 16.1229C17.1829 16.0763 17.1598 16.0297 17.1482 15.9831C17.1135 15.9132 17.102 15.8317 17.0673 15.7734C16.9979 15.657 16.8938 15.4822 16.7319 15.5055C16.5932 15.5521 16.5816 15.7035 16.5701 15.82C16.5585 15.9365 16.5238 16.0414 16.466 16.1346C16.3619 16.321 16.1769 16.4608 15.9688 16.5307C15.8184 16.6122 15.5756 16.519 15.4831 16.6821C15.5178 16.7986 15.5178 16.9034 15.5062 17.0199C15.4484 17.5907 15.2981 18.1266 15.1131 18.6508C15.1478 18.8256 15.1825 19.0236 15.2403 19.1867C15.2634 19.1867 15.2865 19.1751 15.3097 19.1518C15.3328 19.1518 15.4022 19.1285 15.4137 19.1751C15.379 19.408 15.4137 19.676 15.5409 19.874C15.5872 20.0022 15.7491 20.0954 15.7838 20.2119C15.7491 20.3283 15.6681 20.2119 15.6103 20.2119V20.2817C15.6334 20.3749 15.6566 20.4565 15.6912 20.538L15.7144 20.5497ZM15.1825 20.5497C14.8703 20.7128 14.5349 20.7943 14.3037 21.2137C14.558 21.2603 14.8818 21.2137 15.1709 21.2137C15.3328 21.1671 15.4369 21.004 15.5756 20.9458C15.6334 20.8759 15.6334 20.7943 15.6219 20.7128C15.5987 20.6662 15.5872 20.6079 15.564 20.5497L15.5294 20.4565L15.4022 20.3516C15.4022 20.3516 15.2287 20.5147 15.1709 20.5497H15.1825ZM20.1778 21.4234L20.2009 21.4583C20.2009 21.5515 20.1778 21.6447 20.1315 21.7146C19.9928 21.9243 19.7037 21.7612 19.5534 21.9243C19.4609 21.9826 19.3452 22.0408 19.2412 21.9942C19.1602 21.9476 19.1024 21.8078 18.9983 21.8777C18.9058 21.9709 18.7786 22.0408 18.6514 21.9942C18.5705 21.9127 18.5011 21.8195 18.3739 21.8544C18.3392 22.0408 18.4433 22.1573 18.4895 22.2854C18.5936 22.4369 18.6977 22.565 18.7092 22.7281C18.7092 22.7514 18.7092 22.7864 18.7092 22.8097C18.5821 22.8796 18.4202 22.9262 18.3855 23.0892C18.2814 23.1242 18.1542 23.1125 18.108 23.2174C18.0733 23.2989 18.0733 23.3805 17.9923 23.4504C17.8883 23.4737 17.7842 23.4271 17.6917 23.4504C17.6107 23.5086 17.5992 23.6601 17.4835 23.6251C17.4026 23.5902 17.3101 23.5669 17.206 23.5902C17.102 23.6484 17.0904 23.7999 16.9863 23.8698L16.6394 23.7183C16.466 23.7416 16.4197 24.0212 16.2232 23.9513C16.096 23.8698 16.0613 23.6834 15.8878 23.6834L15.6103 23.7766C15.5294 23.7067 15.4831 23.5902 15.3559 23.5902C15.275 23.5902 15.1825 23.6251 15.1015 23.6135C14.9859 23.5319 14.9743 23.3688 14.8471 23.3455C14.7431 23.3222 14.5812 23.3805 14.5234 23.2523C14.5234 23.0194 14.1996 23.1242 14.1649 22.9262C14.188 22.798 14.084 22.7631 14.0146 22.7048C13.9683 22.6699 13.9336 22.6233 13.9568 22.5417C13.9914 22.4485 14.0377 22.3553 14.084 22.2738C14.1533 22.134 14.2458 22.0175 14.3383 21.8894C14.084 21.8428 14.003 21.9709 13.8527 21.9476C13.7139 21.9476 13.5867 21.7263 13.4711 21.9243C13.3208 21.9942 13.1936 21.8661 13.0664 21.8311C12.8004 21.8311 12.4651 21.9127 12.3263 21.6447C12.2917 21.5632 12.3148 21.47 12.3495 21.4001C12.361 21.3651 12.3842 21.3418 12.4073 21.3185C12.6732 21.0856 13.1126 21.3302 13.367 21.0972C13.6561 21.004 13.9799 21.2021 14.1996 20.9458C14.3499 20.7943 14.5118 20.6662 14.6737 20.5264C14.9281 20.3167 15.0437 20.0954 15.09 19.7575C15.2172 19.6177 15.09 19.4546 15.09 19.3032C14.9975 19.1052 15.0206 18.8722 14.9165 18.6858C14.824 18.7091 14.8124 18.8372 14.8009 18.9188C14.8124 19.245 14.7778 19.5711 14.5234 19.7575C14.373 19.7925 14.2227 19.5944 14.084 19.7575C13.9915 19.7925 13.9221 19.9323 13.8064 19.8624C13.6908 19.7808 13.5867 19.5478 13.4249 19.641C13.3092 19.7109 13.2514 19.8857 13.1011 19.8274C12.9854 19.7459 12.9392 19.5362 12.7773 19.5595C12.6964 19.6061 12.6154 19.676 12.5229 19.641C12.4304 19.5711 12.3495 19.4779 12.3032 19.3731C12.1298 19.3032 11.9448 19.5012 11.7713 19.3964C11.6904 19.2916 11.6788 19.1518 11.5747 19.0702C11.4128 19.0702 11.1816 19.1867 11.0891 19.0003C11.0544 18.9071 11.0891 18.7673 10.9619 18.7324C10.7191 18.7324 10.4415 18.8605 10.2218 18.7324C10.2565 18.546 10.3259 18.3713 10.3953 18.1965C10.2565 18.115 10.0715 18.2082 9.93276 18.1499C9.84025 18.1383 9.73618 18.115 9.67836 18.0218C9.67836 17.8121 9.794 17.6606 9.82869 17.4626L9.794 17.4393C9.55117 17.4626 9.27365 17.451 9.05395 17.3345C8.96144 17.2413 9.05395 17.0898 9.11177 16.9966C9.16958 16.9151 9.2274 16.8452 9.25052 16.752C9.18115 16.6355 9.03082 16.6704 8.93832 16.5889C8.85738 16.5074 8.62611 16.5307 8.68393 16.3676C8.71862 16.2627 8.788 16.1812 8.85737 16.1113C8.94988 16.0181 9.05395 15.9249 9.13489 15.82C9.06551 15.622 8.81112 15.5405 8.67236 15.3657C8.69549 15.3191 8.71862 15.2725 8.74174 15.2376C8.85737 15.0512 9.0077 14.9347 9.14646 14.8415C9.15802 14.8298 9.16958 14.8065 9.16958 14.7949C9.16958 14.7483 9.13489 14.6901 9.1002 14.6551C8.97301 14.4804 8.788 14.3755 8.69549 14.1891C8.85737 14.0493 9.05395 13.9445 9.26209 13.9095C9.2274 13.7115 9.13489 13.5834 9.06551 13.4669C9.01926 13.4086 8.98457 13.3504 8.96144 13.2921C9.23896 13.1756 9.58586 13.2921 9.85181 13.1523C9.70149 12.8611 9.53961 12.7097 9.40085 12.5C9.42397 12.4068 9.53961 12.465 9.59742 12.4417C9.84025 12.4068 10.0715 12.5116 10.3028 12.5116C10.0831 12.2204 9.85181 11.9525 9.85181 11.6263C10.3837 11.6845 10.7422 11.9874 11.1238 12.1854C11.0775 11.7428 10.534 11.4282 10.534 10.9739C11.1122 11.2302 11.5516 11.4981 11.9448 11.8476C11.7944 11.4282 11.7713 11.0554 11.54 10.7759C11.436 10.6011 11.4475 10.3798 11.436 10.1934C11.5516 10.1584 11.621 10.3215 11.7251 10.3565C11.9679 10.6361 12.1876 10.9157 12.3495 11.2302C12.5923 11.2069 12.5345 11.0438 12.4767 10.9157C12.4073 10.7409 12.3726 10.5778 12.361 10.3798C12.257 10.1119 12.2801 9.89051 12.3495 9.62258C12.6501 9.70412 12.6617 9.92546 12.7542 10.0886C12.8583 10.3448 12.9045 10.6361 12.9854 10.904C13.0433 11.0089 12.9854 11.1253 13.0895 11.1836C13.2745 11.1603 13.1358 10.9623 13.1705 10.8458C13.1705 10.5312 13.2398 10.1584 13.1705 9.85556C13.1011 9.54103 13.2283 9.2498 13.4364 9.05176H13.4942C13.5405 9.29639 13.5983 9.56433 13.5752 9.79732C13.633 9.96041 13.5405 10.1002 13.633 10.2283C13.8064 10.2516 13.818 9.97206 13.9915 9.98371C14.0493 10.1002 14.0146 10.2866 14.0724 10.4031C14.0955 10.5778 14.084 10.7642 14.0724 10.9623C14.0955 11.0787 14.0608 11.2302 14.0493 11.37C13.9799 11.836 13.9105 12.2903 13.8296 12.7563C13.7255 12.9776 13.7024 13.2339 13.7255 13.4785C13.7486 13.8163 13.8411 14.1542 13.9105 14.4571C13.9799 14.5736 14.0377 14.6784 14.084 14.8065C14.1418 14.9463 14.188 15.0978 14.2112 15.2492C14.2227 15.3308 14.2343 15.4007 14.2458 15.4822C14.3615 15.7385 14.5927 15.8899 14.6968 16.1229C14.7199 16.1695 14.7315 16.2278 14.7431 16.286C14.8009 16.3676 14.9049 16.3559 14.9859 16.3443C15.2403 16.1579 15.379 16.6238 15.6103 16.4025C15.6912 16.321 15.7606 16.2278 15.7953 16.1229C15.8184 16.053 15.83 15.9715 15.8184 15.8783C15.7722 15.7385 15.7838 15.5521 15.6103 15.4939L15.5062 15.4356C15.3328 15.3308 15.1593 15.2143 15.009 15.0745C15.09 14.9813 15.1593 15.0395 15.2287 15.0395C15.379 15.0395 15.5178 15.0861 15.6681 15.1094C15.5987 14.9929 15.5294 14.8881 15.4484 14.8182C15.3328 14.7017 15.2172 14.6318 15.09 14.5736C15.1593 14.492 15.3097 14.527 15.4137 14.5386C15.6797 14.6085 15.9456 14.7017 16.1885 14.8182C16.4429 14.9347 16.6857 15.0745 16.9169 15.2609L16.9632 15.2958C17.1829 15.5521 17.3332 15.82 17.4026 16.1346C17.4026 16.1812 17.4142 16.2278 17.4257 16.2744C17.5067 16.5423 17.8304 16.3676 18.027 16.4608C18.1195 16.3559 18.212 16.2511 18.293 16.1462C18.5127 15.8666 18.6861 15.5871 18.7439 15.2609C18.7439 15.2143 18.7555 15.1677 18.7555 15.1211L18.8133 14.8182C18.8943 14.4221 18.9868 14.026 19.1255 13.6416V13.5018C19.0446 12.3136 18.929 11.1603 19.0099 9.97206C19.114 9.90216 19.1255 10.0886 19.218 10.1235C19.3684 9.75072 19.3105 9.41289 19.5418 9.21485C19.7499 9.28475 19.7615 9.52938 19.8078 9.72742C19.7846 10.0653 19.8078 10.4031 19.8424 10.7293C20.0621 10.3914 20.12 9.92546 20.5131 9.71577C20.5709 10.0653 20.5131 10.3099 20.5362 10.6011C20.5015 10.7759 20.3744 10.9157 20.3281 11.102C20.2472 11.2302 20.2587 11.4166 20.3281 11.5564C20.3975 11.6263 20.4553 11.4981 20.5015 11.4399C20.7213 11.0554 21.0103 10.6361 21.4035 10.3565C21.6232 10.3914 21.5885 10.5312 21.5769 10.6128C21.5538 10.7875 21.4266 10.9273 21.4035 11.0904C21.1722 11.3001 21.0681 11.5564 20.941 11.8127C20.8947 11.8826 20.7906 11.999 20.86 12.1039C20.9988 12.0573 21.0681 11.9408 21.1607 11.836C21.4266 11.4049 21.8776 11.1719 22.3054 10.9856C22.3864 11.3001 22.1204 11.4399 22.0626 11.6962C21.947 11.9874 21.7041 12.232 21.4382 12.3718C21.3688 12.4417 21.2763 12.5233 21.2878 12.6281C21.3572 12.7213 21.4497 12.6048 21.5191 12.5815C21.9585 12.267 22.421 11.9874 22.9414 11.8942C23.0802 12.0922 22.9067 12.2087 22.7911 12.3136C22.5945 12.4534 22.3748 12.6281 22.2129 12.8378C22.3517 12.9776 22.4789 12.8611 22.6176 12.8145C22.8373 12.6864 23.1611 12.6631 23.4155 12.7097C23.2652 12.9892 23.0802 13.1407 22.9414 13.3504C22.9992 13.5135 23.1842 13.3504 23.323 13.3737C23.4849 13.397 23.6814 13.397 23.7971 13.5251C23.8086 13.5368 23.8202 13.5484 23.8318 13.5601C23.6699 13.7814 23.4733 13.8629 23.3345 14.0144C23.4964 14.2241 23.693 14.1775 23.8433 14.2707C23.9127 14.3056 24.0052 14.3639 24.0515 14.4221C23.9127 14.5969 23.7161 14.6901 23.6005 14.8415C23.5774 14.8764 23.5542 14.9114 23.5427 14.958C23.6467 15.0861 23.8202 15.0978 23.959 15.2026C23.9936 15.2376 24.0283 15.2609 24.0746 15.2842C24.1671 15.3424 24.2827 15.4007 24.3059 15.5172C24.1093 15.6453 23.9243 15.7618 23.7046 15.855C23.6236 15.9016 23.6467 15.9948 23.7046 16.0297C23.7508 16.0763 23.8086 16.1229 23.8549 16.1695C23.9358 16.2394 24.0168 16.3093 24.0862 16.3909C24.063 16.519 23.9127 16.5307 23.8202 16.5889C23.6699 16.6588 23.508 16.6704 23.3924 16.8102C23.4039 16.9151 23.4964 16.985 23.5542 17.0549C23.6467 17.1947 23.693 17.3228 23.6699 17.451L23.6005 17.4859L22.9761 17.5441L22.953 17.5791C23.0339 17.7538 23.1495 17.9286 23.138 18.1383C22.9183 18.2315 22.6523 18.1965 22.421 18.2315L22.3748 18.2781L22.3285 18.7091L22.2476 18.779C22.0741 18.8605 21.7157 18.6625 21.681 18.9887C21.6347 19.0586 21.6232 19.1518 21.5422 19.1867C21.3688 19.1984 21.1838 19.0702 21.0103 19.1634C20.86 19.2566 20.9178 19.6061 20.6519 19.4896C20.5709 19.443 20.4322 19.3964 20.3512 19.443C20.2472 19.5478 20.2587 19.8041 20.0737 19.7692C19.9696 19.7342 19.9118 19.6177 19.7962 19.641C19.6343 19.6993 19.6112 20.0721 19.403 19.8391C19.3221 19.8158 19.2296 19.7226 19.1487 19.8041C19.0561 19.8624 18.9868 20.0022 18.8711 19.9789C18.7902 19.909 18.7439 19.7925 18.6283 19.7808C18.5011 19.8158 18.4317 19.9439 18.293 19.8973C17.9461 19.6993 17.9692 19.2683 17.8651 18.9304C17.8189 18.8955 17.7842 18.8605 17.7264 18.8722L17.657 18.9654C17.6223 19.2566 17.4489 19.5362 17.5182 19.8158C17.6686 20.0954 17.9114 20.3516 18.1658 20.5963C18.3277 20.7594 18.4895 20.9225 18.6399 21.0623C18.9174 21.2603 19.3221 21.0273 19.5765 21.2836C19.8193 21.2952 20.1315 21.2486 20.2934 21.47L20.1778 21.4234ZM19.4262 21.4234C19.3337 21.4816 19.2643 21.5865 19.2412 21.7496C19.5302 21.7496 19.8193 21.8195 20.0159 21.6098C20.0275 21.5515 20.0506 21.4933 20.0159 21.4234C19.8771 21.3535 19.7037 21.3768 19.5534 21.3651C19.5071 21.3651 19.4493 21.4001 19.403 21.4234H19.4262ZM18.8018 21.4234C18.7439 21.4467 18.6746 21.4816 18.6167 21.5282C18.6167 21.5981 18.6399 21.668 18.6861 21.7146C18.7786 21.7496 18.9174 21.7379 19.0215 21.6913C19.0677 21.6214 19.1833 21.5748 19.1718 21.47C19.1718 21.4583 19.1602 21.4467 19.1487 21.435C19.0793 21.3651 18.9521 21.3768 18.8018 21.435V21.4234ZM17.9345 21.4234L17.7148 21.4467C17.8883 21.5399 18.027 21.8544 18.2814 21.7263C18.3392 21.6913 18.397 21.6098 18.3508 21.4234V21.3884L17.9461 21.4234H17.9345ZM17.287 21.4234C17.4373 21.5865 17.5876 21.7496 17.7379 21.9127L17.7842 21.9593L17.8304 22.0059L17.8883 22.0641C17.9923 22.1456 18.0501 22.3087 18.2236 22.2272C17.9923 21.936 17.7264 21.668 17.4604 21.4234C17.3448 21.3185 17.2407 21.2253 17.1251 21.1322H17.0326L17.2754 21.4234H17.287ZM16.9632 21.4234C16.9632 21.4234 16.9863 21.4583 16.9979 21.47C17.1713 21.7845 17.4257 22.0175 17.6917 22.2971C17.8073 22.4136 17.9229 22.5417 18.027 22.6815C18.0617 22.6233 18.108 22.565 18.0848 22.4835C18.0386 22.4136 17.9923 22.3553 17.9345 22.2971C17.7958 22.134 17.6339 21.9942 17.5067 21.8195C17.4026 21.6797 17.287 21.5515 17.1598 21.4234C17.0673 21.3418 16.9632 21.2603 16.836 21.1788C16.8013 21.2836 16.8938 21.3535 16.9516 21.4234H16.9632ZM17.2407 22.3087C17.287 22.3786 17.3448 22.4485 17.391 22.5068C17.4604 22.5767 17.4951 22.6815 17.5876 22.7514C17.6223 22.7747 17.6686 22.798 17.7264 22.798C17.7264 22.7864 17.7264 22.7631 17.7264 22.7514C17.7264 22.6116 17.6339 22.4602 17.5182 22.3553L17.4835 22.3087C17.2292 22.0059 17.0557 21.6564 16.7666 21.4234L16.7204 21.3884C16.836 21.7146 17.0326 22.0175 17.2407 22.3087ZM15.3675 22.7514C15.3097 22.8796 15.3675 22.9844 15.5872 22.9844C15.5987 22.9029 15.6219 22.8213 15.645 22.7514C15.6797 22.6349 15.7259 22.5184 15.7953 22.4136L15.8184 22.3204C15.8878 22.0292 16.015 21.7496 16.0381 21.4467L15.9688 21.4001L15.9456 21.4467C15.8184 21.7379 15.6681 22.0292 15.5294 22.3087C15.4947 22.4718 15.4137 22.6116 15.3675 22.7631V22.7514Z" fill="#878787"/>
<path id="Vector_22" d="M22.1089 27.5389L22.6408 28.0049C22.6986 28.0515 22.8142 28.168 22.8374 28.2146C22.953 28.4592 22.583 28.4825 22.6408 28.5873C22.6639 28.6223 22.687 28.6339 22.7333 28.6106C22.9067 28.5174 23.0802 28.4359 23.2536 28.3427C23.4271 28.2612 23.6121 28.1796 23.7856 28.0981C23.8318 28.0748 23.8549 28.0631 23.8318 28.0049C23.7856 27.9 23.6352 28.1447 23.3924 27.9233L21.4382 26.2458C20.8947 25.7798 20.8254 25.6284 20.7675 25.6517C20.7097 25.675 20.7675 25.7332 20.7675 25.9779C20.7675 26.3041 20.6982 26.3274 20.7329 26.3973C20.756 26.4555 20.9063 26.4905 20.9179 26.5138C20.941 26.5487 20.941 26.7584 21.0798 28.366C21.1144 28.7271 21.0798 29.0417 21.0219 29.1931C20.9526 29.3562 20.756 29.4028 20.8022 29.4843C20.8254 29.5193 20.8369 29.5309 20.8832 29.5076C21.0335 29.4261 21.1723 29.3562 21.3226 29.2863C21.6232 29.1349 21.7273 29.0999 21.8198 29.0533C21.8661 29.03 21.8892 29.0184 21.8661 28.9718C21.8082 28.8669 21.5076 29.1465 21.2879 28.6922C21.2185 28.564 21.2185 28.401 21.1607 27.9932L22.132 27.5156L22.1089 27.5389ZM22.0164 27.4457L21.1376 27.8767L21.0104 26.5604L22.0164 27.4457Z" fill="#878787"/>
<path id="Vector_23" d="M156.948 6.20899C156.948 6.53517 156.901 6.83806 156.716 7.08269C156.543 7.31568 156.289 7.45547 155.953 7.45547C155.56 7.45547 155.259 7.30403 155.259 6.9429C155.259 6.29054 155.988 6.20899 156.474 6.20899H156.948ZM158 8.15444C157.977 7.82825 157.954 7.53702 157.954 7.21084C157.954 6.8963 157.942 6.58177 157.942 6.15074V5.61487C157.942 4.36839 157.41 3.83252 156.138 3.83252C155.676 3.83252 155.109 3.96066 154.681 4.14705L154.716 5.09065C155.086 4.81107 155.549 4.63633 156.011 4.63633C156.659 4.63633 156.959 4.86931 156.959 5.54498H156.358C155.907 5.54498 155.364 5.57993 154.947 5.78961C154.531 5.9993 154.23 6.36043 154.23 6.9895C154.23 7.79331 154.959 8.24763 155.699 8.24763C156.196 8.24763 156.74 7.9797 156.994 7.51372H157.006C157.006 7.64186 157.006 7.92145 157.052 8.14279H158.012L158 8.15444Z" fill="#00427A"/>
<path id="Vector_24" d="M153.363 3.9375H152.276V8.15457H153.363V3.9375Z" fill="#00427A"/>
<path id="Vector_25" d="M153.363 2.12012H152.276V3.16856H153.363V2.12012Z" fill="#00427A"/>
<path id="Vector_26" d="M151.12 2.01514H150.033V8.15435H151.12V2.01514Z" fill="#00427A"/>
<path id="Vector_27" d="M147.952 6.20899C147.952 6.53517 147.905 6.83806 147.72 7.08269C147.547 7.31568 147.292 7.45547 146.957 7.45547C146.564 7.45547 146.263 7.30403 146.263 6.9429C146.263 6.29054 146.992 6.20899 147.477 6.20899H147.952ZM149.015 8.15444C148.992 7.82825 148.969 7.53702 148.969 7.21084C148.969 6.8963 148.958 6.58177 148.958 6.15074V5.61487C148.958 4.36839 148.426 3.83252 147.154 3.83252C146.691 3.83252 146.125 3.96066 145.697 4.14705L145.731 5.09065C146.101 4.81107 146.564 4.63633 147.026 4.63633C147.674 4.63633 147.975 4.86931 147.975 5.54498H147.373C146.922 5.54498 146.379 5.57993 145.963 5.78961C145.546 5.9993 145.246 6.36043 145.246 6.9895C145.246 7.79331 145.974 8.24763 146.714 8.24763C147.211 8.24763 147.755 7.9797 148.009 7.51372H148.021C148.021 7.64186 148.021 7.92145 148.067 8.14279H149.027L149.015 8.15444Z" fill="#00427A"/>
<path id="Vector_28" d="M144.355 4.89268C144.552 4.89268 144.749 4.92763 144.841 4.98588V3.87919C144.725 3.84424 144.61 3.84424 144.506 3.84424C143.858 3.84424 143.407 4.50825 143.361 4.90433H143.349V3.94908H142.378V8.16616H143.465V6.61679C143.465 6.01102 143.465 4.89268 144.355 4.89268Z" fill="#00427A"/>
<path id="Vector_29" d="M140.898 8.25959C141.222 8.25959 141.476 8.22465 141.707 8.1664L141.673 7.2927C141.557 7.36259 141.372 7.40919 141.176 7.40919C140.759 7.40919 140.667 7.07136 140.667 6.71023V4.74148H141.638V3.93768H140.667V2.73779L139.58 3.08727V3.92603H138.77V4.72984H139.58V6.87332C139.58 7.71207 140.054 8.2363 140.91 8.2363" fill="#00427A"/>
<path id="Vector_30" d="M136.481 5.11402C136.481 4.75289 136.828 4.64804 137.128 4.64804C137.522 4.64804 137.776 4.71794 138.1 4.82279L138.169 3.99568C137.822 3.92578 137.498 3.84424 136.978 3.84424C136.122 3.84424 135.336 4.24032 135.336 5.16062C135.336 6.68668 137.232 6.11587 137.232 6.94297C137.232 7.3507 136.793 7.45554 136.516 7.45554C136.145 7.45554 135.787 7.3507 135.44 7.17596L135.371 8.07296C135.764 8.1778 136.192 8.2477 136.608 8.2477C137.498 8.2477 138.366 7.85162 138.366 6.87307C138.366 5.34701 136.469 5.77803 136.469 5.10237" fill="#00427A"/>
<path id="Vector_31" d="M133.474 8.15457H134.504V3.9375H133.417V5.99944C133.417 6.53531 133.243 7.39736 132.457 7.39736C131.763 7.39736 131.751 6.6984 131.751 6.18583V3.9375H130.665V6.60521C130.665 7.56045 131.092 8.25942 132.087 8.25942C132.653 8.25942 133.128 7.99148 133.463 7.58375H133.474V8.15457Z" fill="#00427A"/>
<path id="Vector_32" d="M127.982 5.94103H126.328L127.149 3.57621H127.161L127.982 5.94103ZM130.052 8.15441L127.82 2.43457H126.536L124.328 8.15441H125.507L126.005 6.83803H128.306L128.791 8.15441H130.052Z" fill="#00427A"/>
<path id="Vector_33" d="M120.373 8.15435H121.46V5.48665C121.46 4.5314 121.032 3.83244 120.038 3.83244C119.471 3.83244 118.997 4.10037 118.72 4.5081H118.708V2.01514H117.621V8.15435H118.708V6.09242C118.708 5.55655 118.882 4.69449 119.668 4.69449C120.362 4.69449 120.373 5.39345 120.373 5.90603V8.15435Z" fill="#00427A"/>
<path id="Vector_34" d="M116.153 8.25959C116.476 8.25959 116.731 8.22465 116.962 8.1664L116.927 7.2927C116.812 7.36259 116.627 7.40919 116.43 7.40919C116.014 7.40919 115.921 7.07136 115.921 6.71023V4.74148H116.893V3.93768H115.921V2.73779L114.834 3.08727V3.92603H114.025V4.72984H114.834V6.87332C114.834 7.71207 115.309 8.2363 116.164 8.2363" fill="#00427A"/>
<path id="Vector_35" d="M112.337 8.15457H113.366V3.9375H112.279V5.99944C112.279 6.53531 112.106 7.39736 111.319 7.39736C110.625 7.39736 110.614 6.6984 110.614 6.18583V3.9375H109.527V6.60521C109.527 7.56045 109.955 8.25942 110.949 8.25942C111.516 8.25942 111.99 7.99148 112.325 7.58375H112.337V8.15457Z" fill="#00427A"/>
<path id="Vector_36" d="M107.55 5.94112C107.55 6.65174 107.33 7.3973 106.497 7.3973C105.665 7.3973 105.445 6.64009 105.445 5.94112C105.445 5.31206 105.792 4.68299 106.497 4.68299C107.203 4.68299 107.55 5.28876 107.55 5.94112ZM108.683 6.08092C108.683 4.68299 107.735 3.84424 106.486 3.84424C105.237 3.84424 104.3 4.68299 104.3 6.08092C104.3 7.29245 105.11 8.25935 106.486 8.25935C107.862 8.25935 108.683 7.29245 108.683 6.08092Z" fill="#00427A"/>
<path id="Vector_37" d="M101.167 4.03089C101.167 3.41347 101.676 3.23873 102.057 3.23873C102.439 3.23873 102.855 3.33192 103.213 3.48337L103.317 2.53977C102.901 2.39997 102.45 2.33008 101.965 2.33008C100.959 2.33008 99.9757 2.79605 99.9757 4.07748C99.9757 5.96468 102.462 5.52201 102.462 6.6054C102.462 7.11797 101.884 7.33931 101.456 7.33931C101.028 7.33931 100.565 7.19951 100.172 6.98983L100.068 8.02662C100.623 8.16641 100.901 8.24796 101.525 8.24796C102.67 8.24796 103.653 7.77033 103.653 6.52385C103.653 4.60171 101.167 5.02108 101.167 4.03089Z" fill="#00427A"/>
<path id="Vector_38" d="M97.1196 2.91249L97.2121 2.00384C97.0039 1.95724 96.6917 1.91064 96.4142 1.91064C95.547 1.91064 95.0845 2.50476 95.0845 3.34352V3.93764H94.275V4.74144H95.0845V8.15471H96.1714V4.74144H97.1196V3.93764H96.1714V3.41341C96.1714 3.08723 96.287 2.76105 96.6455 2.76105C96.8768 2.76105 97.0155 2.85424 97.1196 2.91249Z" fill="#00427A"/>
<path id="Vector_39" d="M92.7024 5.94112C92.7024 6.65174 92.4827 7.3973 91.6502 7.3973C90.8176 7.3973 90.5979 6.64009 90.5979 5.94112C90.5979 5.31206 90.9448 4.68299 91.6502 4.68299C92.3555 4.68299 92.7024 5.28876 92.7024 5.94112ZM93.8472 6.08092C93.8472 4.68299 92.899 3.84424 91.6502 3.84424C90.4013 3.84424 89.4647 4.68299 89.4647 6.08092C89.4647 7.29245 90.2741 8.25935 91.6502 8.25935C93.0262 8.25935 93.8472 7.29245 93.8472 6.08092Z" fill="#00427A"/>
<path id="Vector_40" d="M86.0189 8.25959C86.3426 8.25959 86.597 8.22465 86.8283 8.1664L86.7936 7.2927C86.678 7.36259 86.493 7.40919 86.2964 7.40919C85.8801 7.40919 85.7876 7.07136 85.7876 6.71023V4.74148H86.7589V3.93768H85.7876V2.73779L84.7007 3.08727V3.92603H83.8912V4.72984H84.7007V6.87332C84.7007 7.71207 85.1748 8.2363 86.0304 8.2363" fill="#00427A"/>
<path id="Vector_41" d="M82.1452 8.15444H83.2322V5.48673C83.2322 4.53148 82.8043 3.83252 81.8099 3.83252C81.2433 3.83252 80.7808 4.01891 80.4339 4.50818H80.4223V3.93736H79.3932V8.15444H80.4801V6.0925C80.4801 5.55663 80.6536 4.69457 81.4399 4.69457C82.1452 4.69457 82.1452 5.39354 82.1452 5.90611V8.15444Z" fill="#00427A"/>
<path id="Vector_42" d="M77.5084 5.63817H75.6582C75.7045 5.06735 76.0167 4.64798 76.6296 4.64798C77.2424 4.64798 77.4852 5.1023 77.5199 5.63817M78.5491 6.38373C78.5491 4.90426 78.1097 3.83252 76.5602 3.83252C75.2535 3.83252 74.6176 4.84601 74.6176 6.05755C74.6176 7.44382 75.427 8.24763 76.803 8.24763C77.3927 8.24763 77.8437 8.13114 78.2369 7.9098V7.0128C77.8321 7.24579 77.3696 7.44382 76.8493 7.44382C76.1786 7.44382 75.7045 7.0594 75.6582 6.38373H78.5491Z" fill="#00427A"/>
<path id="Vector_43" d="M72.7212 8.15444H73.8081V5.48673C73.8081 4.54313 73.5191 3.83252 72.4784 3.83252C71.9696 3.83252 71.4261 4.06551 71.1717 4.57808C70.9405 4.05386 70.5242 3.83252 69.9345 3.83252C69.5297 3.83252 69.0325 4.00726 68.6856 4.51983H68.6741V3.92571H67.6565V8.14279H68.7434V6.0925C68.7434 5.54498 68.8359 4.67127 69.5529 4.67127C70.1773 4.67127 70.1773 5.23044 70.1773 5.62652V8.14279H71.2642V6.0925C71.2642 5.54498 71.3567 4.67127 72.0737 4.67127C72.6981 4.67127 72.6981 5.23044 72.6981 5.62652V8.14279L72.7212 8.15444Z" fill="#00427A"/>
<path id="Vector_44" d="M65.4826 8.15444H66.5696V5.48673C66.5696 4.53148 66.1417 3.83252 65.1473 3.83252C64.5807 3.83252 64.1182 4.01891 63.7713 4.50818H63.7597V3.93736H62.7306V8.15444H63.8175V6.0925C63.8175 5.55663 63.991 4.69457 64.7773 4.69457C65.4711 4.69457 65.4826 5.39354 65.4826 5.90611V8.15444Z" fill="#00427A"/>
<path id="Vector_45" d="M61.4354 4.89268C61.632 4.89268 61.8286 4.92763 61.9211 4.98588V3.87919C61.8055 3.84424 61.6898 3.84424 61.5858 3.84424C60.9382 3.84424 60.4873 4.50825 60.441 4.90433H60.4294V3.94908H59.4581V8.16616H60.5451V6.61679C60.5451 6.01102 60.5451 4.89268 61.4354 4.89268Z" fill="#00427A"/>
<path id="Vector_46" d="M57.5617 5.63817H55.7116C55.7578 5.06735 56.0701 4.64798 56.6829 4.64798C57.2958 4.64798 57.5386 5.1023 57.5733 5.63817M58.6024 6.38373C58.6024 4.90426 58.163 3.83252 56.6135 3.83252C55.3069 3.83252 54.6709 4.84601 54.6709 6.05755C54.6709 7.44382 55.4803 8.24763 56.8563 8.24763C57.4461 8.24763 57.897 8.13114 58.2902 7.9098V7.0128C57.8855 7.24579 57.4229 7.44382 56.9026 7.44382C56.2319 7.44382 55.7578 7.0594 55.7116 6.38373H58.6024Z" fill="#00427A"/>
<path id="Vector_47" d="M52.7515 8.15457L54.3009 3.9375H53.2024L52.1964 7.01293H52.1849L51.1442 3.9375H49.9647L51.5258 8.15457H52.7515Z" fill="#00427A"/>
<path id="Vector_48" d="M48.4615 5.94112C48.4615 6.65174 48.2418 7.3973 47.4093 7.3973C46.5767 7.3973 46.357 6.64009 46.357 5.94112C46.357 5.31206 46.7039 4.68299 47.4093 4.68299C48.1147 4.68299 48.4615 5.28876 48.4615 5.94112ZM49.5947 6.08092C49.5947 4.68299 48.6466 3.84424 47.3977 3.84424C46.1489 3.84424 45.2123 4.68299 45.2123 6.08092C45.2123 7.29245 46.0217 8.25935 47.3977 8.25935C48.7738 8.25935 49.5947 7.29245 49.5947 6.08092Z" fill="#00427A"/>
<path id="Vector_49" d="M42.5642 8.25926C43.1771 8.25926 43.8015 8.13112 44.4028 7.96802V4.89259H42.1133V5.78959H43.3159V7.28071C43.1193 7.32731 42.8765 7.36226 42.5642 7.36226C41.3501 7.36226 40.6332 6.48855 40.6332 5.32362C40.6332 4.15868 41.3617 3.25003 42.6914 3.25003C43.1424 3.25003 43.7206 3.34322 44.16 3.55291L44.2294 2.58601C43.7437 2.43457 43.2234 2.35303 42.5642 2.35303C40.6332 2.35303 39.4537 3.44807 39.4537 5.40516C39.4537 7.36226 40.7257 8.25926 42.5642 8.25926Z" fill="#00427A"/>
<path id="Vector_50" d="M157.85 11.8242H39.3035V13.0707H157.85V11.8242Z" fill="#878787"/>
<path id="Vector_51" d="M39.7081 16.1812H41.1188C43.154 16.1812 43.9634 17.3577 43.9634 19.0352C43.9634 21.1088 42.5874 21.901 40.7141 21.901H39.7197V16.1812H39.7081ZM40.2632 21.4117H40.7257C42.333 21.4117 43.3852 20.7594 43.3852 19.0003C43.3852 17.2412 42.3561 16.6704 41.0842 16.6704H40.2632V21.4117Z" fill="#00427A"/>
<path id="Vector_52" d="M47.9065 21.7727C47.548 21.9241 47.0855 22.0057 46.7039 22.0057C45.3279 22.0057 44.8191 21.0737 44.8191 19.8156C44.8191 18.5574 45.5245 17.6255 46.5651 17.6255C47.733 17.6255 48.2187 18.5807 48.2187 19.6991V19.967H45.3741C45.3741 20.8524 45.8482 21.563 46.7386 21.563C47.1086 21.563 47.6521 21.4115 47.9065 21.2484V21.7727ZM47.6521 19.5243C47.6521 18.7904 47.363 18.0682 46.5998 18.0682C45.8367 18.0682 45.3741 18.8254 45.3741 19.5243H47.6521Z" fill="#00427A"/>
<path id="Vector_53" d="M49.1322 17.7303H49.641L49.6063 18.4875H49.6179C49.7451 18.2546 50.0688 17.6255 50.9476 17.6255C52.1733 17.6255 52.659 18.5458 52.659 19.8156C52.659 21.0854 52.0924 22.0057 50.9476 22.0057C50.3001 22.0057 49.9069 21.7377 49.6525 21.1902H49.641V23.6249H49.1322V17.7303ZM50.8782 18.0682C49.9648 18.0682 49.6525 19.0467 49.6525 19.8156C49.6525 20.5844 49.9648 21.563 50.8782 21.563C51.8496 21.563 52.104 20.631 52.104 19.8156C52.104 19.0001 51.8496 18.0682 50.8782 18.0682Z" fill="#00427A"/>
<path id="Vector_54" d="M56.0933 21.2369H56.0817C55.8505 21.7378 55.2723 22.0057 54.7635 22.0057C53.5841 22.0057 53.399 21.2019 53.399 20.8291C53.399 19.4312 54.8791 19.3613 55.9545 19.3613H56.047V19.1516C56.047 18.441 55.7926 18.0799 55.0988 18.0799C54.671 18.0799 54.2663 18.1731 53.8731 18.4294V17.9284C54.1853 17.777 54.7288 17.6372 55.0988 17.6372C56.128 17.6372 56.5558 18.1032 56.5558 19.1982V21.0388C56.5558 21.3767 56.5558 21.6329 56.6021 21.9125H56.0933V21.2369ZM56.0355 19.804H55.8851C54.9948 19.804 53.9425 19.8972 53.9425 20.8175C53.9425 21.365 54.3357 21.5747 54.8098 21.5747C56.0123 21.5747 56.0355 20.5146 56.0355 20.0719V19.8156V19.804Z" fill="#00427A"/>
<path id="Vector_55" d="M57.7699 18.6624C57.7699 18.208 57.7699 18.0333 57.7352 17.7304H58.244V18.5342H58.2556C58.4406 18.0682 58.7875 17.6372 59.3194 17.6372C59.4466 17.6372 59.5853 17.6605 59.6779 17.6838V18.2197C59.5738 18.1847 59.435 18.1731 59.3078 18.1731C58.4984 18.1731 58.2787 19.0934 58.2787 19.8506V21.9125H57.7699V18.6624Z" fill="#00427A"/>
<path id="Vector_56" d="M62.268 18.1729H61.3198V20.8756C61.3198 21.2483 61.4586 21.5629 61.8748 21.5629C62.0714 21.5629 62.1986 21.5163 62.3489 21.4697L62.3836 21.9007C62.2564 21.9473 62.0136 22.0172 61.7592 22.0172C60.8457 22.0172 60.811 21.3881 60.811 20.6193V18.1729H60.0016V17.7302H60.811V16.7167L61.3198 16.542V17.7302H62.268V18.1729Z" fill="#00427A"/>
<path id="Vector_57" d="M68.1883 21.9008V19.1283C68.1883 18.5341 67.9686 18.0682 67.3095 18.0682C66.7429 18.0682 66.1995 18.5574 66.1995 19.5942V21.9008H65.6907V19.1283C65.6907 18.5341 65.471 18.0682 64.8119 18.0682C64.2453 18.0682 63.7018 18.5574 63.7018 19.5942V21.9008H63.193V18.7089C63.193 18.3943 63.193 18.0565 63.1583 17.7303H63.6555V18.4293H63.6671C63.829 18.1497 64.0718 17.6255 64.9622 17.6255C65.3322 17.6255 65.9335 17.7769 66.0607 18.5108H66.0723C66.2573 18.0216 66.7429 17.6255 67.402 17.6255C68.2346 17.6255 68.7087 18.2196 68.7087 19.0234V21.9008H68.1999H68.1883Z" fill="#00427A"/>
<path id="Vector_58" d="M72.7328 21.7727C72.3743 21.9241 71.9118 22.0057 71.5302 22.0057C70.1542 22.0057 69.6454 21.0737 69.6454 19.8156C69.6454 18.5574 70.3507 17.6255 71.3914 17.6255C72.5593 17.6255 73.045 18.5807 73.045 19.6991V19.967H70.2004C70.2004 20.8524 70.6745 21.563 71.5649 21.563C71.9349 21.563 72.4784 21.4115 72.7328 21.2484V21.7727ZM72.4784 19.5243C72.4784 18.7904 72.1893 18.0682 71.4261 18.0682C70.663 18.0682 70.2004 18.8254 70.2004 19.5243H72.4784Z" fill="#00427A"/>
<path id="Vector_59" d="M74.0163 18.7089C74.0163 18.3944 74.0163 18.0566 73.9816 17.7304H74.4788V18.476H74.4903C74.6638 18.1032 74.976 17.6372 75.8317 17.6372C76.8608 17.6372 77.2424 18.3245 77.2424 19.2448V21.9125H76.7336V19.373C76.7336 18.5808 76.4561 18.0799 75.7507 18.0799C74.8141 18.0799 74.525 18.907 74.525 19.606V21.9125H74.0163V18.7206V18.7089Z" fill="#00427A"/>
<path id="Vector_60" d="M80.3297 18.1729H79.3816V20.8756C79.3816 21.2483 79.5203 21.5629 79.9366 21.5629C80.1332 21.5629 80.2604 21.5163 80.4107 21.4697L80.4454 21.9007C80.3182 21.9473 80.0754 22.0172 79.821 22.0172C78.9075 22.0172 78.8728 21.3881 78.8728 20.6193V18.1729H78.0634V17.7302H78.8728V16.7167L79.3816 16.542V17.7302H80.3297V18.1729Z" fill="#00427A"/>
<path id="Vector_61" d="M85.117 17.6255C86.4583 17.6255 87.048 18.6739 87.048 19.8156C87.048 20.9572 86.4583 22.0057 85.117 22.0057C83.7756 22.0057 83.1859 20.9572 83.1859 19.8156C83.1859 18.6739 83.7756 17.6255 85.117 17.6255ZM85.117 21.563C86.0073 21.563 86.493 20.7825 86.493 19.8156C86.493 18.8487 86.0073 18.0682 85.117 18.0682C84.2266 18.0682 83.7409 18.8487 83.7409 19.8156C83.7409 20.7825 84.2266 21.563 85.117 21.563Z" fill="#00427A"/>
<path id="Vector_62" d="M88.3777 18.1731H87.5452V17.7304H88.3777V17.4275C88.3777 16.5538 88.4124 15.6685 89.4762 15.6685C89.6381 15.6685 89.8578 15.6918 89.9619 15.75L89.9272 16.2043C89.8231 16.1461 89.6728 16.1111 89.5225 16.1111C88.8287 16.1111 88.8981 16.8683 88.8981 17.3693V17.7304H89.8347V18.1731H88.8981V21.9125H88.3893V18.1731H88.3777Z" fill="#00427A"/>
<path id="Vector_63" d="M93.0493 16.1811H94.4484C95.5123 16.1811 96.206 16.717 96.206 17.8003C96.206 18.8837 95.4082 19.4196 94.3906 19.4196H93.6043V21.8893H93.0377V16.1694L93.0493 16.1811ZM93.6043 18.942H93.9975C94.8416 18.942 95.6394 18.8488 95.6394 17.812C95.6394 17.0897 95.2347 16.682 94.5178 16.682H93.6043V18.942Z" fill="#00427A"/>
<path id="Vector_64" d="M97.0502 18.6624C97.0502 18.208 97.0502 18.0333 97.0155 17.7304H97.5243V18.5342H97.5358C97.7209 18.0682 98.0678 17.6372 98.5997 17.6372C98.7269 17.6372 98.8656 17.6605 98.9581 17.6838V18.2197C98.8541 18.1847 98.7153 18.1731 98.5881 18.1731C97.7787 18.1731 97.559 19.0934 97.559 19.8506V21.9125H97.0502V18.6624Z" fill="#00427A"/>
<path id="Vector_65" d="M100.276 16.6121H99.7675V15.9248H100.276V16.6121ZM99.756 17.7305H100.265V21.9126H99.756V17.7305Z" fill="#00427A"/>
<path id="Vector_66" d="M106.578 21.9008V19.1283C106.578 18.5341 106.359 18.0682 105.7 18.0682C105.133 18.0682 104.589 18.5574 104.589 19.5942V21.9008H104.081V19.1283C104.081 18.5341 103.861 18.0682 103.202 18.0682C102.635 18.0682 102.092 18.5574 102.092 19.5942V21.9008H101.583V18.7089C101.583 18.3943 101.583 18.0565 101.548 17.7303H102.046V18.4293H102.057C102.219 18.1497 102.462 17.6255 103.352 17.6255C103.722 17.6255 104.324 17.7769 104.451 18.5108H104.462C104.647 18.0216 105.133 17.6255 105.792 17.6255C106.625 17.6255 107.099 18.2196 107.099 19.0234V21.9008H106.59H106.578Z" fill="#00427A"/>
<path id="Vector_67" d="M110.718 21.2369H110.706C110.475 21.7378 109.897 22.0057 109.388 22.0057C108.209 22.0057 108.024 21.2019 108.024 20.8291C108.024 19.4312 109.504 19.3613 110.579 19.3613H110.672V19.1516C110.672 18.441 110.417 18.0799 109.723 18.0799C109.296 18.0799 108.891 18.1731 108.498 18.4294V17.9284C108.81 17.777 109.353 17.6372 109.723 17.6372C110.753 17.6372 111.18 18.1032 111.18 19.1982V21.0388C111.18 21.3767 111.18 21.6329 111.227 21.9125H110.718V21.2369ZM110.672 19.804H110.521C109.631 19.804 108.579 19.8972 108.579 20.8175C108.579 21.365 108.972 21.5747 109.446 21.5747C110.649 21.5747 110.672 20.5146 110.672 20.0719V19.8156V19.804Z" fill="#00427A"/>
<path id="Vector_68" d="M112.395 18.6624C112.395 18.208 112.395 18.0333 112.36 17.7304H112.869V18.5342H112.88C113.065 18.0682 113.412 17.6372 113.944 17.6372C114.071 17.6372 114.21 17.6605 114.302 17.6838V18.2197C114.198 18.1847 114.06 18.1731 113.932 18.1731C113.123 18.1731 112.903 19.0934 112.903 19.8506V21.9125H112.395V18.6624Z" fill="#00427A"/>
<path id="Vector_69" d="M116.257 21.2136L117.448 17.7304H117.98L116.326 22.5299C116.13 23.1008 115.84 23.6716 115.262 23.6716C115.077 23.6716 114.881 23.6483 114.707 23.6017L114.753 23.159C114.846 23.194 114.95 23.2289 115.135 23.2289C115.574 23.2289 115.725 22.8561 115.887 22.3203L115.991 21.9475L114.522 17.7188H115.089L116.257 21.2019V21.2136Z" fill="#00427A"/>
<path id="Vector_70" d="M120.963 16.1812H121.53V21.901H120.963V16.1812Z" fill="#00427A"/>
<path id="Vector_71" d="M122.778 18.7089C122.778 18.3944 122.778 18.0566 122.744 17.7304H123.241V18.476H123.252C123.426 18.1032 123.738 17.6372 124.594 17.6372C125.623 17.6372 126.004 18.3245 126.004 19.2448V21.9125H125.496V19.373C125.496 18.5808 125.218 18.0799 124.513 18.0799C123.576 18.0799 123.287 18.907 123.287 19.606V21.9125H122.778V18.7206V18.7089Z" fill="#00427A"/>
<path id="Vector_72" d="M130.584 21.9009H130.075V21.2369H130.063C129.786 21.7727 129.358 21.9941 128.768 21.9941C127.623 21.9941 127.057 21.0388 127.057 19.804C127.057 18.5691 127.542 17.6139 128.768 17.6139C129.578 17.6139 129.982 18.208 130.063 18.4177H130.075V15.75H130.584V21.9009ZM128.849 21.563C129.763 21.563 130.075 20.5845 130.075 19.8156C130.075 19.0468 129.763 18.0682 128.849 18.0682C127.878 18.0682 127.623 19.0002 127.623 19.8156C127.623 20.6311 127.878 21.563 128.849 21.563Z" fill="#00427A"/>
<path id="Vector_73" d="M135.059 20.9223C135.059 21.2369 135.059 21.5747 135.093 21.9009H134.596V21.1553H134.584C134.411 21.5281 134.099 21.9941 133.243 21.9941C132.214 21.9941 131.832 21.3068 131.832 20.3865V17.7188H132.341V20.2583C132.341 21.0505 132.619 21.5514 133.324 21.5514C134.261 21.5514 134.55 20.7243 134.55 20.0253V17.7188H135.059V20.9107V20.9223Z" fill="#00427A"/>
<path id="Vector_74" d="M136.018 21.295C136.33 21.4465 136.7 21.563 137.105 21.563C137.591 21.563 138.019 21.295 138.019 20.8174C138.019 19.8272 136.03 19.9787 136.03 18.7671C136.03 17.94 136.7 17.6255 137.383 17.6255C137.602 17.6255 138.042 17.6721 138.412 17.8119L138.366 18.2662C138.1 18.1381 137.73 18.0682 137.452 18.0682C136.92 18.0682 136.562 18.2313 136.562 18.7671C136.562 19.5476 138.608 19.4428 138.608 20.8174C138.608 21.7028 137.787 22.0057 137.163 22.0057C136.77 22.0057 136.365 21.9591 135.995 21.8076L136.041 21.295H136.018Z" fill="#00427A"/>
<path id="Vector_75" d="M141.291 18.1729H140.343V20.8756C140.343 21.2483 140.482 21.5629 140.898 21.5629C141.095 21.5629 141.222 21.5163 141.372 21.4697L141.407 21.9007C141.28 21.9473 141.037 22.0172 140.782 22.0172C139.869 22.0172 139.834 21.3881 139.834 20.6193V18.1729H139.025V17.7302H139.834V16.7167L140.343 16.542V17.7302H141.291V18.1729Z" fill="#00427A"/>
<path id="Vector_76" d="M142.205 18.6624C142.205 18.208 142.205 18.0333 142.17 17.7304H142.679V18.5342H142.69C142.875 18.0682 143.222 17.6372 143.754 17.6372C143.881 17.6372 144.02 17.6605 144.113 17.6838V18.2197C144.008 18.1847 143.87 18.1731 143.743 18.1731C142.933 18.1731 142.713 19.0934 142.713 19.8506V21.9125H142.205V18.6624Z" fill="#00427A"/>
<path id="Vector_77" d="M145.431 16.6121H144.922V15.9248H145.431V16.6121ZM144.91 17.7305H145.419V21.9126H144.91V17.7305Z" fill="#00427A"/>
<path id="Vector_78" d="M149.501 21.7727C149.143 21.9241 148.68 22.0057 148.298 22.0057C146.922 22.0057 146.414 21.0737 146.414 19.8156C146.414 18.5574 147.119 17.6255 148.16 17.6255C149.328 17.6255 149.813 18.5807 149.813 19.6991V19.967H146.969C146.969 20.8524 147.443 21.563 148.333 21.563C148.703 21.563 149.247 21.4115 149.501 21.2484V21.7727ZM149.247 19.5243C149.247 18.7904 148.958 18.0682 148.194 18.0682C147.431 18.0682 146.969 18.8254 146.969 19.5243H149.247Z" fill="#00427A"/>
<path id="Vector_79" d="M150.461 21.295C150.773 21.4465 151.143 21.563 151.548 21.563C152.033 21.563 152.461 21.295 152.461 20.8174C152.461 19.8272 150.472 19.9787 150.472 18.7671C150.472 17.94 151.143 17.6255 151.825 17.6255C152.045 17.6255 152.484 17.6721 152.854 17.8119L152.808 18.2662C152.542 18.1381 152.172 18.0682 151.895 18.0682C151.363 18.0682 151.004 18.2313 151.004 18.7671C151.004 19.5476 153.051 19.4428 153.051 20.8174C153.051 21.7028 152.23 22.0057 151.606 22.0057C151.212 22.0057 150.808 21.9591 150.438 21.8076L150.484 21.295H150.461Z" fill="#00427A"/>
<path id="Vector_80" d="M42.0786 29.4262H42.0671C41.8358 29.9272 41.2576 30.1951 40.7489 30.1951C39.5694 30.1951 39.3844 29.3913 39.3844 29.0185C39.3844 27.6206 40.8645 27.5507 41.9399 27.5507H42.0324V27.341C42.0324 26.6304 41.778 26.2693 41.0842 26.2693C40.6564 26.2693 40.2516 26.3625 39.8585 26.6071V26.1062C40.1707 25.9547 40.7142 25.8149 41.0842 25.8149C42.1133 25.8149 42.5412 26.2809 42.5412 27.376V29.2166C42.5412 29.5544 42.5412 29.8107 42.5874 30.0903H42.0786V29.4146V29.4262ZM42.0324 27.9934H41.8821C40.9917 27.9934 39.9394 28.0866 39.9394 29.0069C39.9394 29.5544 40.3326 29.7641 40.8067 29.7641C42.0093 29.7641 42.0324 28.704 42.0324 28.2613V28.005V27.9934Z" fill="#00427A"/>
<path id="Vector_81" d="M43.7669 26.8984C43.7669 26.5839 43.7669 26.246 43.7322 25.9199H44.2294V26.6654H44.241C44.4144 26.2926 44.7266 25.8267 45.5823 25.8267C46.6114 25.8267 46.993 26.514 46.993 27.4343V30.102H46.4842V27.5624C46.4842 26.7819 46.2067 26.2693 45.5014 26.2693C44.5647 26.2693 44.2757 27.0964 44.2757 27.7954V30.102H43.7669V26.9101V26.8984Z" fill="#00427A"/>
<path id="Vector_82" d="M51.572 30.0903H51.0632V29.4263H51.0516C50.7741 29.9622 50.3462 30.1835 49.7565 30.1835C48.6118 30.1835 48.0452 29.2283 48.0452 27.9934C48.0452 26.7586 48.5308 25.8034 49.7565 25.8034C50.566 25.8034 50.9707 26.3975 51.0516 26.6072H51.0632V23.9395H51.572V30.0903ZM49.8259 29.7525C50.7394 29.7525 51.0516 28.7739 51.0516 28.0051C51.0516 27.2362 50.7394 26.2577 49.8259 26.2577C48.8546 26.2577 48.6002 27.1896 48.6002 28.0051C48.6002 28.8205 48.8546 29.7525 49.8259 29.7525Z" fill="#00427A"/>
<path id="Vector_83" d="M55.1335 24.3705H56.6021C57.6081 24.3705 58.2672 24.8016 58.2672 25.85C58.2672 26.5839 57.7006 27.0732 57.0068 27.1664C57.4578 27.2363 57.5618 27.4809 57.7353 27.8653L58.7066 30.0787H58.0937L57.2727 28.1449C56.949 27.411 56.7061 27.3877 56.1627 27.3877H55.7001V30.0787H55.1335V24.3589V24.3705ZM55.7001 26.9101H56.2899C56.949 26.9101 57.7006 26.6538 57.7006 25.8617C57.7006 24.9297 57.0415 24.8715 56.2667 24.8715H55.6886V26.9101H55.7001Z" fill="#00427A"/>
<path id="Vector_84" d="M62.3605 29.9621C62.002 30.1136 61.5395 30.1951 61.1579 30.1951C59.7819 30.1951 59.2731 29.2632 59.2731 28.005C59.2731 26.7469 59.9784 25.8149 61.0191 25.8149C62.187 25.8149 62.6727 26.7702 62.6727 27.8885V28.1565H59.8281C59.8281 29.0418 60.3022 29.7524 61.1926 29.7524C61.5626 29.7524 62.1061 29.601 62.3605 29.4379V29.9621ZM62.1061 27.7138C62.1061 26.9799 61.817 26.2576 61.0538 26.2576C60.2906 26.2576 59.8281 27.0148 59.8281 27.7138H62.1061Z" fill="#00427A"/>
<path id="Vector_85" d="M66.928 29.7525C66.928 30.9174 66.4076 31.8727 64.9854 31.8727C64.4419 31.8727 63.9447 31.7212 63.7365 31.6513L63.7828 31.1388C64.095 31.3019 64.5575 31.43 65.0085 31.43C66.3267 31.43 66.4423 30.4631 66.4423 29.2865H66.4308C66.1532 29.8923 65.7023 30.102 65.1704 30.102C63.8406 30.102 63.4243 28.937 63.4243 28.0167C63.4243 26.747 63.91 25.8267 65.1357 25.8267C65.6907 25.8267 66.0492 25.8966 66.4308 26.3975H66.4423V25.9199H66.9511V29.7525H66.928ZM65.1588 29.6477C66.0839 29.6477 66.4192 28.7623 66.4192 28.0051C66.4192 26.9916 66.1301 26.2577 65.1935 26.2577C64.2569 26.2577 63.9678 27.1896 63.9678 28.0051C63.9678 28.8205 64.2916 29.6477 65.1588 29.6477Z" fill="#00427A"/>
<path id="Vector_86" d="M68.6741 24.8016H68.1653V24.1143H68.6741V24.8016ZM68.1653 25.9199H68.6741V30.102H68.1653V25.9199Z" fill="#00427A"/>
<path id="Vector_87" d="M71.5879 25.8149C72.9293 25.8149 73.519 26.8634 73.519 28.005C73.519 29.1467 72.9293 30.1951 71.5879 30.1951C70.2466 30.1951 69.6569 29.1467 69.6569 28.005C69.6569 26.8634 70.2466 25.8149 71.5879 25.8149ZM71.5879 29.7524C72.4783 29.7524 72.9639 28.9719 72.9639 28.005C72.9639 27.0381 72.4783 26.2576 71.5879 26.2576C70.6975 26.2576 70.2119 27.0381 70.2119 28.005C70.2119 28.9719 70.6975 29.7524 71.5879 29.7524Z" fill="#00427A"/>
<path id="Vector_88" d="M74.4904 26.8984C74.4904 26.5839 74.4904 26.246 74.4557 25.9199H74.9529V26.6654H74.9645C75.1379 26.2926 75.4501 25.8267 76.3058 25.8267C77.3349 25.8267 77.7165 26.514 77.7165 27.4343V30.102H77.2077V27.5624C77.2077 26.7819 76.9302 26.2693 76.2249 26.2693C75.2882 26.2693 74.9992 27.0964 74.9992 27.7954V30.102H74.4904V26.9101V26.8984Z" fill="#00427A"/>
<path id="Vector_89" d="M78.6878 29.4844C79 29.6359 79.37 29.7407 79.7747 29.7407C80.2604 29.7407 80.6882 29.4728 80.6882 28.9951C80.6882 28.005 78.6994 28.1564 78.6994 26.9449C78.6994 26.1178 79.37 25.8032 80.0523 25.8032C80.272 25.8032 80.7114 25.8498 81.0814 25.9896L81.0351 26.4439C80.7692 26.3158 80.3992 26.2459 80.1216 26.2459C79.5897 26.2459 79.2313 26.409 79.2313 26.9449C79.2313 27.7254 81.278 27.6205 81.278 28.9951C81.278 29.8805 80.457 30.1834 79.8326 30.1834C79.4394 30.1834 79.0347 30.1368 78.6647 29.9853L78.7109 29.4728L78.6878 29.4844Z" fill="#00427A"/>
</g>
<defs>
<clipPath id="clip0_2737_1369">
<rect width="158" height="33.026" fill="white"/>
</clipPath>
</defs>
</svg>
