<svg xmlns="http://www.w3.org/2000/svg" viewBox="0 0 54.08 54">
  <g id="eed85043-6e42-46df-bb80-69f135099c97" data-name="Layer 2">
    <g id="f1c68d1c-2a67-4af9-9216-5e31bb7568f7" data-name="Reservoir copy">
      <g id="fb983913-58fe-4c1b-b076-592f14a3c059" data-name="bounding-box" opacity="0.01">
        <path d="M54.05,0V54H.11V0H54.05m0,0H.08V54h54V0Z"></path>
      </g>
      <path d="M52,42H50.85a1.92,1.92,0,0,0,0-.24h0L46.56,9.24a3.33,3.33,0,0,0-3.29-2.9H41a3.32,3.32,0,0,0-3.32,3.32v2.43A4.26,4.26,0,0,0,36,11.75a4.54,4.54,0,0,0-3.25,1.38c-.5.44-.7.62-1.26.62s-.76-.18-1.25-.62a4.52,4.52,0,0,0-6.5,0c-.5.44-.7.62-1.26.62s-.76-.18-1.26-.62A4.54,4.54,0,0,0,18,11.75a4.33,4.33,0,0,0-1.68.32V9.66A3.32,3.32,0,0,0,13,6.34H10.73A3.33,3.33,0,0,0,7.44,9.23L3.15,41.75h0a1.92,1.92,0,0,0,0,.24H2a2,2,0,0,0,0,4H52a2,2,0,0,0,0-4ZM37.71,29.09A4.26,4.26,0,0,0,36,28.75a4.54,4.54,0,0,0-3.25,1.38c-.5.44-.7.62-1.26.62s-.76-.18-1.25-.62a4.52,4.52,0,0,0-6.5,0c-.5.44-.7.62-1.26.62s-.76-.18-1.26-.62A4.54,4.54,0,0,0,18,28.75a4.33,4.33,0,0,0-1.68.32V24.23c.16-.12.3-.25.43-.36.49-.44.7-.62,1.25-.62s.76.18,1.26.62a4.52,4.52,0,0,0,6.5,0c.49-.44.7-.62,1.26-.62s.76.18,1.25.62a4.52,4.52,0,0,0,6.5,0c.5-.44.7-.62,1.26-.62s.76.18,1.26.62c.13.12.28.25.45.38Zm-21,3.28c.49-.44.7-.62,1.25-.62s.76.18,1.26.62a4.52,4.52,0,0,0,6.5,0c.49-.44.7-.62,1.26-.62s.76.18,1.25.62a4.52,4.52,0,0,0,6.5,0c.5-.44.7-.62,1.26-.62s.76.18,1.26.62c.13.12.28.25.45.38V42H16.29V32.73C16.45,32.61,16.59,32.48,16.72,32.37ZM41,9.34h2.24a.31.31,0,0,1,.31.29L47.86,42H40.71V9.66A.32.32,0,0,1,41,9.34Zm-24.31,6c.49-.44.7-.62,1.25-.62s.76.18,1.26.62a4.52,4.52,0,0,0,6.5,0c.49-.44.7-.62,1.26-.62s.76.18,1.25.62a4.52,4.52,0,0,0,6.5,0c.5-.44.7-.62,1.26-.62s.76.18,1.26.62c.13.12.28.25.45.38v4.84A4.26,4.26,0,0,0,36,20.25a4.54,4.54,0,0,0-3.25,1.38c-.5.44-.7.62-1.26.62s-.76-.18-1.25-.62a4.52,4.52,0,0,0-6.5,0c-.5.44-.7.62-1.26.62s-.76-.18-1.26-.62A4.54,4.54,0,0,0,18,20.25a4.33,4.33,0,0,0-1.68.32V15.73C16.45,15.61,16.59,15.48,16.72,15.37Zm-6.3-5.75a.31.31,0,0,1,.31-.28H13a.32.32,0,0,1,.32.32V42H6.14Z"></path>
    </g>
  </g>
</svg>