<svg xmlns="http://www.w3.org/2000/svg" viewBox="0 0 54 54"><g id="a6a25b73-6182-48d7-b0ea-f0aab4c8a180" data-name="Layer 2"><g id="a7171356-0793-4097-99f7-55be40c0d5da" data-name="Climber"><path id="ab6b66b4-995d-4782-abc3-58caf7b4f7fa" d="M54 0v54H0V0zm0 0H0v54h54z" data-name="bounding-box" opacity=".01"/><path id="f1e14fdd-73f3-4f3c-9f4d-fb5f837f6b6c" d="M45.74 21.83a21.7 21.7 0 0 0-3.85-.35C35.09 21.48 30 25 28 30.61c-1.74-6.17-.78-10.13.31-14.64 1-3.94 2.05-8.4 1.15-14.68a1.5 1.5 0 0 0-3 .42c.82 5.71-.15 9.7-1.09 13.55v.11C23 10.69 18.29 7.84 12.14 7.84a22 22 0 0 0-3.88.35C6.31 19.24 12.66 27 22.84 27c.45 0 .92 0 1.39-.06a31 31 0 0 0 1.67 6.91c3 8.49-.79 18-.83 18.08a1.51 1.51 0 0 0 .82 2 1.7 1.7 0 0 0 .57.11 1.5 1.5 0 0 0 1.39-.93 34.2 34.2 0 0 0 2.22-12.63c.4 0 .81.06 1.2.06 10.1-.04 16.41-7.75 14.47-18.71m-32.19-1.71A12.82 12.82 0 0 1 11 10.88h1.19c3.95 0 7.16 1.34 9.29 3.88a12.23 12.23 0 0 1 2.63 7.86L16.49 15a1 1 0 0 0-1.42 1.42L22.65 24c-3.86 0-7.01-1.38-9.1-3.88m26.92 13.54a11.46 11.46 0 0 1-9 3.83l7.29-7.29a1 1 0 1 0-1.41-1.41l-7.29 7.29a12.12 12.12 0 0 1 2.61-7.76c2.11-2.51 5.29-3.84 9.2-3.84h1.16a12.67 12.67 0 0 1-2.56 9.18" data-name="icon"/></g></g></svg>