<svg xmlns="http://www.w3.org/2000/svg" viewBox="0 0 57.08 54"><g id="a09ced1d-c95c-4376-a036-9816ab23fb5b" data-name="Layer 2"><g id="a5a50b3d-8bdd-4cc9-9505-899aee2e91f0" data-name="Fresh water copy"><path id="ffe58bb9-4239-4937-b63f-33a5311b9855" d="M55.6 0v54H1.66V0zm0 0h-54v54h54z" data-name="bounding-box" opacity=".01"/><path d="M46.57 29a7.6 7.6 0 0 1-5.51-2.38 4.61 4.61 0 0 0-7 0 7.56 7.56 0 0 1-11 0 4.61 4.61 0 0 0-7 0 7.55 7.55 0 0 1-11 0A4.68 4.68 0 0 0 1.5 25a1.5 1.5 0 0 1 0-3A7.57 7.57 0 0 1 7 24.38a4.61 4.61 0 0 0 7 0 7.55 7.55 0 0 1 11 0 4.62 4.62 0 0 0 7 0 7.55 7.55 0 0 1 11 0 4.62 4.62 0 0 0 7 0A7.57 7.57 0 0 1 55.58 22a1.5 1.5 0 0 1 0 3 4.68 4.68 0 0 0-3.51 1.62 7.57 7.57 0 0 1-5.5 2.38"/><path d="M46.57 37.5a7.6 7.6 0 0 1-5.51-2.38 4.61 4.61 0 0 0-7 0 7.56 7.56 0 0 1-11 0 4.61 4.61 0 0 0-7 0 7.55 7.55 0 0 1-11 0A4.68 4.68 0 0 0 1.5 33.5a1.5 1.5 0 0 1 0-3A7.57 7.57 0 0 1 7 32.88a4.61 4.61 0 0 0 7 0 7.55 7.55 0 0 1 11 0 4.62 4.62 0 0 0 7 0 7.55 7.55 0 0 1 11 0 4.62 4.62 0 0 0 7 0 7.57 7.57 0 0 1 5.5-2.38 1.5 1.5 0 0 1 0 3 4.68 4.68 0 0 0-3.51 1.62 7.57 7.57 0 0 1-5.42 2.38"/><path d="M46.57 46a7.6 7.6 0 0 1-5.51-2.38 4.61 4.61 0 0 0-7 0 7.56 7.56 0 0 1-11 0 4.61 4.61 0 0 0-7 0 7.55 7.55 0 0 1-11 0A4.68 4.68 0 0 0 1.5 42a1.5 1.5 0 0 1 0-3A7.57 7.57 0 0 1 7 41.38a4.61 4.61 0 0 0 7 0 7.55 7.55 0 0 1 11 0 4.62 4.62 0 0 0 7 0 7.55 7.55 0 0 1 11 0 4.62 4.62 0 0 0 7 0A7.57 7.57 0 0 1 55.58 39a1.5 1.5 0 0 1 0 3 4.68 4.68 0 0 0-3.51 1.62 7.57 7.57 0 0 1-5.5 2.38M46.57 20.5a7.6 7.6 0 0 1-5.51-2.38 4.61 4.61 0 0 0-7 0 7.56 7.56 0 0 1-11 0 4.61 4.61 0 0 0-7 0 7.55 7.55 0 0 1-11 0A4.68 4.68 0 0 0 1.5 16.5a1.5 1.5 0 0 1 0-3A7.57 7.57 0 0 1 7 15.88a4.61 4.61 0 0 0 7 0 7.55 7.55 0 0 1 11 0 4.62 4.62 0 0 0 7 0 7.55 7.55 0 0 1 11 0 4.62 4.62 0 0 0 7 0 7.57 7.57 0 0 1 5.5-2.38 1.5 1.5 0 0 1 0 3 4.68 4.68 0 0 0-3.51 1.62 7.57 7.57 0 0 1-5.42 2.38"/></g></g></svg>