<svg xmlns="http://www.w3.org/2000/svg" viewBox="0 0 54 54"><g id="e25ff338-2cec-4890-b289-c747b8b7cca5" data-name="Layer 2"><g id="ebb0a5af-7dda-436c-abc3-0fd464b9c7bf" data-name="Grass"><path id="b44c3603-ff3f-41a8-afa2-7ebeec959f19" d="M54 0v54H0V0zm0 0H0v54h54z" data-name="bounding box" opacity=".01"/><path id="b12b9e51-2f85-402d-af71-3c0bb358be6a" d="M44.51 51.5H42.8c1.56-3.75 4-12.8 2-30.52a1.25 1.25 0 0 0-1.24-1.11A1.26 1.26 0 0 0 42.3 21a96 96 0 0 1-3.51 16.76 73.24 73.24 0 0 0-6.74-37 1.25 1.25 0 0 0-2.38.61l.16 2a196 196 0 0 1 .9 23.19 101.6 101.6 0 0 0-6.52-17.85A1.26 1.26 0 0 0 22.88 8a1.24 1.24 0 0 0-1 1.08 106 106 0 0 0-.33 20.8c-.75-2.4-1.43-4.75-2.06-7-1-3.41-1.81-6.36-2.72-8.61a1.25 1.25 0 0 0-2.4.32q-1.48 13 0 22a60 60 0 0 1-3.65-8.56 1.25 1.25 0 0 0-1.38-.84 1.23 1.23 0 0 0-1.05 1.21C8.08 39 9.86 46.62 13.64 51.5H9.51a1.25 1.25 0 1 0 0 2.5h35a1.25 1.25 0 0 0 0-2.5M43 31.55c.27 11.76-1.78 17.55-2.86 19.75l-2.95.14c.49-2 1.25-4.39 2.1-7 1.22-3.7 2.59-7.93 3.71-12.89M23.89 14.06A106 106 0 0 1 30.07 35a74 74 0 0 1-1.93 10.28 46 46 0 0 1-2.54-4.72 98.2 98.2 0 0 1-1.71-26.5M17 51.5c-3.39-3.28-5.37-8.56-6-16a90 90 0 0 0 6.73 11.59 20.6 20.6 0 0 0 2.12 3.15c.3.43.6.87.87 1.29Zm4.75-2.94-.28-.4-1.37-2c-3.2-5.62-4.5-14.1-3.81-25.16.25.86.5 1.75.77 2.69 2.13 7.45 4.74 16.59 9.52 23.8l.19.27c.15.23.3.45.46.66-.34 1-.71 2.08-1.1 3.11H24.9a14.2 14.2 0 0 1-3.18-2.97ZM29 51.5a15 15 0 0 0 1-2.65s0-.08 0-.12a79 79 0 0 0 2.59-13.27 1.4 1.4 0 0 0 0-.35 1 1 0 0 1 0-.17 138 138 0 0 0 .2-25.49c4.52 13.4 4.89 26.71 1.27 42.05Z" data-name="icon"/></g></g></svg>