<svg xmlns="http://www.w3.org/2000/svg" viewBox="0 0 54 54"><g id="aa8c53fd-5b54-4a20-92a7-fa7798ba3a03" data-name="Layer 2"><g id="a9869a85-05ad-4660-92f9-31beb40f8559" data-name="Herb copy"><path id="b1ae00bc-e34b-4a97-9450-646d93e0ee01" d="M54 0v54H0V0zm0 0H0v54h54z" data-name="bounding-box" opacity=".01"/><path id="bcf5bbd7-0bc1-4a2e-b608-236df6aa0a77" d="M52 16.87a25.6 25.6 0 0 0-14.06 4.23A28.27 28.27 0 0 0 28 3.38l-1-.83-1 .83A28.27 28.27 0 0 0 16 21.1a25.6 25.6 0 0 0-14-4.23H.5v1.5c0 14.72 11.08 26.79 25 27.63h3c13.92-.82 25-12.89 25-27.61v-1.5Zm-33.13 6.34A24.72 24.72 0 0 1 27 6.54a24.72 24.72 0 0 1 8.13 16.67c-.16.13-.31.28-.46.42l-.6.55c-.23.22-.46.45-.68.68l-.3.32A27.7 27.7 0 0 0 27 35.31a27.7 27.7 0 0 0-6.09-10.13l-.3-.32a22 22 0 0 0-.68-.68l-.6-.55c-.15-.14-.33-.29-.46-.42M3.55 19.93A22.76 22.76 0 0 1 17 25.56l.17.15a24.9 24.9 0 0 1 7.61 12.71s0 .06 0 .09c.17.68.3 1.38.41 2.09v.25c.1.66.17 1.32.21 2v.12C13.7 42.16 4.28 32.26 3.55 19.93m25 23v-.12c0-.68.11-1.34.21-2v-.25c.11-.71.24-1.41.41-2.09v-.09a24.9 24.9 0 0 1 7.61-12.71l.17-.15a22.76 22.76 0 0 1 13.44-5.63C49.72 32.26 40.3 42.16 28.55 43Z" data-name="Icon"/></g></g></svg>