<svg xmlns="http://www.w3.org/2000/svg" viewBox="0 0 54 54">
                                    <g id="aa8c53fd-5b54-4a20-92a7-fa7798ba3a03" data-name="Layer 2">
                                        <g id="a9869a85-05ad-4660-92f9-31beb40f8559" data-name="Herb copy">
                                            <g id="b1ae00bc-e34b-4a97-9450-646d93e0ee01" data-name="bounding-box" opacity="0.01">
                                                <path d="M54,0V54H0V0H54m0,0H0V54H54V0Z"></path>
                                            </g>
                                            <path id="bcf5bbd7-0bc1-4a2e-b608-236df6aa0a77" data-name="Icon" d="M52,16.87A25.59,25.59,0,0,0,37.94,21.1,28.27,28.27,0,0,0,28,3.38l-1-.83-1,.83a28.27,28.27,0,0,0-10,17.72A25.59,25.59,0,0,0,2,16.87H.5v1.5C.5,33.09,11.58,45.16,25.5,46v0h3v0c13.92-.82,25-12.89,25-27.61v-1.5ZM18.87,23.21A24.72,24.72,0,0,1,27,6.54a24.72,24.72,0,0,1,8.13,16.67c-.16.13-.31.28-.46.42l-.6.55c-.23.22-.46.45-.68.68l-.3.32A27.72,27.72,0,0,0,27,35.31a27.72,27.72,0,0,0-6.09-10.13l-.3-.32c-.22-.23-.45-.46-.68-.68l-.6-.55C19.18,23.49,19,23.34,18.87,23.21ZM3.55,19.93A22.76,22.76,0,0,1,17,25.56l.17.15a24.92,24.92,0,0,1,7.61,12.71s0,.06,0,.09c.17.68.3,1.38.41,2.09l0,.25c.1.66.17,1.32.21,2,0,0,0,.08,0,.12C13.7,42.16,4.28,32.26,3.55,19.93Zm25,23s0-.08,0-.12c0-.68.11-1.34.21-2l0-.25c.11-.71.24-1.41.41-2.09,0,0,0-.06,0-.09a24.92,24.92,0,0,1,7.61-12.71l.17-.15a22.76,22.76,0,0,1,13.44-5.63C49.72,32.26,40.3,42.16,28.55,43Z"></path>
                                        </g>
                                    </g>
                                </svg>