<svg width="64" height="64" viewBox="0 0 64 64" fill="none" xmlns="http://www.w3.org/2000/svg">
<path d="M39.4105 57.8616C39.298 57.8229 36.5974 56.9241 32.0801 56.9241C27.5523 56.9241 24.718 57.818 24.5998 57.8559C24.5009 57.8877 24.4091 57.9387 24.3299 58.0059C24.2506 58.0731 24.1853 58.1553 24.1378 58.2477C24.0903 58.3402 24.0615 58.4411 24.053 58.5447C24.0444 58.6482 24.0564 58.7525 24.0882 58.8515C24.1199 58.9504 24.1709 59.0422 24.2381 59.1214C24.3053 59.2007 24.3875 59.2659 24.48 59.3135C24.5724 59.361 24.6733 59.3898 24.7769 59.3983C24.8805 59.4068 24.9847 59.3949 25.0837 59.3631C25.1104 59.354 27.7998 58.5065 32.0801 58.5065C36.3393 58.5065 38.876 59.3511 38.9007 59.3603C38.999 59.3941 39.1031 59.4081 39.207 59.4014C39.3108 59.3948 39.4123 59.3677 39.5055 59.3217C39.5988 59.2756 39.6821 59.2116 39.7505 59.1333C39.819 59.0549 39.8712 58.9638 39.9043 58.8652C39.9718 58.6666 39.9577 58.4494 39.8651 58.2612C39.7726 58.073 39.6091 57.9293 39.4105 57.8616Z" fill="#007C54"></path>
<path d="M42.211 28.2543C42.0866 24.2553 39.6925 20.7585 36.0551 19.1937V3.42439C36.0545 3.02241 35.8946 2.63706 35.6104 2.35281C35.3261 2.06857 34.9408 1.90864 34.5388 1.90808H29.4617C29.0597 1.90864 28.6743 2.06857 28.3901 2.35281C28.1059 2.63706 27.9459 3.02241 27.9454 3.42439V19.1937C26.1619 19.9563 24.6343 21.2139 23.5433 22.8176C22.4523 24.4214 21.8437 26.3041 21.7894 28.243C21.7836 28.313 21.7805 28.3831 21.7803 28.4533V58.5045C21.7812 59.4557 22.1595 60.3678 22.832 61.0405C23.5046 61.7132 24.4165 62.0916 25.3678 62.0927H38.6306C39.5821 62.0918 40.4943 61.7135 41.1673 61.0408C41.8402 60.3681 42.2189 59.456 42.2202 58.5045V28.4533C42.2194 28.3869 42.2163 28.3205 42.211 28.2543ZM23.3627 34.0839H40.635L40.6371 52.5454H23.3627V34.0839ZM23.3683 28.3176C23.4133 26.6171 23.9623 24.9684 24.9455 23.5803C25.9288 22.1922 27.3021 21.1274 28.8913 20.5208H31.9345C32.1443 20.5208 32.3456 20.4375 32.4939 20.2891C32.6423 20.1407 32.7257 19.9395 32.7257 19.7296C32.7257 19.5198 32.6423 19.3185 32.4939 19.1702C32.3456 19.0218 32.1443 18.9384 31.9345 18.9384H29.5278V3.4905H34.4727V19.7296C34.4727 20.0616 34.6794 20.3577 34.9903 20.4723C38.312 21.6946 40.5259 24.7744 40.6335 28.3781L40.6342 32.5015H23.3627V28.4533L23.3683 28.3176ZM38.6306 60.5096H25.3671C24.8354 60.5088 24.3257 60.2973 23.9498 59.9212C23.574 59.5452 23.3625 59.0355 23.362 58.5038V54.1272H40.6364L40.6371 58.5038C40.6363 59.0356 40.4247 59.5455 40.0485 59.9215C39.6724 60.2975 39.1624 60.509 38.6306 60.5096Z" fill="#007C54"></path>
<path d="M25.5964 35.6663C25.1596 35.6663 24.8052 36.0207 24.8052 36.4575V48.0619C24.8052 48.2717 24.8885 48.4729 25.0369 48.6213C25.1853 48.7697 25.3865 48.8531 25.5964 48.8531C25.8062 48.8531 26.0075 48.7697 26.1559 48.6213C26.3042 48.4729 26.3876 48.2717 26.3876 48.0619V36.4575C26.3876 36.0207 26.0331 35.6663 25.5964 35.6663Z" fill="#007C54"></path>
<path d="M25.0353 49.6119C24.8876 49.7596 24.8032 49.9636 24.8032 50.1746C24.8032 50.3785 24.8876 50.5825 25.0353 50.7302C25.183 50.8779 25.387 50.9622 25.5979 50.9622C25.8063 50.9604 26.0056 50.8768 26.1529 50.7295C26.3002 50.5822 26.3838 50.3829 26.3856 50.1746C26.3856 49.9636 26.3012 49.7596 26.1536 49.6119C25.8652 49.3165 25.3377 49.3165 25.0353 49.6119Z" fill="#007C54"></path>
</svg>
