<svg xmlns="http://www.w3.org/2000/svg" width="64" height="64" fill="none"><path fill="#007C54" d="M52.943 12.086c-2.51-2.511-6.276-3.374-9.828-2.255L32 13.336 20.885 9.831c-3.552-1.12-7.318-.256-9.828 2.255L3.712 19.43C-.09 23.233.104 29.622 4.147 33.673c4.438 4.446 9.225 9.241 13.215 13.231a4.14 4.14 0 0 0 1.051 3.967l.054.053a4.08 4.08 0 0 0 2.902 1.186q.545 0 1.073-.135l.425.423a4.56 4.56 0 0 0 2.3 1.242 4.06 4.06 0 0 0 2.865 1.009 4.53 4.53 0 0 0 3.048-1.343l.92-.921.92.92a4.53 4.53 0 0 0 3.201 1.346 4.06 4.06 0 0 0 2.707-1.007 4.6 4.6 0 0 0 2.305-1.246l.427-.425a4.16 4.16 0 0 0 3.973-1.049l.053-.053a4.15 4.15 0 0 0 1.05-3.965c3.954-3.953 8.68-8.687 13.217-13.233 4.043-4.05 4.238-10.44.434-14.243zM19.882 49.51l-.054-.054a2 2 0 0 1-.306-.394l.756.754a2 2 0 0 1-.396-.307m9.783 2.38a2.7 2.7 0 0 1-.411.336 4 4 0 0 0 .846-1.742l.486.486zm14.506-2.433-.052.052c-.857.857-2.324.785-3.27-.16L25.49 33.99a1.002 1.002 0 0 0-1.64.32 1 1 0 0 0 .226 1.095L37.442 48.77l.007.007c.46.45.731 1.059.758 1.702a2.057 2.057 0 0 1-2.17 2.17 2.53 2.53 0 0 1-1.702-.758l-1.628-1.628L20.963 38.52a1 1 0 0 0-1.414 1.414l7.877 7.878.005.005c.46.45.732 1.06.759 1.702a2.08 2.08 0 0 1-.598 1.568l-.05.05c-.855.854-2.32.784-3.264-.156l-.867-.863-.005-.005a3783 3783 0 0 1-4.035-4.028 1 1 0 0 0-.337-.338c-4.04-4.039-8.938-8.944-13.472-13.487-3.264-3.27-3.46-8.392-.435-11.416l7.344-7.344c1.981-1.98 4.974-2.656 7.813-1.76l8.39 2.645-4.687 1.478a1 1 0 0 0-.695 1.047l.115 1.227a5.58 5.58 0 0 0 1.912 4.001 5.67 5.67 0 0 0 4.322 1.346l.666-.065.986.987 13.73 13.749c.944.946 1.016 2.412.16 3.268l-.006.006c-.837.83-2.249.78-3.194-.098l-4.87-4.869c-3.618-3.616-6.743-6.739-7.045-7.043a1 1 0 0 0-1.419 1.41l7.05 7.048 4.758 4.756.041.044.094.09 3.42 3.42c.945.946 1.017 2.413.16 3.27M58.437 32.26c-4.365 4.374-8.907 8.923-12.765 12.781a5 5 0 0 0-.246-.267l-.846-.846a4 4 0 0 0 2.016-1.09l.007-.007c1.629-1.637 1.555-4.366-.166-6.09L33.412 23.7l.9-.902a.999.999 0 0 0-.805-1.702l-4.062.399a3.7 3.7 0 0 1-2.815-.866 3.6 3.6 0 0 1-1.227-2.602q0-.026-.003-.05l-.042-.448 6.924-2.184h.003l11.43-3.605c2.838-.895 5.832-.22 7.813 1.76l7.344 7.345c3.025 3.024 2.83 8.145-.435 11.416"/></svg>