<svg xmlns="http://www.w3.org/2000/svg" width="64" height="64" viewBox="0 0 64 64" fill="none">
    <path fill-rule="evenodd" clip-rule="evenodd" d="M43.6251 48C42.5001 48 38.7501 47.625 39.2501 45.875C37.6251 45.25 34.6251 45.375 33.8751 44.125C33.1251 42.875 34.7501 41.625 34.6251 38.75C34.6251 36.875 34.5001 36.25 35.1251 36C35.6251 35.75 36.1251 36 36.5001 36.25C37.1251 36.75 38.1251 37.5 40.0001 37.375C42.0001 37.25 43.2501 36.875 43.7501 36.25C44.1251 35.625 44.2501 34.875 44.0001 33.375C43.7501 32.375 43.7501 30.75 43.7501 30.375C43.3751 30.375 42.6251 30.75 40.3751 32.25C38.2501 33.75 37.3751 34.125 36.6251 33.75C34.8751 33.125 35.8751 30.125 32.7501 26.75C30.2501 23.875 30.3751 21.125 31.1251 19.25C31.3751 18.5 31.7501 17.75 32.1251 17.25C28.6251 17.375 25.2501 18.375 22.5001 20.25C23.8751 21.5 26.2501 24.5 26.2501 29.625C26.2501 32.5 25.8751 34.25 25.5001 35.875C26.0001 35.625 26.5001 35.25 26.7501 35.125C29.0001 33.5 30.5001 33.125 31.5001 33.75C32.5001 34.375 32.7501 35.875 32.2501 38.125C31.7501 41 31.8751 43.875 28.3751 44.375C26.8751 44.625 26.8751 46.25 25.5001 46.25C24.6251 46.25 23.7501 45.5 21.7501 43C20.8751 42 20.1251 41.375 19.6251 41.5C18.7501 41.875 18.1251 44.25 18.0001 46C19.6251 48.125 21.5001 49.875 23.8751 51.125C24.3751 50.25 25.3751 48.75 27.0001 48.25C28.5001 47.75 30.0001 48 31.6251 48.875C33.3751 50 34.0001 50 34.2501 50C34.2501 49.5 33.8751 49.25 34.1251 48.75C34.2501 48.625 34.5001 48.5 34.6251 48.375C35.1251 48.375 39.0001 47.875 40.6251 49.625C40.8751 49.875 41.2501 50.375 41.2501 51C42.7501 50.125 44.1251 49.125 45.3751 47.875C44.8751 48 44.2501 48 43.6251 48ZM51.1251 5.25C50.7501 5.25 50.3751 4.875 50.3751 4.5V1C50.3751 0 51.8751 0 51.8751 1V4.5C51.8751 4.875 51.6251 5.25 51.1251 5.25ZM46.8751 6.375C46.6251 6.375 46.3751 6.25 46.2501 6L44.5001 3C44.0001 2.125 45.2501 1.375 45.7501 2.25L47.5001 5.25C47.7501 5.75 47.3751 6.375 46.8751 6.375ZM33.5001 15.75C33.6251 15.75 33.7501 15.75 33.7501 15.75C44.0001 16.5 52.0001 25 52.0001 35.25C52.0001 39.5 50.6251 43.375 48.3751 46.625C48.3751 46.625 48.2501 46.75 48.2501 46.875C46.2501 49.375 43.7501 51.5 40.8751 52.875C40.7501 53 40.7501 53 40.6251 53C38.1251 54.125 35.3751 54.75 32.5001 54.75C29.3751 54.75 26.5001 54.125 23.8751 52.875C23.8751 52.75 23.7501 52.75 23.7501 52.75C21.0001 51.375 18.5001 49.25 16.7501 46.75C16.6251 46.75 16.6251 46.75 16.6251 46.625C14.2501 43.375 13.0001 39.5 13.0001 35.25C13.0001 28.875 16.0001 23.25 20.7501 19.625C20.8751 19.625 20.8751 19.5 21.0001 19.5C24.2501 17.125 28.1251 15.75 32.5001 15.75C32.8751 15.75 33.2501 15.75 33.5001 15.75ZM34.0001 17.375C33.1251 18.25 30.3751 21.875 33.8751 25.75C36.6251 28.75 36.6251 31.75 37.1251 32.375C37.2501 32.375 37.8751 32.25 39.6251 31C42.3751 29.125 43.6251 28.625 44.3751 29C45.6251 29.625 45.1251 31.375 45.3751 33.125C45.6251 34.5 45.7501 36 44.8751 37.125C44.1251 38.125 42.6251 38.625 40.1251 38.875C38.2501 39 36.8751 38.375 36.1251 37.875C36.1251 38.125 36.1251 38.375 36.1251 38.75C36.2501 41.25 35.2501 42.75 35.2501 43.375C35.2501 43.5 35.7501 43.625 37.5001 43.875C39.8751 44.25 40.3751 44.625 40.6251 45.125C40.8751 45.375 40.8751 45.75 40.7501 46C40.8751 46 41.1251 46.125 41.6251 46.25C44.3751 47 46.6251 46 47.1251 45.75C49.2501 42.75 50.5001 39.125 50.5001 35.25C50.5001 25.875 43.2501 18 34.0001 17.375ZM21.3751 21.125C17.1251 24.5 14.5001 29.5 14.5001 35.25C14.5001 38.5 15.2501 41.5 16.7501 44.125C17.1251 42.5 17.7501 40.625 19.1251 40.125C20.3751 39.75 21.5001 40.375 23.0001 42.125C24.6251 44.25 25.2501 44.625 25.5001 44.75C26.0001 44.25 26.3751 43.125 28.1251 42.875C29.8751 42.625 30.1251 41.75 30.5001 39.375C30.6251 38.875 30.7501 38.375 30.7501 37.875C31.2501 35.875 30.8751 35.125 30.6251 35C30.6251 35 30.0001 34.625 27.6251 36.25C25.8751 37.625 25.1251 38.125 24.3751 37.625C23.7501 37.25 23.8751 36.5 24.1251 35.125C24.3751 33.875 24.7501 32 24.7501 29.625C24.7501 24.625 22.2501 22 21.3751 21.125ZM25.2501 51.75C27.3751 52.75 29.8751 53.25 32.5001 53.25C35.1251 53.25 37.5001 52.75 39.7501 51.75C39.8751 51 39.6251 50.75 39.5001 50.625C38.8751 49.875 36.8751 49.75 35.7501 49.875C35.7501 50.25 35.6251 50.75 35.2501 51.125C34.3751 51.875 33.1251 51.5 30.8751 50.25C29.6251 49.5 28.5001 49.25 27.5001 49.625C26.3751 50 25.6251 51.125 25.2501 51.75ZM31.8751 63.75C26.6251 63.75 21.6251 62.25 17.2501 59.5C16.7501 60.375 16.0001 61.25 15.0001 62.25C14.8751 62.375 14.7501 62.375 14.5001 62.375H3.25006C3.12506 62.375 2.87506 62.375 2.75006 62.25C1.00006 60.5 -1.49994 56.625 1.25006 53.75C3.87506 51 3.62506 49.5 2.12506 47.25C1.75006 46.625 2.37506 45.875 3.00006 46.125C3.00006 46.125 4.12506 46.625 5.37506 47.625C5.50006 47.125 5.75006 46.375 6.00006 45.625C2.37506 35.625 4.75006 24.375 12.3751 16.75C21.0001 8.25 34.0001 6.375 44.5001 11.875C45.1251 8.75 47.8751 6.375 51.1251 6.375C54.8751 6.375 57.8751 9.375 57.8751 13.125C57.8751 16 56.1251 18.5 53.5001 19.375C62.0001 30.25 61.1251 45.75 51.2501 55.625C46.0001 60.875 39.1251 63.75 31.8751 63.75ZM16.3751 58.25V58.125C17.6251 55.625 16.2501 54 14.5001 51.75C12.5001 49.25 10.1251 46.375 10.1251 41.5C7.62506 44.5 6.75006 47.875 6.62506 48.875C7.87506 50.375 9.12506 52.875 8.87506 56.5C8.87506 57.5 7.37506 57.375 7.37506 56.375C7.62506 53.25 6.50006 51.125 5.37506 49.75C5.25006 49.625 5.25006 49.625 5.12506 49.5C5.00006 49.25 4.75006 49.125 4.50006 48.875C5.00006 50.625 4.50006 52.5 2.25006 54.75C0.250057 57 2.87506 60.125 3.62506 60.875H14.2501C15.2501 59.875 15.8751 59 16.3751 58.25ZM18.0001 58.25C22.1251 60.875 26.8751 62.25 31.8751 62.25C46.1251 62.25 57.7501 50.5 57.7501 36.25C57.7501 30.25 55.7501 24.375 52.0001 19.75C51.7501 19.875 51.5001 19.875 51.1251 19.875C47.6251 19.875 44.6251 17 44.5001 13.5C40.6251 11.375 36.2501 10.25 31.8751 10.25C17.5001 10.25 5.87506 21.875 5.87506 36.25C5.87506 38.75 6.25006 41.25 6.87506 43.625C7.75006 42.125 8.87506 40.375 10.5001 38.875C11.1251 38.375 11.8751 38.875 11.7501 39.5C11.0001 45 13.5001 48.125 15.6251 50.75C17.3751 53 19.1251 55.25 18.0001 58.25ZM45.8751 13C46.0001 13 45.8751 13 45.8751 13.125C45.8751 16 48.2501 18.375 51.1251 18.375C54.0001 18.375 56.3751 16 56.3751 13.125C56.3751 10.25 54.0001 7.875 51.1251 7.875C48.3751 7.875 46.0001 10.125 45.8751 13ZM43.6251 9.5C43.5001 9.5 43.3751 9.5 43.2501 9.5L40.3751 7.75C39.5001 7.25 40.2501 5.875 41.1251 6.375L44.0001 8.125C44.7501 8.5 44.5001 9.5 43.6251 9.5ZM61.6251 19.875C61.5001 19.875 61.3751 19.875 61.2501 19.75L58.2501 18.125C57.3751 17.625 58.1251 16.25 59.0001 16.75L62.0001 18.5C62.6251 18.875 62.3751 19.875 61.6251 19.875ZM63.2501 13.875H59.8751C58.8751 13.875 58.8751 12.375 59.8751 12.375H63.2501C64.2501 12.375 64.2501 13.875 63.2501 13.875ZM58.6251 9.5C57.8751 9.5 57.6251 8.5 58.2501 8.125L61.2501 6.375C62.1251 5.875 62.8751 7.25 62.0001 7.75L59.0001 9.5C58.8751 9.5 58.7501 9.5 58.6251 9.5ZM55.5001 6.375C54.8751 6.375 54.5001 5.75 54.8751 5.25L56.5001 2.25C57.0001 1.375 58.3751 2.125 57.8751 3L56.1251 6C56.0001 6.25 55.7501 6.375 55.5001 6.375Z" fill="#007C54"></path>
</svg>