<svg width="64" height="64" viewBox="0 0 64 64" fill="none" xmlns="http://www.w3.org/2000/svg">
<path d="M2.06201 53.2H7.58701C7.67215 53.3501 7.79517 53.4753 7.94379 53.563C8.09241 53.6508 8.26144 53.698 8.43401 53.7H12.051C12.8072 53.6985 13.5452 53.4686 14.1683 53.0403C14.7915 52.612 15.2707 52.0054 15.543 51.3H21.128L37.505 57.447C38.8065 57.9385 40.2024 58.1287 41.588 58.0035C42.9735 57.8783 44.3127 57.4408 45.505 56.724L62.716 45.824C62.9246 45.6918 63.1021 45.516 63.2363 45.3087C63.3706 45.1014 63.4584 44.8675 63.4937 44.6231C63.5291 44.3786 63.5111 44.1294 63.4411 43.8926C63.371 43.6558 63.2506 43.4369 63.088 43.251C62.0903 42.1009 60.768 41.2795 59.2949 40.8947C57.8218 40.5099 56.2667 40.5797 54.834 41.095L54.143 41.34C53.2126 38.3055 51.4077 35.6128 48.9542 33.5992C46.5007 31.5856 43.5077 30.3406 40.35 30.02V23.835C40.588 23.855 40.837 23.869 41.108 23.869C42.5587 23.8544 43.9881 23.5176 45.2927 22.8831C46.5974 22.2486 47.7448 21.3321 48.652 20.2C54.005 14.042 50.188 5.189 50.023 4.815C49.9392 4.62922 49.8011 4.47315 49.6269 4.36731C49.4527 4.26147 49.2505 4.21082 49.047 4.222C45.5666 4.51912 42.2399 5.78914 39.447 7.887C36.8228 5.65394 33.6329 4.18908 30.229 3.654C30.0264 3.62704 29.8204 3.66282 29.6388 3.75651C29.4571 3.85019 29.3085 3.99729 29.213 4.178C29.022 4.539 24.592 13.102 29.499 19.621C30.3758 20.9089 31.551 21.9657 32.9245 22.7013C34.298 23.4368 35.829 23.8292 37.387 23.845C37.7104 23.8446 38.0335 23.8272 38.355 23.793V29.936C35.9766 29.9859 33.638 30.5561 31.5035 31.6065C29.3691 32.6568 27.4906 34.162 26 36.016C24.9436 35.8579 23.8712 35.835 22.809 35.948L15.418 36.737C15.1129 36.1037 14.6356 35.569 14.0409 35.1941C13.4462 34.8192 12.758 34.6192 12.055 34.617H8.43401C8.26144 34.619 8.09241 34.6662 7.94379 34.754C7.79517 34.8417 7.67215 34.9669 7.58701 35.117H2.06201C1.7968 35.117 1.54244 35.2224 1.3549 35.4099C1.16737 35.5974 1.06201 35.8518 1.06201 36.117V52.2C1.06201 52.4652 1.16737 52.7196 1.3549 52.9071C1.54244 53.0947 1.7968 53.2 2.06201 53.2ZM47.143 18.885C46.4486 19.7565 45.5782 20.4718 44.5886 20.9841C43.599 21.4964 42.5125 21.7942 41.4 21.858C42.3352 20.5733 42.9379 19.0771 43.1543 17.5029C43.3706 15.9287 43.194 14.3254 42.64 12.836C42.2394 11.5825 41.6191 10.4103 40.808 9.374C43.0554 7.72139 45.6842 6.66395 48.45 6.3C49.166 8.343 50.888 14.577 47.143 18.885ZM31.092 18.415C27.659 13.856 29.814 7.758 30.672 5.766C32.791 6.222 39.009 8.001 40.734 13.441C41.206 14.6775 41.3504 16.0151 41.1533 17.3239C40.9562 18.6327 40.4242 19.8683 39.609 20.911L34.585 11.173L32.808 12.089L37.829 21.824C36.508 21.8809 35.1946 21.5972 34.0149 21.0002C32.8351 20.4033 31.8286 19.513 31.092 18.415ZM38.655 31.924C41.7061 31.9146 44.6785 32.8914 47.1292 34.7088C49.58 36.5261 51.3779 39.0867 52.255 42.009L42.376 45.515C42.0321 44.8376 41.5056 44.2699 40.856 43.876L30.759 37.729C29.9467 37.2385 29.082 36.8407 28.181 36.543C29.5139 35.0923 31.1325 33.9331 32.935 33.1382C34.7375 32.3433 36.685 31.9299 38.655 31.924ZM23.018 37.936C25.355 37.6939 27.7073 38.2205 29.718 39.436L39.812 45.583C40.2582 45.8587 40.5852 46.2913 40.7285 46.7959C40.8718 47.3004 40.8211 47.8403 40.5864 48.3094C40.3517 48.7784 39.9499 49.1427 39.4602 49.3304C38.9704 49.5182 38.4281 49.5159 37.94 49.324L28.187 45.424L27.445 47.281L37.198 51.181C37.8117 51.4264 38.4756 51.5198 39.1332 51.4533C39.7908 51.3867 40.4226 51.1622 40.9747 50.7988C41.5268 50.4354 41.9828 49.9439 42.3039 49.3662C42.6251 48.7885 42.8018 48.1417 42.819 47.481L55.5 42.981C56.501 42.621 57.5843 42.5561 58.6212 42.7938C59.658 43.0315 60.6048 43.5619 61.349 44.322L44.455 55.022C43.5228 55.579 42.4767 55.9182 41.395 56.0143C40.3133 56.1104 39.2239 55.9609 38.208 55.577L21.661 49.361C21.5487 49.3191 21.4298 49.2978 21.31 49.298H15.8V38.707L23.018 37.936ZM9.43401 36.617H12.051C12.5152 36.6183 12.9599 36.8036 13.2877 37.1321C13.6155 37.4607 13.7997 37.9059 13.8 38.37V49.95C13.799 50.4136 13.6144 50.858 13.2866 51.1859C12.9589 51.5139 12.5146 51.6987 12.051 51.7H9.43401V36.617ZM3.06201 37.117H7.43401V51.2H3.06201V37.117Z" fill="#007C54"></path>
</svg>
