<svg xmlns="http://www.w3.org/2000/svg" width="30" height="28" fill="none"><path fill="#007C54" d="M29.49 5.637c0-2.823-2.346-5.115-5.22-5.115a5.2 5.2 0 0 0-1.72.285 1.277 1.277 0 0 0-.785 1.61c.22.662.925 1.03 1.571.805a2.9 2.9 0 0 1 .935-.153c1.51 0 2.734 1.151 2.734 2.568 0 .764-.18 1.396-.418 1.895-2.416-2.619-6.114-4.3-10.27-4.3-5.935 0-11.164 3.475-12.715 8.447-.05.152-.09.285-.537.285-1.412 0-2.565 1.223-2.565 2.73v2.12c0 2.353 2.913 3.994 5.25 5.318.546.306 1.053.601 1.371.866v3.24c0 .703.557 1.274 1.243 1.274h2.654c.408 0 .786-.204 1.014-.54l.826-1.213c2.266.54 4.642.54 6.91 0l.824 1.213c.229.336.617.54 1.014.54h2.655c.686 0 1.242-.57 1.242-1.274v-3.27s.02-.082.08-.133c2.515-2.17 3.897-5.064 3.897-8.15 0-1.784-.477-3.455-1.312-4.963.835-1.07 1.312-2.567 1.312-4.095zm-5.498 15.262a2.74 2.74 0 0 0-.964 2.079v1.997h-.766l-.676-.999a1.9 1.9 0 0 0-2.057-.774c-2.098.55-4.315.55-6.413 0a1.9 1.9 0 0 0-2.058.774l-.676.999h-.765v-1.967c0-.866-.418-1.67-1.114-2.17-.388-.275-.924-.58-1.55-.927-.985-.55-3.968-2.242-3.968-3.097v-2.12c0-.122.07-.173.08-.183 1.442 0 2.505-.754 2.913-2.058C7.2 8.52 11.456 5.779 16.328 5.779c5.895 0 10.687 3.994 10.687 8.915 0 2.323-1.074 4.524-3.013 6.195z"/><path fill="#007C54" d="M9.397 13.886c-.686 0-1.262-.571-1.262-1.274s.537-1.274 1.223-1.274h.04c.685 0 1.242.57 1.242 1.274 0 .703-.557 1.274-1.243 1.274"/></svg>