<svg xmlns="http://www.w3.org/2000/svg" width="32" height="33" fill="none"><path fill="#007C54" d="M16 28.017q-3.9 0-6.617-2.716-2.716-2.718-2.716-6.617 0-3.134 1.85-5.617t4.85-3.35a6.3 6.3 0 0 1-1.3-.483 4.3 4.3 0 0 1-1.134-.817A5.1 5.1 0 0 1 9.517 5.8a9.9 9.9 0 0 1-.15-3.083 9.9 9.9 0 0 1 3.083.15 5.1 5.1 0 0 1 2.617 1.417 4.7 4.7 0 0 1 1.116 1.733q.351.967.45 2.033a11.3 11.3 0 0 1 2.434-3.633q.366-.366.933-.367.567 0 .933.367t.367.933-.367.934a9.6 9.6 0 0 0-1.3 1.616 6.6 6.6 0 0 0-.833 1.884q2.933.933 4.733 3.383t1.8 5.517q0 3.9-2.716 6.616Q19.9 28.019 16 28.018m0-2.666q2.767 0 4.717-1.95t1.95-4.717-1.95-4.717T16 12.017t-4.717 1.95-1.95 4.717 1.95 4.717T16 25.35"/></svg>