<svg xmlns="http://www.w3.org/2000/svg" width="32" height="32" fill="none"><path fill="#007C54" d="M21 26.667H5.333a2.57 2.57 0 0 1-1.883-.784A2.57 2.57 0 0 1 2.667 24V8q0-1.1.783-1.883a2.57 2.57 0 0 1 1.883-.784h21.334q1.099 0 1.883.784.783.783.783 1.883v16q0 1.1-.783 1.883a2.57 2.57 0 0 1-1.883.784H24.8L18.533 20.4a5.4 5.4 0 0 1-1.516.7 6 6 0 0 1-1.684.233q-2.5 0-4.25-1.75t-1.75-4.25 1.75-4.25 4.25-1.75 4.25 1.75 1.75 4.25q0 .9-.233 1.7a5.4 5.4 0 0 1-.7 1.5L25.867 24h.8V8H5.333v16h13zm-5.667-8q1.401 0 2.367-.967.967-.967.967-2.367t-.967-2.366T15.333 12t-2.366.967T12 15.333t.967 2.367 2.366.967"/></svg>