<svg width="32" height="33" viewBox="0 0 32 33" fill="none" xmlns="http://www.w3.org/2000/svg">
<path d="M14.6667 28.0171V17.3838C13.2444 17.3838 11.8778 17.1115 10.5667 16.5671C9.25556 16.0226 8.1 15.2504 7.1 14.2504C6.1 13.2504 5.33333 12.0949 4.8 10.7838C4.26667 9.47265 4 8.10598 4 6.68376V4.01709H6.66667C8.06667 4.01709 9.42222 4.28931 10.7333 4.83376C12.0444 5.3782 13.2 6.15042 14.2 7.15042C14.8889 7.83931 15.4611 8.59487 15.9167 9.41709C16.3722 10.2393 16.7222 11.1171 16.9667 12.0504C17.0778 11.8949 17.2 11.7449 17.3333 11.6004C17.4667 11.456 17.6111 11.306 17.7667 11.1504C18.7667 10.1504 19.9222 9.3782 21.2333 8.83376C22.5444 8.28931 23.9111 8.01709 25.3333 8.01709H28V10.6838C28 12.106 27.7278 13.4726 27.1833 14.7838C26.6389 16.0949 25.8667 17.2504 24.8667 18.2504C23.8667 19.2504 22.7167 20.0171 21.4167 20.5504C20.1167 21.0838 18.7556 21.3504 17.3333 21.3504V28.0171H14.6667ZM14.6667 14.6838C14.6667 13.6171 14.4611 12.6004 14.05 11.6338C13.6389 10.6671 13.0556 9.80598 12.3 9.05042C11.5444 8.29487 10.6833 7.71153 9.71667 7.30042C8.75 6.88931 7.73333 6.68376 6.66667 6.68376C6.66667 7.75042 6.86667 8.77265 7.26667 9.75042C7.66667 10.7282 8.24444 11.5949 9 12.3504C9.75556 13.106 10.6222 13.6838 11.6 14.0838C12.5778 14.4838 13.6 14.6838 14.6667 14.6838ZM17.3333 18.6838C18.4 18.6838 19.4167 18.4838 20.3833 18.0838C21.35 17.6838 22.2111 17.106 22.9667 16.3504C23.7222 15.5949 24.3056 14.7282 24.7167 13.7504C25.1278 12.7726 25.3333 11.7504 25.3333 10.6838C24.2667 10.6838 23.2444 10.8893 22.2667 11.3004C21.2889 11.7115 20.4222 12.2949 19.6667 13.0504C18.9111 13.806 18.3333 14.6671 17.9333 15.6338C17.5333 16.6004 17.3333 17.6171 17.3333 18.6838Z" fill="#0098CB"></path>
</svg>
