<svg xmlns="http://www.w3.org/2000/svg" width="64" height="64" fill="none"><path fill="#007C54" fill-rule="evenodd" d="M43.625 48c-1.125 0-4.875-.375-4.375-2.125-1.625-.625-4.625-.5-5.375-1.75s.875-2.5.75-5.375c0-1.875-.125-2.5.5-2.75.5-.25 1 0 1.375.25.625.5 1.625 1.25 3.5 1.125q3-.187 3.75-1.125c.375-.625.5-1.375.25-2.875-.25-1-.25-2.625-.25-3-.375 0-1.125.375-3.375 1.875-2.125 1.5-3 1.875-3.75 1.5-1.75-.625-.75-3.625-3.875-7-2.5-2.875-2.375-5.625-1.625-7.5.25-.75.625-1.5 1-2-3.5.125-6.875 1.125-9.625 3 1.375 1.25 3.75 4.25 3.75 9.375 0 2.875-.375 4.625-.75 6.25.5-.25 1-.625 1.25-.75 2.25-1.625 3.75-2 4.75-1.375s1.25 2.125.75 4.375c-.5 2.875-.375 5.75-3.875 6.25-1.5.25-1.5 1.875-2.875 1.875-.875 0-1.75-.75-3.75-3.25-.875-1-1.625-1.625-2.125-1.5-.875.375-1.5 2.75-1.625 4.5 1.625 2.125 3.5 3.875 5.875 5.125.5-.875 1.5-2.375 3.125-2.875 1.5-.5 3-.25 4.625.625C33.375 50 34 50 34.25 50c0-.5-.375-.75-.125-1.25.125-.125.375-.25.5-.375.5 0 4.375-.5 6 1.25.25.25.625.75.625 1.375 1.5-.875 2.875-1.875 4.125-3.125-.5.125-1.125.125-1.75.125m7.5-42.75c-.375 0-.75-.375-.75-.75V1c0-1 1.5-1 1.5 0v3.5c0 .375-.25.75-.75.75m-4.25 1.125c-.25 0-.5-.125-.625-.375L44.5 3c-.5-.875.75-1.625 1.25-.75l1.75 3c.25.5-.125 1.125-.625 1.125M33.5 15.75h.25C44 16.5 52 25 52 35.25c0 4.25-1.375 8.125-3.625 11.375 0 0-.125.125-.125.25-2 2.5-4.5 4.625-7.375 6-.125.125-.125.125-.25.125a19.75 19.75 0 0 1-8.125 1.75q-4.687 0-8.625-1.875c0-.125-.125-.125-.125-.125-2.75-1.375-5.25-3.5-7-6-.125 0-.125 0-.125-.125C14.25 43.375 13 39.5 13 35.25c0-6.375 3-12 7.75-15.625.125 0 .125-.125.25-.125 3.25-2.375 7.125-3.75 11.5-3.75zm.5 1.625c-.875.875-3.625 4.5-.125 8.375 2.75 3 2.75 6 3.25 6.625.125 0 .75-.125 2.5-1.375 2.75-1.875 4-2.375 4.75-2 1.25.625.75 2.375 1 4.125.25 1.375.375 2.875-.5 4-.75 1-2.25 1.5-4.75 1.75-1.875.125-3.25-.5-4-1v.875c.125 2.5-.875 4-.875 4.625 0 .125.5.25 2.25.5 2.375.375 2.875.75 3.125 1.25.25.25.25.625.125.875.125 0 .375.125.875.25 2.75.75 5-.25 5.5-.5 2.125-3 3.375-6.625 3.375-10.5 0-9.375-7.25-17.25-16.5-17.875m-12.625 3.75C17.125 24.5 14.5 29.5 14.5 35.25c0 3.25.75 6.25 2.25 8.875.375-1.625 1-3.5 2.375-4 1.25-.375 2.375.25 3.875 2 1.625 2.125 2.25 2.5 2.5 2.625.5-.5.875-1.625 2.625-1.875s2-1.125 2.375-3.5c.125-.5.25-1 .25-1.5.5-2 .125-2.75-.125-2.875 0 0-.625-.375-3 1.25-1.75 1.375-2.5 1.875-3.25 1.375-.625-.375-.5-1.125-.25-2.5.25-1.25.625-3.125.625-5.5 0-5-2.5-7.625-3.375-8.5M25.25 51.75c2.125 1 4.625 1.5 7.25 1.5s5-.5 7.25-1.5c.125-.75-.125-1-.25-1.125-.625-.75-2.625-.875-3.75-.75 0 .375-.125.875-.5 1.25-.875.75-2.125.375-4.375-.875-1.25-.75-2.375-1-3.375-.625-1.125.375-1.875 1.5-2.25 2.125m6.625 12c-5.25 0-10.25-1.5-14.625-4.25-.5.875-1.25 1.75-2.25 2.75-.125.125-.25.125-.5.125H3.25c-.125 0-.375 0-.5-.125-1.75-1.75-4.25-5.625-1.5-8.5 2.625-2.75 2.375-4.25.875-6.5-.375-.625.25-1.375.875-1.125 0 0 1.125.5 2.375 1.5.125-.5.375-1.25.625-2-3.625-10-1.25-21.25 6.375-28.875C21 8.25 34 6.375 44.5 11.875c.625-3.125 3.375-5.5 6.625-5.5 3.75 0 6.75 3 6.75 6.75 0 2.875-1.75 5.375-4.375 6.25 8.5 10.875 7.625 26.375-2.25 36.25-5.25 5.25-12.125 8.125-19.375 8.125m-15.5-5.5v-.125c1.25-2.5-.125-4.125-1.875-6.375-2-2.5-4.375-5.375-4.375-10.25-2.5 3-3.375 6.375-3.5 7.375 1.25 1.5 2.5 4 2.25 7.625 0 1-1.5.875-1.5-.125.25-3.125-.875-5.25-2-6.625l-.25-.25c-.125-.25-.375-.375-.625-.625.5 1.75 0 3.625-2.25 5.875-2 2.25.625 5.375 1.375 6.125H14.25c1-1 1.625-1.875 2.125-2.625m1.625 0c4.125 2.625 8.875 4 13.875 4 14.25 0 25.875-11.75 25.875-26 0-6-2-11.875-5.75-16.5-.25.125-.5.125-.875.125-3.5 0-6.5-2.875-6.625-6.375a26.37 26.37 0 0 0-12.625-3.25c-14.375 0-26 11.625-26 26 0 2.5.375 5 1 7.375.875-1.5 2-3.25 3.625-4.75.625-.5 1.375 0 1.25.625-.75 5.5 1.75 8.625 3.875 11.25 1.75 2.25 3.5 4.5 2.375 7.5M45.875 13c.125 0 0 0 0 .125 0 2.875 2.375 5.25 5.25 5.25s5.25-2.375 5.25-5.25-2.375-5.25-5.25-5.25c-2.75 0-5.125 2.25-5.25 5.125m-2.25-3.5h-.375l-2.875-1.75c-.875-.5-.125-1.875.75-1.375L44 8.125c.75.375.5 1.375-.375 1.375m18 10.375c-.125 0-.25 0-.375-.125l-3-1.625c-.875-.5-.125-1.875.75-1.375l3 1.75c.625.375.375 1.375-.375 1.375m1.625-6h-3.375c-1 0-1-1.5 0-1.5h3.375c1 0 1 1.5 0 1.5M58.625 9.5c-.75 0-1-1-.375-1.375l3-1.75c.875-.5 1.625.875.75 1.375L59 9.5zM55.5 6.375c-.625 0-1-.625-.625-1.125l1.625-3c.5-.875 1.875-.125 1.375.75l-1.75 3a.69.69 0 0 1-.625.375" clip-rule="evenodd"/></svg>