<svg xmlns="http://www.w3.org/2000/svg" width="64" height="64" fill="none"><path fill="#007C54" d="M32 35.325c-5.325 0-10.475 3.625-11.35 9.062-.375 2.325.125 4.663 1.313 6.688.712 1.212 1.412 2.412 2.124 3.625.963 1.637 1.913 3.262 2.875 4.9.213.375.438.737.65 1.112.6 1.038 1.5 1.738 2.588 2.2 2.275.95 4.963-.15 6.175-2.212l2.025-3.45c.975-1.65 1.938-3.3 2.913-4.95.787-1.325 1.55-2.638 1.912-4.163 1.262-5.35-2.337-10.45-7.312-12.175-1.25-.437-2.6-.625-3.913-.637-1.212-.013-1.212 1.862 0 1.875 2.638.025 5.175.962 7.063 2.825a8.45 8.45 0 0 1 2.524 6.362c-.075 1.65-.787 3.075-1.612 4.463-.925 1.562-1.837 3.137-2.763 4.7-.787 1.337-1.562 2.675-2.35 4.012-.925 1.588-2.775 2.288-4.462 1.363-1.075-.588-1.65-1.988-2.25-3.013-1-1.7-1.987-3.4-2.987-5.087l-1.613-2.738c-.975-1.662-1.4-3.587-1.062-5.5.787-4.487 5.087-7.4 9.487-7.4 1.237.013 1.237-1.862.025-1.862m0-16.45c-2.75 0-5.437 1.475-6.425 4.125-.462 1.237-.275 2.575.25 3.75.288.637.738 1.212 1.113 1.8 1.024 1.587 1.912 3.525 3.787 4.225 1.325.5 2.775.075 3.85-.75.6-.463 1-1.225 1.4-1.863 1.137-1.762 2.775-3.612 2.675-5.837-.137-3.4-3.55-5.413-6.65-5.45-1.212-.013-1.212 1.862 0 1.875 2.325.025 4.962 1.512 4.8 4.137-.05.763-.5 1.4-.912 2.013-.526.8-1.05 1.612-1.575 2.412-.4.613-.713 1.213-1.376 1.575-.912.5-2.15.138-2.712-.712-.812-1.25-1.625-2.5-2.45-3.763-.737-1.137-.787-2.4-.075-3.575.875-1.437 2.675-2.087 4.275-2.087 1.237 0 1.237-1.875.025-1.875"/><path fill="#007C54" d="M32 20.75c2.75 0 5.437-1.475 6.425-4.125.462-1.238.275-2.575-.25-3.75-.288-.637-.738-1.213-1.113-1.8-1.025-1.588-1.912-3.525-3.787-4.225-1.325-.5-2.775-.075-3.85.75-.6.462-1 1.225-1.4 1.862-1.138 1.763-2.775 3.613-2.675 5.838.137 3.4 3.55 5.412 6.65 5.45 1.212.012 1.212-1.863 0-1.875-2.325-.025-4.963-1.512-4.8-4.137.05-.763.5-1.4.912-2.013.525-.8 1.05-1.612 1.575-2.412.4-.613.713-1.213 1.375-1.576.913-.5 2.15-.137 2.713.713.812 1.25 1.625 2.5 2.45 3.763.737 1.137.787 2.4.075 3.575-.875 1.437-2.675 2.087-4.275 2.087-1.238 0-1.238 1.875-.025 1.875m23.687 15.6c0-1.5-.837-2.863-2.125-3.6-.6-.337-1.125-.487-1.55-1.15-.112-.175-.187-.375-.275-.562-.675-1.526-1.337-3.063-2.012-4.588l-1.65-3.787c-1.15-2.625-4.638-3.05-6.613-1.163-.725.688-1.412 1.413-2.112 2.113-.85.85.475 2.187 1.325 1.325l1.637-1.638c.625-.625 1.188-1.125 2.125-1.125 1.638.012 2.125 1.7 2.663 2.925.775 1.775 1.55 3.55 2.337 5.337.238.55.475 1.1.725 1.65.125.275.263.525.438.775.475.663 1.237 1.163 1.85 1.438a2.26 2.26 0 0 1 1.362 2.05c0 1.212 1.875 1.212 1.875 0m-45.5 0c0-.562.213-1.087.588-1.5.525-.587 1.15-.638 1.775-1.113.675-.512 1.087-1.175 1.425-1.937.712-1.613 1.412-3.238 2.125-4.85.525-1.2.987-2.462 1.6-3.625.537-1.012 1.737-1.337 2.775-.988.7.238 1.3 1.063 1.812 1.563l1.063 1.063c.85.85 2.187-.476 1.325-1.326-1.2-1.2-2.4-2.825-4.125-3.224-1.35-.313-2.75.137-3.75 1.062-.5.462-.788 1.063-1.05 1.675-.713 1.638-1.438 3.275-2.15 4.913-.538 1.225-.975 2.587-1.688 3.725-.275.424-.75.674-1.125.837-.5.212-.937.525-1.312.913-.725.737-1.138 1.8-1.138 2.825-.025 1.2 1.85 1.2 1.85-.013m45.238 18.625c0-.863.062-1.75-.113-2.6-.15-.75-.6-1.425-1.125-1.962-.525-.538-1.187-.9-1.712-1.463-1.113-1.213-1.4-2.888-1.813-4.437l-1.5-5.588c-.487-1.837-1.025-3.525-2.4-4.95-1.025-1.062-2.462-1.725-3.737-2.45-1.075-.612-2.163-1.212-3.238-1.825-1.05-.6-2 1.025-.95 1.625 1.35.762 2.7 1.525 4.038 2.287.525.3 1.062.575 1.575.9 1.237.763 2.125 2.05 2.5 3.45.787 2.925 1.562 5.85 2.35 8.775.45 1.688 1.3 3.2 2.662 4.325.8.663 1.575 1.15 1.575 2.313v1.612c.013 1.188 1.888 1.188 1.888-.012m-44.975 0c0-.812-.1-1.675.15-2.45.212-.637.787-.975 1.275-1.362a8.7 8.7 0 0 0 1.7-1.825c.912-1.325 1.225-3 1.637-4.538.5-1.85.988-3.7 1.488-5.562.112-.425.225-.85.337-1.288a5.9 5.9 0 0 1 2.35-3.35c.925-.65 1.988-1.15 2.963-1.7.937-.525 1.875-1.05 2.8-1.587 1.05-.6.112-2.213-.95-1.625-1.35.762-2.7 1.524-4.038 2.287-.525.3-1.062.575-1.575.9-1.375.85-2.45 2.175-3.05 3.675-.525 1.288-.787 2.7-1.15 4.038-.475 1.762-.95 3.524-1.412 5.3-.438 1.612-1.113 3.037-2.538 4.037-1.112.775-1.737 1.9-1.85 3.25-.05.6 0 1.213 0 1.813-.012 1.187 1.863 1.187 1.863-.013m41.612-44.7c-.6-.088-1.2-.187-1.787-.275-.675-.1-1.475-.325-2.163-.2-1.412.25-1.875 1.775-2.825 2.662-.625.6-1.5.776-2.112 1.376l-5.313 5.312c-.85.85.475 2.188 1.325 1.325l5.138-5.138c.4-.4.887-.562 1.375-.862.537-.325 1-.762 1.412-1.225.413-.475.7-1.075 1.113-1.537.175-.188.275-.113.5-.075.337.05.687.1 1.025.162.6.087 1.2.188 1.787.275.5.075 1-.125 1.15-.65.15-.45-.112-1.075-.625-1.15m-39.625 1.8c.563-.087 1.113-.175 1.675-.25.363-.05.713-.112 1.075-.162.288-.05.313-.088.488 0 .225.112.35.45.487.65.188.274.388.537.6.8.4.5.875.9 1.388 1.274.487.35 1.062.488 1.487.913l5.175 5.175c.85.85 2.188-.475 1.325-1.325l-5.275-5.275c-.575-.575-1.375-.775-2-1.287-1.037-.863-1.425-2.325-2.787-2.763-.663-.213-1.55.05-2.213.15-.637.1-1.275.2-1.912.287-.5.075-.775.7-.65 1.15.125.55.625.75 1.137.663"/><path fill="#007C54" d="M37.15 1.7c0 .888.175 1.963-.075 2.825-.113.388-.488.638-.825.8a3.2 3.2 0 0 0-1.013.775c-.65.713-.962 1.688-1.125 2.625-.2 1.188 1.6 1.688 1.813.5.125-.762.312-1.675 1.012-2.137.4-.263.813-.45 1.175-.788.413-.387.675-.912.825-1.45.275-.962.1-2.175.1-3.162C39.025.5 37.15.5 37.15 1.7M24.975 1.7c0 1.038-.112 2.138.1 3.163.2.987 1 1.725 1.875 2.15.8.387 1 1.425 1.138 2.212.2 1.188 2.012.688 1.812-.5-.162-.975-.5-1.85-1.125-2.625-.512-.637-1.537-.775-1.837-1.575-.163-.425-.075-1-.075-1.45V1.7c-.013-1.2-1.888-1.2-1.888 0"/></svg>