<svg xmlns="http://www.w3.org/2000/svg" width="64" height="64" fill="none"><path fill="#007C54" d="M2.062 53.2h5.525a.99.99 0 0 0 .847.5h3.617a3.75 3.75 0 0 0 3.492-2.4h5.585l16.377 6.147a9.21 9.21 0 0 0 8-.723l17.211-10.9a1.71 1.71 0 0 0 .372-2.573 7.55 7.55 0 0 0-8.254-2.156l-.691.245A16.13 16.13 0 0 0 40.35 30.02v-6.185c.238.02.487.034.758.034a9.8 9.8 0 0 0 7.544-3.669c5.353-6.158 1.536-15.011 1.371-15.385a1.01 1.01 0 0 0-.976-.593 18.6 18.6 0 0 0-9.6 3.665 18.7 18.7 0 0 0-9.218-4.233 1 1 0 0 0-1.016.524c-.191.361-4.621 8.924.286 15.443a9.66 9.66 0 0 0 7.888 4.224q.485 0 .968-.052v6.143A16.3 16.3 0 0 0 26 36.016a12.6 12.6 0 0 0-3.191-.068l-7.391.789a3.75 3.75 0 0 0-3.363-2.12H8.434a.99.99 0 0 0-.847.5H2.062a1 1 0 0 0-1 1V52.2a1 1 0 0 0 1 1m45.081-34.315a7.92 7.92 0 0 1-5.743 2.973 9.63 9.63 0 0 0 1.24-9.022 11.1 11.1 0 0 0-1.832-3.462A16.54 16.54 0 0 1 48.45 6.3c.716 2.043 2.438 8.277-1.307 12.585m-16.051-.47c-3.433-4.559-1.278-10.657-.42-12.649 2.119.456 8.337 2.235 10.062 7.675a7.68 7.68 0 0 1-1.125 7.47l-5.024-9.738-1.777.916 5.021 9.735a7.71 7.71 0 0 1-6.737-3.409m7.563 13.509a14.15 14.15 0 0 1 13.6 10.085l-9.879 3.506a4.07 4.07 0 0 0-1.52-1.639l-10.097-6.147a12.7 12.7 0 0 0-2.578-1.186 14.28 14.28 0 0 1 10.474-4.619m-15.637 6.012a10.8 10.8 0 0 1 6.7 1.5l10.094 6.147a2.1 2.1 0 0 1-1.872 3.741l-9.753-3.9-.742 1.857 9.753 3.9a4.1 4.1 0 0 0 5.621-3.7l12.681-4.5a5.56 5.56 0 0 1 5.849 1.341l-16.894 10.7a7.21 7.21 0 0 1-6.247.555l-16.547-6.216a1 1 0 0 0-.351-.063H15.8V38.707zM9.434 36.617h2.617A1.754 1.754 0 0 1 13.8 38.37v11.58a1.754 1.754 0 0 1-1.749 1.75H9.434zm-6.372.5h4.372V51.2H3.062z"/></svg>