<svg xmlns="http://www.w3.org/2000/svg" width="64" height="64" fill="none"><path fill="#007C54" d="M16.75 41.504c-3.194 0-6.109-3.67-6.109-7.698 0-3.71 2.57-6.412 6.108-6.412s6.108 2.703 6.108 6.412-3.02 7.698-6.108 7.698m0-12.176c-2.452 0-4.174 1.842-4.174 4.478 0 2.849 2.106 5.764 4.173 5.764 1.842 0 4.174-2.716 4.174-5.764 0-2.636-1.71-4.478-4.174-4.478"/><path fill="#007C54" d="M17.451 50.712c-6.465 0-9.473-1.643-10.122-5.34-.464-2.61.331-4.875 2.24-6.372a11.5 11.5 0 0 1 3.086-1.736.966.966 0 0 1 1.246.57.966.966 0 0 1-.57 1.245 9.9 9.9 0 0 0-2.57 1.445c-1.683 1.325-1.763 3.18-1.524 4.504.41 2.319 2.173 4.373 12.242 3.564a.976.976 0 0 1 1.047.888.976.976 0 0 1-.888 1.047c-1.524.119-2.915.185-4.187.185M23.984 41.279a1 1 0 0 1-.689-.278c-.252-.226-2-1.524-3.153-1.921a.97.97 0 0 1-.597-1.233.97.97 0 0 1 1.233-.596c1.59.557 3.696 2.2 3.895 2.385a.95.95 0 0 1 0 1.365.97.97 0 0 1-.69.278M48.044 41.504c-3.087 0-6.108-3.816-6.108-7.698s2.57-6.412 6.108-6.412 6.108 2.703 6.108 6.412c0 4.028-2.915 7.698-6.108 7.698m0-12.176c-2.451 0-4.174 1.842-4.174 4.478 0 3.048 2.332 5.764 4.174 5.764 2.067 0 4.173-2.902 4.173-5.764 0-2.636-1.709-4.478-4.173-4.478"/><path fill="#007C54" d="M47.342 50.712c-1.259 0-2.65-.066-4.187-.185a.97.97 0 0 1-.888-1.047.976.976 0 0 1 1.047-.888c10.07.809 11.832-1.232 12.243-3.564.238-1.325.158-3.18-1.537-4.504a9.5 9.5 0 0 0-2.57-1.444.966.966 0 0 1-.57-1.246.966.966 0 0 1 1.245-.57A11.8 11.8 0 0 1 55.212 39c1.908 1.497 2.703 3.763 2.24 6.373-.65 3.696-3.658 5.34-10.123 5.34zM40.81 41.266a.95.95 0 0 1-.702-.305.956.956 0 0 1 .013-1.338c.186-.186 2.292-1.829 3.895-2.385a.97.97 0 0 1 1.233.596.97.97 0 0 1-.596 1.232c-1.153.398-2.902 1.71-3.194 1.961a.98.98 0 0 1-.649.239M32.397 42.604c-3.71 0-7.208-4.439-7.208-9.142 0-4.386 3.034-7.579 7.208-7.579 4.173 0 7.207 3.193 7.207 7.579 0 4.61-3.577 9.142-7.207 9.142m0-14.773c-3.1 0-5.274 2.319-5.274 5.644 0 3.63 2.61 7.194 5.274 7.194 2.663 0 5.273-3.696 5.273-7.194s-2.173-5.644-5.273-5.644"/><path fill="#007C54" d="M32.463 54.316c-1.815 0-3.603-.132-5.392-.384a7.56 7.56 0 0 1-4.041-1.908 7.63 7.63 0 0 1-2.266-3.83l-.08-.304a7.59 7.59 0 0 1 2.704-7.764 14 14 0 0 1 3.776-2.133.966.966 0 0 1 1.245.57.966.966 0 0 1-.57 1.245 12.5 12.5 0 0 0-3.272 1.842 5.69 5.69 0 0 0-2.014 5.79l.08.304a5.54 5.54 0 0 0 1.695 2.849 5.63 5.63 0 0 0 3.008 1.418 36.3 36.3 0 0 0 9.738.08l.358-.054a5.64 5.64 0 0 0 4.902-4.942 5.67 5.67 0 0 0-2.133-5.127l-.41-.318a12.4 12.4 0 0 0-3.088-1.776.96.96 0 0 1-.543-1.258.96.96 0 0 1 1.259-.544 14 14 0 0 1 3.577 2.054l.41.318a7.62 7.62 0 0 1 2.85 6.89 7.57 7.57 0 0 1-6.572 6.624l-.358.053c-1.63.212-3.26.318-4.876.318zM32.397 22.293a.84.84 0 0 1-.398-.093c-4.306-1.96-6.863-4.942-6.863-7.976 0-2.504 1.96-4.624 4.28-4.624 1.165 0 2.238.49 2.994 1.272A4.12 4.12 0 0 1 35.404 9.6c2.319 0 4.28 2.12 4.28 4.624 0 3.074-2.57 6.068-6.877 7.99q-.199.078-.397.079zm-2.995-10.759c-1.245 0-2.345 1.259-2.345 2.69 0 2.53 2.69 4.73 5.34 6.028 2.65-1.272 5.326-3.458 5.326-6.028 0-1.431-1.087-2.69-2.346-2.69-1.073 0-1.854.756-2.053 1.497a.96.96 0 0 1-.927.703.966.966 0 0 1-.928-.703c-.212-.741-.98-1.497-2.054-1.497zM48.044 22.478a.84.84 0 0 1-.397-.093c-3.3-1.497-5.274-3.815-5.274-6.174 0-2 1.577-3.696 3.432-3.696.848 0 1.643.318 2.226.861a3.36 3.36 0 0 1 2.226-.861c1.868 0 3.431 1.696 3.431 3.696 0 2.399-1.974 4.704-5.273 6.188-.12.053-.265.08-.397.08zm-2.24-8.029c-.78 0-1.496.835-1.496 1.762 0 1.75 1.868 3.286 3.736 4.227 1.868-.914 3.723-2.451 3.723-4.227 0-.914-.715-1.762-1.497-1.762-.676 0-1.166.477-1.299.94a.96.96 0 0 1-.927.703.966.966 0 0 1-.927-.702c-.133-.464-.623-.94-1.299-.94zM16.75 22.478a.84.84 0 0 1-.398-.093c-3.299-1.497-5.273-3.815-5.273-6.174 0-2 1.576-3.696 3.431-3.696.848 0 1.643.318 2.226.861a3.35 3.35 0 0 1 2.226-.861c1.868 0 3.432 1.696 3.432 3.696 0 2.399-1.974 4.704-5.273 6.188-.12.053-.265.08-.398.08zm-2.226-8.029c-.782 0-1.497.835-1.497 1.762 0 1.75 1.868 3.286 3.736 4.227 1.868-.914 3.723-2.451 3.723-4.227 0-.914-.716-1.762-1.497-1.762-.676 0-1.166.477-1.299.94a.96.96 0 0 1-.927.703.966.966 0 0 1-.928-.702c-.132-.464-.622-.94-1.298-.94z"/></svg>