<svg xmlns="http://www.w3.org/2000/svg" width="32" height="26" fill="none"><path fill="#007C54" d="M18.796 25.517h-.011c-4.465-.021-6.864-.729-8.014-2.358l-1.429-2.252c-4.118-.943-7.467-3.59-9.242-7.332a1.03 1.03 0 0 1 0-.89c1.786-3.763 5.18-6.4 9.242-7.333l1.395-2.208C11.831 1.589 17.256.12 18.963.614c.837.246 1.128.868 1.128 1.361 0 1.555-.57 3.045-1.563 4.224a13.4 13.4 0 0 1 5.793 4.9c1.306-1.47 3.594-3.292 6.563-3.292.457 0 .86.257 1.027.665a1.04 1.04 0 0 1-.246 1.168c-1.049.997-2.723 4.942-1.317 7.172.212.333.212.74.022 1.083-.2.343-.569.547-.97.547-1.362 0-3.048-1.137-5.023-3.377a13.2 13.2 0 0 1-5.849 4.985 6.52 6.52 0 0 1 1.574 4.224c0 .332-.134.643-.38.879-.234.225-.569.354-.904.354zM2.356 13.124c1.584 3.013 4.441 5.103 7.913 5.768.3.064.569.236.736.493l1.652 2.605c.558.794 2.277 1.255 5.112 1.351a4.56 4.56 0 0 0-1.93-2.809l-.012-.01c-.513-.344-1.094-.547-1.652-.73-.58-.182-.904-.793-.714-1.35.19-.558.826-.869 1.406-.686.536.171 1.15.386 1.752.718 2.768-.933 4.99-2.82 6.34-5.36-1.428-2.691-3.862-4.632-6.786-5.5-.022 0-.045-.01-.067-.021-1.82-.526-3.895-.622-5.793-.268a.3.3 0 0 0-.1.021c-3.393.675-6.262 2.745-7.858 5.768zm23.193-.053c.792.954 1.473 1.65 2.042 2.144-.111-1.63.335-3.313.938-4.674-1.384.686-2.445 1.822-2.98 2.53M12.646 4.988c1.228 0 2.433.15 3.572.428a4.53 4.53 0 0 0 1.585-2.776c-1.44.075-4.666 1.061-5.19 1.672l-.425.676h.47z"/><path fill="#007C54" d="M7.076 14.078h-.01c-.615 0-1.117-.482-1.117-1.072s.502-1.072 1.116-1.072 1.127.482 1.127 1.072-.49 1.072-1.105 1.072z"/></svg>