<svg xmlns="http://www.w3.org/2000/svg" width="64" height="64" fill="none"><path fill="#007C54" d="m28.293 27.048-8.007-11.143a.99.99 0 0 0-.811-.405.99.99 0 0 0-.812.403l-8.007 11.12a1 1 0 0 0-.053.077c-1.654 2.839-1.634 6.285.053 9.223A10.138 10.138 0 0 0 28.3 36.31c1.68-2.93 1.696-6.364.043-9.185a1 1 0 0 0-.05-.077m-1.728 8.268a8.138 8.138 0 0 1-14.175.009c-1.338-2.33-1.368-4.944-.083-7.18l7.165-9.956 7.168 9.986c1.282 2.218 1.256 4.818-.075 7.14"/><path fill="#007C54" d="M24.272 30.46a1 1 0 0 0-1 1 3.85 3.85 0 0 1-3.86 3.834 1 1 0 0 0 0 2 5.853 5.853 0 0 0 5.86-5.833 1 1 0 0 0-1-1M53.16 44.548 43.809 31.53a.99.99 0 0 0-.812-.404.99.99 0 0 0-.812.403l-9.353 12.99q-.029.038-.053.077c-1.902 3.264-1.878 7.227.063 10.606a11.675 11.675 0 0 0 20.32-.014c1.93-3.371 1.95-7.32.05-10.561a1 1 0 0 0-.05-.078m-1.735 9.644a9.674 9.674 0 0 1-16.85.011c-1.596-2.777-1.628-5.896-.092-8.562l8.511-11.828 8.514 11.862c1.533 2.647 1.503 5.748-.083 8.517"/><path fill="#007C54" d="M48.6 48.605a1 1 0 0 0-1 1 4.666 4.666 0 0 1-4.676 4.646 1 1 0 0 0 0 2 6.67 6.67 0 0 0 6.676-6.646 1 1 0 0 0-1-1M47.75 29.5a1 1 0 0 0 1-1v-2.25a1 1 0 0 0-2 0v2.25a1 1 0 0 0 1 1m0-7a1 1 0 0 0 1-1V9.75a1 1 0 0 0-2 0V21.5a1 1 0 0 0 1 1m0-15.5a1 1 0 0 0 1-1V3.875a1 1 0 0 0-2 0V6a1 1 0 0 0 1 1M41.875 27a1 1 0 0 0 1-1V15.875a1 1 0 0 0-2 0V26a1 1 0 0 0 1 1m0-15a1 1 0 0 0 1-1V7.5a1 1 0 0 0-2 0V11a1 1 0 0 0 1 1M36 29.625a1 1 0 0 0 1-1V23.5a1 1 0 0 0-2 0v5.125a1 1 0 0 0 1 1m0-8.875a1 1 0 0 0 1-1V6.625a1 1 0 0 0-2 0V19.75a1 1 0 0 0 1 1M30.125 12.875a1 1 0 0 0-1 1v8.875a1 1 0 0 0 2 0v-8.875a1 1 0 0 0-1-1m0-8.75a1 1 0 0 0-1 1v5a1 1 0 0 0 2 0v-5a1 1 0 0 0-1-1"/></svg>