<svg xmlns="http://www.w3.org/2000/svg" width="64" height="64" fill="none"><path fill="#007C54" d="M39.41 57.862c-.112-.04-2.813-.938-7.33-.938-4.528 0-7.362.894-7.48.932a.792.792 0 0 0 .484 1.507c.026-.009 2.716-.856 6.996-.856 4.26 0 6.796.844 6.82.853a.786.786 0 0 0 1.004-.495.79.79 0 0 0-.494-1.003"/><path fill="#007C54" d="M42.211 28.254a10.16 10.16 0 0 0-6.156-9.06V3.424a1.52 1.52 0 0 0-1.516-1.516h-5.077a1.52 1.52 0 0 0-1.517 1.516v15.77a10.15 10.15 0 0 0-6.156 9.049q-.008.105-.009.21v30.052a3.59 3.59 0 0 0 3.588 3.588H38.63a3.593 3.593 0 0 0 3.59-3.589v-30.05q-.003-.1-.01-.2m-18.848 5.83h17.272l.002 18.461H23.363zm.005-5.766a8.59 8.59 0 0 1 5.523-7.797h3.044a.79.79 0 1 0 0-1.583h-2.407V3.491h4.945V19.73c0 .332.206.628.517.742 3.322 1.223 5.536 4.302 5.643 7.906l.001 4.124H23.363v-4.049zM38.631 60.51H25.367a2.01 2.01 0 0 1-2.005-2.006v-4.377h17.274l.001 4.377a2.01 2.01 0 0 1-2.006 2.006"/><path fill="#007C54" d="M25.596 35.666a.79.79 0 0 0-.79.792v11.604a.791.791 0 1 0 1.582 0V36.458a.79.79 0 0 0-.792-.792M25.035 49.612a.8.8 0 0 0-.232.563.795.795 0 0 0 .795.787.795.795 0 0 0 .788-.787.8.8 0 0 0-.232-.563c-.289-.296-.816-.296-1.119 0"/></svg>