<svg xmlns="http://www.w3.org/2000/svg" width="32" height="33" fill="none"><path fill="#007C54" d="M14.667 28.017V17.384q-2.135 0-4.1-.817A10.6 10.6 0 0 1 7.1 14.25q-1.5-1.5-2.3-3.466a10.8 10.8 0 0 1-.8-4.1V4.017h2.667q2.1 0 4.066.817A10.6 10.6 0 0 1 14.2 7.15a10.2 10.2 0 0 1 1.717 2.267q.683 1.233 1.05 2.633.166-.233.366-.45.2-.216.434-.45 1.5-1.5 3.466-2.316a10.6 10.6 0 0 1 4.1-.817H28v2.667q0 2.133-.817 4.1a10.6 10.6 0 0 1-2.316 3.466q-1.5 1.5-3.45 2.3t-4.084.8v6.667zm0-13.333a7.7 7.7 0 0 0-.617-3.05A8.1 8.1 0 0 0 12.3 9.05 8.1 8.1 0 0 0 9.717 7.3a7.7 7.7 0 0 0-3.05-.616q0 1.6.6 3.066.6 1.467 1.733 2.6a7.8 7.8 0 0 0 2.6 1.734q1.467.6 3.067.6m2.666 4a7.9 7.9 0 0 0 5.634-2.334 8.1 8.1 0 0 0 1.75-2.6q.615-1.466.616-3.066a7.8 7.8 0 0 0-3.066.616 8.1 8.1 0 0 0-2.6 1.75 7.9 7.9 0 0 0-2.334 5.634"/></svg>