<svg xmlns="http://www.w3.org/2000/svg" width="158" height="34" fill="none"><g id="Dept PIR Logo Horizontal Full Colour 1" clip-path="url('#clip0_2737_1369')"><path id="PIR_Logo_Vector" fill="#878787" d="M15.969 7.386c4.972-.187 9.146 3.728 9.331 8.737s-3.7 9.214-8.672 9.4c-4.972.187-9.147-3.727-9.332-8.736s3.7-9.215 8.673-9.401m0 .175c-4.88.174-8.684 4.31-8.51 9.226s4.278 8.749 9.157 8.574 8.684-4.31 8.51-9.227c-.173-4.916-4.277-8.748-9.157-8.573"/><path id="PIR_Logo_Vector_2" fill="#878787" d="m4.128 18.383-.613.36c-.07.048-.208.106-.254.117-.266.035-.162-.326-.29-.302-.045 0-.057.034-.045.081.023.198.057.384.08.582.024.198.035.385.058.583 0 .047.012.082.07.07.104-.012-.058-.233.22-.396l2.208-1.317c.624-.372.786-.384.775-.454 0-.058-.07-.035-.301-.105-.312-.105-.312-.186-.382-.175-.057 0-.138.14-.173.14s-.231-.058-1.792-.454c-.359-.093-.636-.221-.763-.326-.14-.117-.105-.315-.197-.303-.035 0-.058.023-.046.07.023.175.046.326.07.49.034.325.045.442.057.547 0 .058 0 .081.07.07.115-.012-.047-.408.45-.466.139-.024.3.023.694.116l.127 1.072zm.116-.07-.116-.979 1.272.303z"/><path id="PIR_Logo_Vector_3" fill="#878787" d="M4.533 21.295c-.497.268-.683.85-.255 1.642.359.676.902.828 1.515.502l1.353-.723c.37-.198.636-.14.775 0 .092.093.104.152.162.117.034-.024.034-.047 0-.117-.081-.151-.15-.268-.243-.443-.093-.186-.15-.302-.231-.454-.035-.07-.058-.093-.105-.07-.057.035-.011.07 0 .21.035.186-.057.443-.439.652l-1.364.734c-.532.28-.972.187-1.25-.326-.242-.466-.138-.932.325-1.176l1.873-1.002c.3-.163.347.28.45.221.059-.023.047-.058.012-.128-.08-.152-.15-.256-.289-.513-.138-.256-.185-.372-.266-.524-.034-.07-.058-.093-.115-.058-.116.058.22.338-.081.5l-1.862 1.003z"/><path id="PIR_Logo_Vector_4" fill="#878787" d="M6.66 26.165s-.023.058 0 .07c.07.058.128-.117.278 0 .092.081.22.442.497.663.601.513 1.226.338 1.573-.07.775-.931-.798-1.863-.208-2.574.196-.245.508-.28.798-.035.416.35.312.897.069 1.445-.023.046-.058.105-.035.128s.058.023.081-.023c.046-.047.255-.327.648-.91.034-.046.034-.069 0-.092-.07-.058-.128.105-.232.011-.15-.128-.138-.384-.474-.664-.428-.36-1.063-.314-1.399.082-.786.944.856 1.794.197 2.574-.22.268-.578.35-.948.035-.486-.419-.278-1.071.046-1.596.058-.093.08-.128.046-.163-.023-.011-.046-.023-.08.012l-.88 1.06z"/><path id="PIR_Logo_Vector_5" fill="#878787" d="M13.205 26.386c.463.163.717.722.763 1.165.012.128.012.198.047.21.034 0 .046 0 .057-.024.024-.058.035-.186.047-.28l.115-.826s.024-.094-.023-.105c-.023 0-.046 0-.07.011-.034 0-.08.012-.173-.023l-1.989-.687a.4.4 0 0 1-.15-.093c-.011-.024-.023-.047-.046-.059-.046-.011-.07.047-.081.07l-.416.734c-.046.082-.116.187-.139.245 0 .023 0 .046.023.046s.07-.046.162-.14c.312-.326.856-.605 1.318-.442l-.936 2.773c-.104.314-.51 0-.556.128-.023.058.024.081.093.105.22.07.335.104.613.198.277.093.393.15.601.22.07.024.127.036.139-.022.046-.117-.463-.129-.358-.443l.948-2.773z"/><path id="PIR_Logo_Vector_6" fill="#878787" d="M16.443 29.857c.035.338-.382.21-.37.338 0 .058.035.07.116.058.173-.011.289-.035.578-.058s.416-.023.59-.047c.08 0 .104-.023.104-.081 0-.128-.394.07-.428-.268l-.104-1.212h.08c.37-.035.475.059.868.688l.485.78c.428-.035.764-.058.833-.058.07 0 .093-.023.093-.07 0-.128-.347.082-.59-.338l-.312-.536c-.29-.489-.51-.547-.972-.559.694-.116 1.133-.477 1.099-.978-.035-.431-.44-.862-1.388-.78-.185.01-.381.046-.636.069-.289.023-.416.023-.59.047-.08 0-.104.023-.104.081 0 .128.394-.07.428.268l.232 2.68zm.324-2.982.289-.023c.462-.035.751.151.798.722.046.582-.209.827-.729.874l-.22.023z"/><path id="PIR_Logo_Vector_7" fill="#878787" d="M25.428 26.2c.242.232-.15.419-.058.5.046.047.07.023.127-.035.116-.128.197-.221.393-.442.729-.793 1.03-1.095 1.284-1.375l-.683-.92c-.046-.059-.069-.094-.092-.105-.023-.012-.046-.024-.07 0-.023.023-.011.046.024.116.266.443.427 1.177-.093 1.724-.162.175-.3.222-.509.024l-1.873-1.76c-.243-.232.15-.419.058-.5-.046-.047-.07-.024-.127.035-.116.128-.197.22-.393.442-.197.21-.29.303-.405.42-.046.058-.07.081-.023.128.092.081.254-.315.497-.093l1.954 1.828z"/><path id="PIR_Logo_Vector_8" fill="#878787" d="M28.26 22.25c.301.14 0 .443.105.49.058.023.08 0 .104-.07.07-.152.115-.268.243-.536.127-.268.185-.373.254-.536.035-.07.035-.105-.023-.128-.116-.059-.139.384-.44.244l-2.416-1.141c-.3-.14.011-.443-.104-.501-.058-.024-.081 0-.104.07-.07.151-.116.28-.243.535-.127.268-.185.373-.255.536-.034.07-.034.105.023.128.116.059.14-.384.44-.244l2.417 1.13z"/><path id="PIR_Logo_Vector_9" fill="#878787" d="m28.665 17.579.683-.198c.08-.024.23-.059.277-.047.266.035.08.35.208.373.046 0 .058-.024.07-.07.023-.198.034-.384.057-.582.023-.199.058-.385.081-.583 0-.047 0-.082-.046-.093-.104-.012 0 .233-.3.326l-2.464.746c-.693.21-.855.186-.855.244s.07.047.266.175c.277.175.254.256.335.256.058 0 .162-.093.208-.093.035 0 .208.105 1.63.874.324.174.567.36.66.5.104.152.034.338.115.35.035 0 .058 0 .07-.058.023-.175.034-.326.046-.49.035-.326.07-.442.08-.547 0-.058 0-.081-.045-.081-.116-.012-.047.407-.544.337-.139-.023-.277-.093-.647-.28l.127-1.07zm-.115.035-.116.978-1.168-.606z"/><path id="PIR_Logo_Vector_10" fill="#878787" d="M8.187 10.228s.058.024.07 0c.069-.07-.116-.128.034-.28.092-.093.45-.21.705-.477.555-.606.428-1.246.035-1.608-.89-.838-1.92.746-2.602.117-.231-.221-.243-.536.023-.816.382-.419.925-.28 1.457-.011.047.023.104.07.128.035.023-.024.023-.059-.012-.093-.046-.047-.312-.268-.867-.7-.047-.034-.07-.034-.093-.011-.07.07.093.128 0 .245-.139.14-.393.128-.694.454-.393.42-.393 1.072-.011 1.433.902.838 1.862-.804 2.602-.105.242.233.312.606-.024.978-.45.49-1.087.245-1.595-.116-.093-.07-.127-.082-.162-.047-.023.024-.023.047 0 .082l1.006.944z"/><path id="PIR_Logo_Vector_11" fill="#878787" d="M12.477 5.09c.462 1.038.231 1.725-.359 1.993-.601.268-1.248-.023-1.711-1.06s-.231-1.724.358-1.992c.602-.268 1.25.023 1.712 1.06m-1.758-1.164c-.775.35-1.376 1.34-.913 2.365.45 1.025 1.584 1.246 2.359.897.774-.35 1.376-1.34.913-2.365-.45-1.025-1.584-1.247-2.359-.897"/><path id="PIR_Logo_Vector_12" fill="#878787" d="M14.894 5.312c0 .57.45.99 1.376.978.774-.011 1.179-.43 1.167-1.141l-.023-1.55c0-.43.174-.64.359-.699.127-.046.185-.023.185-.093 0-.046-.035-.058-.116-.058-.185 0-.312.012-.52.023h-.52c-.081 0-.105.012-.105.059 0 .07.058.046.197.081.197.058.382.256.382.687l.023 1.55c0 .606-.29.967-.88.967-.543 0-.913-.303-.924-.827l-.035-2.132c0-.338.416-.187.405-.315 0-.058-.035-.07-.116-.07-.173 0-.3.012-.601.024h-.601c-.081 0-.104.011-.104.07 0 .128.416-.047.416.29l.034 2.133z"/><path id="PIR_Logo_Vector_13" fill="#878787" d="M21.565 3.984c.474.186.706.769.729 1.223 0 .128 0 .198.035.21.034.012.046 0 .057-.023.024-.059.035-.175.058-.28l.162-.827s.023-.093-.011-.105c-.024 0-.047 0-.07.012-.034 0-.08 0-.185-.035l-2-.816c-.093-.035-.128-.07-.15-.105-.012-.023-.012-.046-.047-.058-.046-.011-.07.047-.092.07l-.451.71a3 3 0 0 0-.15.234c0 .023 0 .046.023.058.023 0 .08-.035.173-.128.335-.303.902-.56 1.364-.361l-1.087 2.714c-.127.315-.52-.023-.566.093-.023.058.023.082.092.117.22.093.347.128.625.244.277.117.393.175.613.257.069.035.127.035.15-.012.046-.117-.474-.151-.347-.466l1.087-2.714z"/><path id="PIR_Logo_Vector_14" fill="#878787" d="m25.196 8.4-.948.99c-.231.244-.416-.164-.509-.07-.046.046-.023.07.035.128.127.116.231.21.44.42.22.209.3.302.427.43.058.058.081.07.128.023.092-.093-.324-.268-.093-.512l1.85-1.934c.231-.245.416.163.509.07.046-.047.023-.07-.035-.128-.127-.117-.231-.21-.44-.42-.219-.21-.3-.302-.427-.43-.058-.059-.081-.07-.127-.024-.081.093.323.268.092.513l-.82.85-1.041-1.013.82-.85c.232-.245.417.162.51.069.046-.047.023-.07-.035-.128-.128-.128-.232-.21-.44-.42-.22-.21-.3-.302-.428-.43-.057-.059-.08-.07-.127-.024-.092.093.324.268.093.513l-1.85 1.934c-.232.244-.417-.164-.51-.07-.045.046-.022.07.035.128.128.116.232.21.44.42.22.209.3.302.428.43.058.058.08.07.127.024.092-.094-.324-.268-.093-.513l.949-.99z"/><path id="PIR_Logo_Vector_15" fill="#00427A" d="M15.842 1.561c-7.008.256-12.697 5.37-14.015 12.01l-1.515-.29C1.804 5.707 8.43 0 16.385 0c7.956 0 14.42 5.568 16.015 13l-1.515.315C29.394 6.372 23.126 1.293 15.83 1.561z"/><path id="PIR_Logo_Vector_16" fill="#E50040" d="M31.21 17.428c.034-.478.034-.967.01-1.457a16 16 0 0 0-.277-2.364l1.515-.315c.208 1.048.312 2.132.312 3.239 0 .337 0 .687-.035 1.025l-1.537-.105z"/><path id="PIR_Logo_Vector_17" fill="#F9B000" d="M31.024 19.012c.07-.431.127-.862.162-1.305l1.538.105c-.035.5-.092.99-.185 1.468L31.024 19z"/><path id="PIR_Logo_Vector_18" fill="#00427A" d="M1.85 19.548c1.434 7.024 7.736 12.185 15.09 11.917 7.065-.256 12.8-5.452 14.05-12.173l1.514.28c-1.422 7.664-8.094 13.466-16.107 13.466S1.862 27.365.335 19.839l1.515-.303z"/><path id="PIR_Logo_Vector_19" fill="#F9B000" d="M1.607 17.963c.046.443.104.874.185 1.305l-1.515.303a15 15 0 0 1-.208-1.468z"/><path id="PIR_Logo_Vector_20" fill="#E50040" d="M1.77 13.85a14.7 14.7 0 0 0-.22 3.205c0 .21.023.419.034.628l-1.538.14A16 16 0 0 1 0 16.52c0-1.002.093-1.992.266-2.948l1.515.292z"/><path id="PIR_Logo_Vector_21" fill="#878787" d="M19.923 13.502s-.023-.047-.057-.047c-.024.012-.058.035-.081.047-.116.093-.22.221-.301.314-.035.093-.15.187-.012.373l.486-.49s0-.139-.035-.185zm-.185-.431c-.104.128-.23.268-.312.43-.011.036-.023.06-.034.094-.024.058-.058.128.046.163l.173-.256.058-.082c.07-.093.197-.151.15-.291l-.08-.047zm-.37.43c.093-.162.14-.349.243-.5-.011-.058.023-.128-.035-.163-.173-.035-.15.198-.289.268 0-.198.15-.35.116-.536-.035-.07-.058-.128-.22-.163-.046.338-.046.687.093 1.095l.035.093s.046-.058.057-.093m-5.677-1.374-.046-.035c-.162.024-.232.21-.301.338.08.245.185.466.231.722.127-.21.116-.466.139-.71-.023-.117-.023-.187-.023-.315m-.312.723c-.058-.082-.024-.245-.162-.245-.081.058-.093.14-.116.221.093.163.139.338.335.56.047-.14-.034-.257-.057-.548zm-.024.652c-.057-.105-.15-.198-.196-.303l-.15-.14c-.174.128.023.303.069.455-.023.034-.046.011-.058 0-.023-.035-.035-.082-.104-.082-.035.012-.046.046-.058.082a.4.4 0 0 1-.023.128c.058.151.243.21.335.396-.104-.024-.208-.105-.381.011l.37.396c-.07.07-.139-.046-.335-.023 0 .105.023.163.034.256.127.117.29.21.474.094-.034-.327-.069-.711.047-1.026.034-.081.011-.163-.024-.232zm6.65.559-.047-.035c-.185 0-.335.152-.474.268 0 .058-.104.117-.035.163.162-.035.324-.058.463-.14.035-.07.116-.14.08-.244zm-.14.431c-.161-.105-.323.047-.404.268.139.023.312-.023.405-.268m-4.336.338c.128.116.278.221.22.396-.07.035-.15-.023-.22-.035-.092-.023-.23-.058-.266.035.024 0 .047.023.081.035.15.093.313.268.486.105.023-.035.035-.07.046-.105.035-.14-.023-.291-.07-.443-.115-.105-.253-.21-.38-.116.034.035.069.081.115.116zm.752.361-.15-.093s-.058.046-.047.163v.046s.081.059.162-.046a.2.2 0 0 1 .047-.07zm2.232 1.829h.115c.197-.082-.034-.186-.023-.303.093-.012.139.117.22.152.08.023.197.14.266.023 0-.14-.093-.245-.162-.385.139.059.266.21.543.128 0-.21-.185-.29-.312-.407.139-.035.278.058.52-.082-.034-.21-.23-.28-.416-.303.047-.081.162-.116.232-.35-.15-.116-.255.06-.394.06-.08-.117.116-.129.15-.234 0-.012 0-.035.012-.046.012-.059.035-.105 0-.164-.115-.081-.185.047-.266.105-.046-.07 0-.151 0-.233h-.092c-.035.082-.058.187-.081.28-.035.14-.058.268-.116.396-.08.163-.185.326-.289.49a2 2 0 0 0-.231.407c-.023.105.035.198.07.291.057.093.15.163.254.175m-5.4-.897c.115.128.277.046.416.023h.035c-.081.07-.162.175-.15.28-.035.081.022.151.092.175.173.046.277-.129.416-.152-.046.128-.185.198-.011.431.127.023.184-.116.266-.046 0 .07.023.151.092.186.173.023.277-.117.358-.245.093-.221-.046-.43-.127-.629l-.023-.058c-.139-.21-.393-.35-.44-.606-.022-.07-.022-.14-.034-.21 0-.15-.023-.302-.139-.396-.08.059 0 .187 0 .268-.08.012-.092-.093-.266-.116-.046.093 0 .163.023.233l.024.046c0 .07.115.117.034.187-.115 0-.208-.128-.312-.152-.058 0-.162-.023-.185.059 0 .128.092.233.324.384-.093.047-.185.105-.278.128-.07.059-.15.105-.115.198zm3.92 6.628c.034.094.069.187.265.129v-.129a1.3 1.3 0 0 0-.173-.442c-.116-.198-.266-.396-.335-.618-.058-.07-.104-.35-.22-.163l.023.093c.058.245.174.466.278.688.058.116.115.244.162.36 0 .024.011.047.023.07zm-.648 0s.07.094.139.14c.08.047.092.175.243.059v-.199c-.035-.151-.058-.303-.081-.442a7 7 0 0 0-.174-.653l-.115-.093c-.081.058-.035.175-.058.257v.093c0 .116-.023.256-.035.384-.011.163-.011.315.058.443zm-.555 0c0 .094 0 .187.104.28.07-.105.174-.186.255-.28.011-.023.034-.035.046-.058v-1.06l-.093-.035c-.058.245-.162.478-.231.722l-.035.175c0 .093-.034.175-.046.268zm-.67-.442-.151.233s-.07.128.081.198c.08-.128.162-.256.254-.361.185-.315.417-.606.52-.956l-.034-.07c-.254.315-.463.63-.67.956m.38-.886c-.23.233-.485.443-.704.688-.047.07-.104.128-.15.198-.047.07-.082.151-.035.233.15.023.185-.14.254-.222.116-.22.382-.36.52-.559.07-.116.174-.21.243-.326l.07-.14h-.047s-.092.082-.15.14zm-.37 0c-.219.164-.427.327-.612.513-.046.07-.116.128 0 .268.081 0 .104-.082.162-.128.185-.256.486-.408.694-.653a.3.3 0 0 0 .058-.07c.057-.058.161-.116.138-.198h-.057c-.128.082-.255.175-.382.268m-.716 0c-.081.059-.127.164-.081.315.231.116.312-.163.474-.315-.092-.07-.254-.058-.347-.035-.023 0-.046.024-.058.035zm-.914 0c-.057.059-.08.152-.104.222.128.116.313.07.463.046l.07-.07q.069-.087.034-.21c-.104-.08-.254-.046-.358-.058-.047 0-.07.035-.104.059zm-.948 0s-.07.059-.092.105a.17.17 0 0 0 .046.163c.22.059.532.094.729-.058.034-.058.08-.128.057-.21l-.138-.046c-.185.023-.451-.07-.613.046zm4.498-.873c-.034.104-.08.186-.069.29.081.152.266.246.393.362l.96-.093c-.127-.175-.278-.303-.451-.455a.5.5 0 0 0-.139-.104.8.8 0 0 0-.289-.082c-.08-.023-.092-.233-.266-.268a4 4 0 0 1-.127.35zm-1.376 0c.116.337.266.664.567.873.173.035.266-.174.347-.267.162-.175.254-.385.324-.606.023-.082.057-.152.069-.233-.035-.035-.127-.035-.104-.117.173-.186.173-.407.231-.652.058-.117-.035-.256.035-.373.035-.023.07.012.104 0 .07-.175.173-.361.173-.57-.115-.315-.265-.618-.312-.944-.058-.233-.035-.443 0-.653 0-.093.023-.198.035-.291a1.3 1.3 0 0 0 0-.594c0-.047-.023-.093-.035-.14-.035-.07-.046-.151-.08-.21-.07-.116-.174-.29-.336-.268-.139.047-.15.198-.162.315a.7.7 0 0 1-.104.315.9.9 0 0 1-.497.396c-.15.081-.393-.012-.486.151a.8.8 0 0 1 .023.338c-.058.57-.208 1.107-.393 1.63.035.176.07.374.127.537q.034 0 .07-.035c.023 0 .092-.024.104.023-.035.233 0 .501.127.699.046.128.208.221.243.338-.035.116-.116 0-.174 0v.07c.023.093.047.174.081.256zm-.532 0c-.312.163-.647.244-.878.664.254.046.578 0 .867 0 .162-.047.266-.21.405-.268.057-.07.057-.152.046-.233-.023-.047-.035-.105-.058-.163l-.035-.094-.127-.104s-.173.163-.231.198zm4.996.873.023.035a.47.47 0 0 1-.07.257c-.138.21-.427.046-.578.21-.092.058-.208.116-.312.07-.08-.047-.139-.187-.243-.117-.092.093-.22.163-.347.116-.08-.081-.15-.174-.277-.14-.035.187.07.303.116.431.104.152.208.28.22.443v.082c-.128.07-.29.116-.325.28-.104.034-.23.023-.277.127-.035.082-.035.164-.116.233-.104.024-.208-.023-.3 0-.081.059-.093.21-.209.175-.08-.035-.173-.058-.277-.035-.104.058-.116.21-.22.28l-.347-.152c-.173.024-.22.303-.416.233-.127-.081-.162-.268-.335-.268l-.278.094c-.08-.07-.127-.187-.254-.187-.081 0-.174.035-.255.023-.115-.081-.127-.244-.254-.267-.104-.024-.266.035-.324-.094 0-.233-.323-.128-.358-.326.023-.128-.081-.163-.15-.221-.047-.035-.081-.082-.058-.163.034-.094.08-.187.127-.268.07-.14.162-.257.254-.385-.254-.046-.335.082-.485.059-.14 0-.266-.222-.382-.024-.15.07-.277-.058-.405-.093-.266 0-.6.082-.74-.186-.034-.082-.011-.175.024-.245.011-.035.034-.058.057-.081.266-.233.706.011.96-.222.29-.093.613.105.833-.151.15-.152.312-.28.474-.42.254-.21.37-.43.416-.768.127-.14 0-.303 0-.455-.092-.198-.07-.43-.174-.617-.092.023-.104.151-.115.233.011.326-.023.652-.278.838-.15.035-.3-.163-.439 0-.092.035-.162.175-.278.105-.115-.081-.22-.314-.381-.221-.116.07-.174.245-.324.186-.116-.081-.162-.29-.324-.268-.08.047-.162.117-.254.082a.7.7 0 0 1-.22-.268c-.173-.07-.358.128-.532.023-.08-.104-.092-.244-.196-.326-.162 0-.393.117-.486-.07-.035-.093 0-.233-.127-.268-.243 0-.52.128-.74 0 .035-.186.104-.36.173-.535-.138-.082-.323.011-.462-.047-.093-.012-.197-.035-.255-.128 0-.21.116-.361.15-.56l-.034-.023c-.243.024-.52.012-.74-.105-.093-.093 0-.244.058-.337.058-.082.115-.152.139-.245-.07-.116-.22-.082-.313-.163-.08-.082-.312-.058-.254-.221a.7.7 0 0 1 .173-.257c.093-.093.197-.186.278-.291-.07-.198-.324-.28-.463-.454.023-.047.047-.093.07-.128.115-.187.266-.303.404-.396a.1.1 0 0 0 .024-.047c0-.047-.035-.105-.07-.14-.127-.175-.312-.28-.405-.466.162-.14.359-.245.567-.28-.035-.198-.127-.326-.196-.442a.7.7 0 0 1-.105-.175c.278-.116.625 0 .89-.14-.15-.29-.311-.442-.45-.652.023-.093.139-.035.196-.058.243-.035.475.07.706.07-.22-.292-.451-.56-.451-.886.532.059.89.361 1.272.56-.046-.443-.59-.758-.59-1.212.578.256 1.018.524 1.41.874-.15-.42-.173-.793-.404-1.072-.104-.175-.092-.396-.104-.583.116-.035.185.129.29.164.242.28.462.559.624.873.242-.023.184-.186.127-.314a1.6 1.6 0 0 1-.116-.536c-.104-.268-.08-.49-.011-.757.3.081.312.302.404.466.104.256.15.547.231.815.058.105 0 .221.104.28.185-.024.047-.222.082-.338 0-.315.069-.688 0-.99a.85.85 0 0 1 .265-.804h.058c.046.244.104.512.081.745.058.163-.034.303.058.431.173.024.185-.256.359-.244.057.116.023.303.08.42.024.174.012.36 0 .558.024.117-.011.268-.023.408-.07.466-.138.92-.22 1.386a1.4 1.4 0 0 0-.104.723c.024.337.116.675.186.978.069.117.127.221.173.35.058.14.104.29.127.442l.035.233c.115.257.347.408.45.64.024.047.036.106.047.164.058.082.162.07.243.058.254-.186.393.28.624.058a.74.74 0 0 0 .185-.28.55.55 0 0 0 .023-.244c-.046-.14-.034-.326-.208-.384l-.104-.058a3 3 0 0 1-.497-.361c.081-.094.15-.035.22-.035.15 0 .289.046.44.07a1.2 1.2 0 0 0-.22-.292 1.2 1.2 0 0 0-.359-.244c.07-.082.22-.047.324-.035.266.07.532.163.775.28.254.116.497.255.728.442l.046.035c.22.256.37.524.44.839 0 .046.011.093.023.14.08.267.404.093.601.186.092-.105.185-.21.266-.315.22-.28.393-.559.45-.885 0-.047.013-.093.013-.14l.057-.303c.081-.396.174-.792.313-1.176v-.14c-.081-1.188-.197-2.342-.116-3.53.104-.07.115.117.208.152.15-.373.093-.711.324-.91.208.07.22.315.266.513-.023.338 0 .676.034 1.002.22-.338.278-.804.671-1.013.058.35 0 .594.023.885-.035.175-.162.315-.208.501-.08.128-.07.315 0 .454.07.07.127-.058.174-.116.22-.385.508-.804.902-1.083.22.034.184.174.173.256-.023.175-.15.314-.174.477-.23.21-.335.466-.462.723-.046.07-.15.186-.081.29.139-.046.208-.162.3-.267.267-.431.718-.664 1.145-.85.081.314-.185.454-.242.71a1.36 1.36 0 0 1-.625.676c-.07.07-.162.151-.15.256.07.093.162-.023.231-.046.44-.315.902-.595 1.422-.688.14.198-.034.315-.15.42-.197.14-.416.314-.578.524.139.14.266.023.405-.023.22-.129.543-.152.798-.105-.15.28-.336.43-.475.64.058.164.243 0 .382.024.162.023.358.023.474.151l.035.035c-.162.221-.359.303-.498.454.162.21.359.164.51.257.069.035.161.093.207.151-.138.175-.335.268-.45.42-.024.034-.047.07-.058.116.104.128.277.14.416.245.035.035.07.058.116.081.092.058.208.117.23.233a4 4 0 0 1-.6.338c-.081.047-.058.14 0 .175.046.046.104.093.15.14.08.07.162.14.231.22-.023.129-.173.14-.266.199-.15.07-.312.081-.428.221.012.105.104.175.162.245.093.14.139.268.116.396l-.07.035-.624.058-.023.035c.08.175.197.35.185.56-.22.093-.486.058-.717.093l-.046.046-.047.431-.08.07c-.174.081-.532-.116-.567.21-.046.07-.058.163-.139.198-.173.011-.358-.117-.532-.024-.15.094-.092.443-.358.327-.081-.047-.22-.094-.3-.047-.105.105-.093.361-.278.326-.104-.035-.162-.151-.278-.128-.162.058-.185.431-.393.198-.08-.023-.173-.116-.254-.035-.093.058-.162.198-.278.175-.08-.07-.127-.186-.243-.198-.127.035-.196.163-.335.116-.347-.198-.324-.629-.428-.967-.046-.035-.08-.07-.139-.058l-.069.093c-.035.292-.208.571-.139.85.15.28.393.537.648.781.162.163.323.326.474.466.277.198.682-.035.936.222.243.011.555-.035.717.186zm-.752 0c-.092.059-.162.164-.185.327.29 0 .578.07.775-.14.012-.058.035-.117 0-.187-.139-.07-.312-.046-.463-.058-.046 0-.104.035-.15.058zm-.624 0a.8.8 0 0 0-.185.105c0 .07.023.14.07.187a.48.48 0 0 0 .334-.024c.047-.07.162-.116.15-.221q-.002-.018-.022-.035c-.07-.07-.197-.058-.347 0zm-.867 0-.22.024c.173.093.312.407.566.28.058-.036.116-.117.07-.304v-.035l-.405.035zm-.648 0 .45.49.047.046.046.047.058.058c.104.082.162.245.336.163a7 7 0 0 0-.764-.804 7 7 0 0 0-.335-.29h-.092l.242.29zm-.324 0s.023.035.035.047c.173.315.428.547.694.827.115.117.23.245.335.384.035-.058.081-.116.058-.198a1.2 1.2 0 0 0-.15-.186c-.14-.163-.301-.303-.428-.477a4 4 0 0 0-.347-.397 2.6 2.6 0 0 0-.324-.244c-.035.105.058.175.116.244zm.278.886c.046.07.104.14.15.198.07.07.104.174.197.244a.25.25 0 0 0 .138.047v-.047c0-.14-.092-.29-.208-.396l-.035-.046c-.254-.303-.427-.653-.716-.886l-.047-.035c.116.327.313.63.52.92m-1.873.442c-.058.129 0 .233.22.233.01-.081.034-.163.057-.233.035-.116.08-.233.15-.337l.023-.094c.07-.29.197-.57.22-.873l-.07-.047-.022.047c-.128.29-.278.582-.417.862-.034.163-.115.303-.162.454z"/><path id="PIR_Logo_Vector_22" fill="#878787" d="m22.109 27.539.532.466c.058.047.173.163.196.21.116.244-.254.268-.196.372.023.035.046.047.092.024.174-.094.347-.175.52-.268.174-.082.36-.163.533-.245.046-.023.069-.035.046-.093-.046-.105-.197.14-.44-.082l-1.954-1.677c-.543-.466-.613-.618-.67-.594-.058.023 0 .081 0 .326 0 .326-.07.35-.035.42.023.058.173.093.185.116.023.035.023.244.162 1.852.034.361 0 .676-.058.827-.07.163-.266.21-.22.291.023.035.035.047.081.024.15-.082.29-.152.44-.222.3-.151.404-.186.497-.233.046-.023.07-.035.046-.081-.058-.105-.358.174-.578-.28-.07-.128-.07-.291-.127-.699l.971-.477zm-.093-.093-.878.43-.128-1.316z"/><path id="PIR_Logo_Vector_23" fill="#00427A" d="M156.948 6.209c0 .326-.047.63-.232.874a.9.9 0 0 1-.763.372c-.393 0-.694-.151-.694-.512 0-.652.729-.734 1.215-.734zM158 8.154c-.023-.326-.046-.617-.046-.943 0-.315-.012-.63-.012-1.06v-.536c0-1.247-.532-1.782-1.804-1.782-.462 0-1.029.128-1.457.314l.035.944c.37-.28.833-.455 1.295-.455.648 0 .948.233.948.909h-.601c-.451 0-.994.035-1.411.245-.416.21-.717.57-.717 1.2 0 .803.729 1.258 1.469 1.258.497 0 1.041-.268 1.295-.734h.012c0 .128 0 .407.046.629h.96z"/><path id="PIR_Logo_Vector_24" fill="#00427A" d="M153.363 3.938h-1.087v4.217h1.087z"/><path id="PIR_Logo_Vector_25" fill="#00427A" d="M153.363 2.12h-1.087V3.17h1.087z"/><path id="PIR_Logo_Vector_26" fill="#00427A" d="M151.12 2.015h-1.087v6.14h1.087z"/><path id="PIR_Logo_Vector_27" fill="#00427A" d="M147.952 6.209c0 .326-.047.63-.232.874a.91.91 0 0 1-.763.372c-.393 0-.694-.151-.694-.512 0-.652.729-.734 1.214-.734zm1.063 1.945c-.023-.326-.046-.617-.046-.943 0-.315-.011-.63-.011-1.06v-.536c0-1.247-.532-1.782-1.804-1.782-.463 0-1.029.128-1.457.314l.034.944c.37-.28.833-.455 1.295-.455.648 0 .949.233.949.909h-.602c-.451 0-.994.035-1.41.245-.417.21-.717.57-.717 1.2 0 .803.728 1.258 1.468 1.258.497 0 1.041-.268 1.295-.734h.012c0 .128 0 .407.046.629h.96z"/><path id="PIR_Logo_Vector_28" fill="#00427A" d="M144.355 4.893c.197 0 .394.035.486.093V3.879c-.116-.035-.231-.035-.335-.035-.648 0-1.099.664-1.145 1.06h-.012V3.95h-.971v4.217h1.087v-1.55c0-.605 0-1.723.89-1.723"/><path id="PIR_Logo_Vector_29" fill="#00427A" d="M140.898 8.26c.324 0 .578-.035.809-.094l-.034-.873c-.116.07-.301.116-.497.116-.417 0-.509-.338-.509-.699V4.741h.971v-.803h-.971v-1.2l-1.087.35v.838h-.81v.804h.81v2.143c0 .84.474 1.363 1.33 1.363"/><path id="PIR_Logo_Vector_30" fill="#00427A" d="M136.481 5.114c0-.361.347-.466.647-.466.394 0 .648.07.972.175l.069-.827c-.347-.07-.671-.152-1.191-.152-.856 0-1.642.396-1.642 1.317 0 1.526 1.896.955 1.896 1.782 0 .408-.439.513-.716.513-.371 0-.729-.105-1.076-.28l-.069.897a5 5 0 0 0 1.237.175c.89 0 1.758-.396 1.758-1.375 0-1.526-1.897-1.095-1.897-1.77"/><path id="PIR_Logo_Vector_31" fill="#00427A" d="M133.474 8.155h1.03V3.938h-1.087v2.061c0 .536-.174 1.398-.96 1.398-.694 0-.706-.699-.706-1.211V3.938h-1.086v2.667c0 .955.427 1.654 1.422 1.654.566 0 1.041-.268 1.376-.675h.011z"/><path id="PIR_Logo_Vector_32" fill="#00427A" d="M127.982 5.941h-1.654l.821-2.365h.012zm2.07 2.213-2.232-5.72h-1.284l-2.208 5.72h1.179l.498-1.316h2.301l.485 1.316z"/><path id="PIR_Logo_Vector_33" fill="#00427A" d="M120.373 8.154h1.087V5.487c0-.956-.428-1.655-1.422-1.655-.567 0-1.041.268-1.318.676h-.012V2.015h-1.087v6.14h1.087V6.091c0-.535.174-1.398.96-1.398.694 0 .705.7.705 1.212z"/><path id="PIR_Logo_Vector_34" fill="#00427A" d="M116.153 8.26c.323 0 .578-.035.809-.094l-.035-.873c-.115.07-.3.116-.497.116-.416 0-.509-.338-.509-.699V4.741h.972v-.803h-.972v-1.2l-1.087.35v.838h-.809v.804h.809v2.143c0 .84.475 1.363 1.33 1.363"/><path id="PIR_Logo_Vector_35" fill="#00427A" d="M112.337 8.155h1.029V3.938h-1.087v2.061c0 .536-.173 1.398-.96 1.398-.694 0-.705-.699-.705-1.211V3.938h-1.087v2.667c0 .955.428 1.654 1.422 1.654.567 0 1.041-.268 1.376-.675h.012z"/><path id="PIR_Logo_Vector_36" fill="#00427A" d="M107.55 5.941c0 .71-.22 1.456-1.053 1.456-.832 0-1.052-.757-1.052-1.456 0-.629.347-1.258 1.052-1.258s1.053.606 1.053 1.258m1.133.14c0-1.398-.948-2.237-2.197-2.237s-2.186.839-2.186 2.237c0 1.211.81 2.178 2.186 2.178s2.197-.967 2.197-2.178"/><path id="PIR_Logo_Vector_37" fill="#00427A" d="M101.167 4.03c0-.617.509-.791.89-.791.382 0 .798.093 1.156.244l.104-.943a4.2 4.2 0 0 0-1.352-.21c-1.006 0-1.99.466-1.99 1.747 0 1.888 2.487 1.445 2.487 2.528 0 .513-.578.734-1.006.734s-.891-.14-1.284-.35l-.104 1.038c.555.14.833.221 1.457.221 1.145 0 2.128-.478 2.128-1.724 0-1.922-2.486-1.503-2.486-2.493"/><path id="PIR_Logo_Vector_38" fill="#00427A" d="m97.12 2.912.092-.908a4 4 0 0 0-.798-.093c-.867 0-1.33.594-1.33 1.433v.594h-.809v.803h.81v3.414h1.086V4.74h.949v-.803h-.949v-.525c0-.326.116-.652.474-.652.232 0 .37.093.475.151"/><path id="PIR_Logo_Vector_39" fill="#00427A" d="M92.702 5.941c0 .71-.22 1.456-1.052 1.456s-1.052-.757-1.052-1.456c0-.629.347-1.258 1.052-1.258s1.052.606 1.052 1.258m1.145.14c0-1.398-.948-2.237-2.197-2.237s-2.185.839-2.185 2.237c0 1.211.81 2.178 2.185 2.178s2.197-.967 2.197-2.178"/><path id="PIR_Logo_Vector_40" fill="#00427A" d="M86.019 8.26c.324 0 .578-.035.81-.094l-.035-.873c-.116.07-.301.116-.498.116-.416 0-.508-.338-.508-.699V4.741h.97v-.803h-.97v-1.2l-1.087.35v.838h-.81v.804h.81v2.143c0 .84.474 1.363 1.33 1.363"/><path id="PIR_Logo_Vector_41" fill="#00427A" d="M82.145 8.154h1.087V5.487c0-.956-.428-1.654-1.422-1.654-.567 0-1.03.186-1.376.675h-.012v-.57h-1.029v4.216h1.087V6.093c0-.536.174-1.398.96-1.398.705 0 .705.699.705 1.211z"/><path id="PIR_Logo_Vector_42" fill="#00427A" d="M77.508 5.638h-1.85c.046-.57.359-.99.972-.99.612 0 .855.454.89.99m1.03.746c0-1.48-.44-2.551-1.99-2.551-1.306 0-1.942 1.013-1.942 2.225 0 1.386.809 2.19 2.185 2.19.59 0 1.04-.117 1.434-.338v-.897c-.405.233-.867.43-1.388.43-.67 0-1.145-.384-1.19-1.06z"/><path id="PIR_Logo_Vector_43" fill="#00427A" d="M72.721 8.154h1.087V5.487c0-.944-.289-1.654-1.33-1.654-.508 0-1.052.233-1.306.745-.231-.524-.648-.745-1.237-.745-.405 0-.903.174-1.25.687h-.01v-.594h-1.019v4.217h1.087v-2.05c0-.548.093-1.422.81-1.422.624 0 .624.56.624.956v2.516h1.087v-2.05c0-.548.093-1.422.81-1.422.624 0 .624.56.624.956v2.516z"/><path id="PIR_Logo_Vector_44" fill="#00427A" d="M65.483 8.154h1.087V5.487c0-.956-.428-1.654-1.423-1.654-.566 0-1.029.186-1.376.675h-.011v-.57h-1.03v4.216h1.088V6.093c0-.536.173-1.398.96-1.398.693 0 .705.699.705 1.211z"/><path id="PIR_Logo_Vector_45" fill="#00427A" d="M61.435 4.893c.197 0 .394.035.486.093V3.879c-.115-.035-.231-.035-.335-.035-.648 0-1.099.664-1.145 1.06h-.012V3.95h-.97v4.217h1.086v-1.55c0-.605 0-1.723.89-1.723"/><path id="PIR_Logo_Vector_46" fill="#00427A" d="M57.562 5.638h-1.85c.046-.57.358-.99.97-.99.614 0 .857.454.891.99m1.03.746c0-1.48-.44-2.551-1.99-2.551-1.306 0-1.942 1.013-1.942 2.225 0 1.386.81 2.19 2.185 2.19.59 0 1.041-.117 1.434-.338v-.897c-.404.233-.867.43-1.387.43-.671 0-1.145-.384-1.191-1.06z"/><path id="PIR_Logo_Vector_47" fill="#00427A" d="M52.752 8.155 54.3 3.938h-1.099l-1.006 3.075h-.011l-1.04-3.075h-1.18l1.56 4.217z"/><path id="PIR_Logo_Vector_48" fill="#00427A" d="M48.462 5.941c0 .71-.22 1.456-1.053 1.456-.832 0-1.052-.757-1.052-1.456 0-.629.347-1.258 1.052-1.258s1.053.606 1.053 1.258m1.133.14c0-1.398-.948-2.237-2.197-2.237s-2.186.839-2.186 2.237c0 1.211.81 2.178 2.186 2.178s2.197-.967 2.197-2.178"/><path id="PIR_Logo_Vector_49" fill="#00427A" d="M42.564 8.26c.613 0 1.237-.129 1.839-.292V4.893h-2.29v.897h1.203v1.49c-.197.047-.44.082-.752.082-1.214 0-1.93-.873-1.93-2.038s.728-2.074 2.057-2.074c.451 0 1.03.093 1.469.303l.07-.967c-.486-.151-1.007-.233-1.666-.233-1.93 0-3.11 1.095-3.11 3.052s1.272 2.854 3.11 2.854"/><path id="PIR_Logo_Vector_50" fill="#878787" d="M157.85 11.824H39.304v1.247H157.85z"/><path id="PIR_Logo_Vector_51" fill="#00427A" d="M39.708 16.181h1.41c2.036 0 2.845 1.177 2.845 2.854 0 2.074-1.376 2.866-3.249 2.866h-.994v-5.72zm.555 5.23h.463c1.607 0 2.66-.652 2.66-2.41 0-1.76-1.03-2.33-2.302-2.33h-.82z"/><path id="PIR_Logo_Vector_52" fill="#00427A" d="M47.907 21.773a3.3 3.3 0 0 1-1.203.233c-1.376 0-1.885-.932-1.885-2.19s.706-2.19 1.746-2.19c1.168 0 1.654.955 1.654 2.073v.268h-2.845c0 .885.474 1.596 1.365 1.596.37 0 .913-.151 1.168-.315zm-.255-2.249c0-.734-.289-1.456-1.052-1.456s-1.226.757-1.226 1.456z"/><path id="PIR_Logo_Vector_53" fill="#00427A" d="M49.132 17.73h.509l-.035.758h.012c.127-.233.45-.863 1.33-.863 1.225 0 1.711.92 1.711 2.19s-.567 2.19-1.711 2.19c-.648 0-1.041-.267-1.295-.815h-.012v2.435h-.509zm1.746.338c-.913 0-1.225.979-1.225 1.748 0 .768.312 1.747 1.225 1.747.972 0 1.226-.932 1.226-1.747s-.254-1.748-1.226-1.748"/><path id="PIR_Logo_Vector_54" fill="#00427A" d="M56.093 21.237h-.011c-.232.5-.81.769-1.319.769-1.179 0-1.364-.804-1.364-1.177 0-1.398 1.48-1.468 2.556-1.468h.092v-.21c0-.71-.254-1.071-.948-1.071-.428 0-.833.093-1.226.35v-.502c.312-.151.856-.29 1.226-.29 1.029 0 1.457.465 1.457 1.56v1.84c0 .339 0 .595.046.875h-.509zm-.058-1.433h-.15c-.89 0-1.942.093-1.942 1.014 0 .547.393.757.867.757 1.202 0 1.225-1.06 1.225-1.503v-.268"/><path id="PIR_Logo_Vector_55" fill="#00427A" d="M57.77 18.662c0-.454 0-.629-.035-.932h.509v.804h.012c.185-.466.532-.897 1.063-.897.128 0 .266.023.359.047v.536a1.2 1.2 0 0 0-.37-.047c-.81 0-1.03.92-1.03 1.678v2.062h-.508z"/><path id="PIR_Logo_Vector_56" fill="#00427A" d="M62.268 18.173h-.948v2.703c0 .372.139.687.555.687.196 0 .324-.047.474-.093l.035.43c-.128.047-.37.117-.625.117-.913 0-.948-.629-.948-1.398v-2.446h-.81v-.443h.81v-1.013l.509-.175v1.188h.948z"/><path id="PIR_Logo_Vector_57" fill="#00427A" d="M68.188 21.9v-2.772c0-.594-.22-1.06-.879-1.06-.566 0-1.11.49-1.11 1.526v2.307h-.508v-2.773c0-.594-.22-1.06-.88-1.06-.566 0-1.11.49-1.11 1.526v2.307h-.508v-3.192c0-.315 0-.652-.035-.979h.498v.7h.011c.162-.28.405-.805 1.295-.805.37 0 .971.152 1.099.886h.011c.185-.49.67-.886 1.33-.886.833 0 1.307.595 1.307 1.398v2.878h-.52"/><path id="PIR_Logo_Vector_58" fill="#00427A" d="M72.733 21.773a3.3 3.3 0 0 1-1.203.233c-1.376 0-1.885-.932-1.885-2.19s.706-2.19 1.746-2.19c1.168 0 1.654.955 1.654 2.073v.268H70.2c0 .885.474 1.596 1.365 1.596.37 0 .913-.151 1.168-.315zm-.255-2.249c0-.734-.289-1.456-1.052-1.456s-1.226.757-1.226 1.456z"/><path id="PIR_Logo_Vector_59" fill="#00427A" d="M74.016 18.709c0-.315 0-.652-.034-.979h.497v.746h.011c.174-.373.486-.839 1.342-.839 1.029 0 1.41.688 1.41 1.608v2.668h-.508v-2.54c0-.792-.278-1.293-.983-1.293-.937 0-1.226.827-1.226 1.526v2.307h-.509v-3.204"/><path id="PIR_Logo_Vector_60" fill="#00427A" d="M80.33 18.173h-.948v2.703c0 .372.138.687.555.687.196 0 .323-.047.474-.093l.034.43c-.127.047-.37.117-.624.117-.913 0-.948-.629-.948-1.398v-2.446h-.81v-.443h.81v-1.013l.509-.175v1.188h.948z"/><path id="PIR_Logo_Vector_61" fill="#00427A" d="M85.117 17.626c1.341 0 1.931 1.048 1.931 2.19s-.59 2.19-1.931 2.19-1.931-1.049-1.931-2.19.59-2.19 1.931-2.19m0 3.937c.89 0 1.376-.78 1.376-1.747s-.486-1.748-1.376-1.748-1.376.78-1.376 1.748c0 .966.486 1.747 1.376 1.747"/><path id="PIR_Logo_Vector_62" fill="#00427A" d="M88.378 18.173h-.833v-.443h.833v-.303c0-.873.034-1.758 1.098-1.758.162 0 .382.023.486.081l-.035.454a.9.9 0 0 0-.405-.093c-.693 0-.624.757-.624 1.258v.361h.937v.443h-.937v3.74h-.509v-3.74z"/><path id="PIR_Logo_Vector_63" fill="#00427A" d="M93.05 16.181h1.398c1.064 0 1.758.536 1.758 1.62 0 1.083-.798 1.619-1.815 1.619h-.787v2.47h-.566v-5.72zm.554 2.761h.394c.844 0 1.641-.093 1.641-1.13 0-.722-.404-1.13-1.121-1.13h-.914z"/><path id="PIR_Logo_Vector_64" fill="#00427A" d="M97.05 18.662c0-.454 0-.629-.034-.932h.508v.804h.012c.185-.466.532-.897 1.064-.897.127 0 .266.023.358.047v.536a1.2 1.2 0 0 0-.37-.047c-.81 0-1.029.92-1.029 1.678v2.062h-.509z"/><path id="PIR_Logo_Vector_65" fill="#00427A" d="M100.276 16.612h-.508v-.687h.508zm-.52 1.119h.509v4.182h-.509z"/><path id="PIR_Logo_Vector_66" fill="#00427A" d="M106.578 21.9v-2.772c0-.594-.219-1.06-.878-1.06-.567 0-1.111.49-1.111 1.526v2.307h-.508v-2.773c0-.594-.22-1.06-.879-1.06-.567 0-1.11.49-1.11 1.526v2.307h-.509v-3.192c0-.315 0-.652-.035-.979h.498v.7h.011c.162-.28.405-.805 1.295-.805.37 0 .972.152 1.099.886h.011c.185-.49.671-.886 1.33-.886.833 0 1.307.595 1.307 1.398v2.878h-.521"/><path id="PIR_Logo_Vector_67" fill="#00427A" d="M110.718 21.237h-.012c-.231.5-.809.769-1.318.769-1.179 0-1.364-.804-1.364-1.177 0-1.398 1.48-1.468 2.555-1.468h.093v-.21c0-.71-.255-1.071-.949-1.071-.427 0-.832.093-1.225.35v-.502c.312-.151.855-.29 1.225-.29 1.03 0 1.457.465 1.457 1.56v1.84c0 .339 0 .595.047.875h-.509zm-.046-1.433h-.151c-.89 0-1.942.093-1.942 1.014 0 .547.393.757.867.757 1.203 0 1.226-1.06 1.226-1.503v-.268"/><path id="PIR_Logo_Vector_68" fill="#00427A" d="M112.395 18.662c0-.454 0-.629-.035-.932h.509v.804h.011c.185-.466.532-.897 1.064-.897.127 0 .266.023.358.047v.536a1.2 1.2 0 0 0-.37-.047c-.809 0-1.029.92-1.029 1.678v2.062h-.508z"/><path id="PIR_Logo_Vector_69" fill="#00427A" d="m116.257 21.214 1.191-3.484h.532l-1.654 4.8c-.196.57-.486 1.142-1.064 1.142a2.2 2.2 0 0 1-.555-.07l.046-.443a1 1 0 0 0 .382.07c.439 0 .59-.373.752-.909l.104-.372-1.469-4.23h.567l1.168 3.484z"/><path id="PIR_Logo_Vector_70" fill="#00427A" d="M120.963 16.181h.567v5.72h-.567z"/><path id="PIR_Logo_Vector_71" fill="#00427A" d="M122.778 18.709c0-.315 0-.652-.034-.979h.497v.746h.011c.174-.373.486-.839 1.342-.839 1.029 0 1.41.688 1.41 1.608v2.668h-.508v-2.54c0-.792-.278-1.293-.983-1.293-.937 0-1.226.827-1.226 1.526v2.307h-.509v-3.204"/><path id="PIR_Logo_Vector_72" fill="#00427A" d="M130.584 21.9h-.509v-.663h-.012c-.277.536-.705.757-1.295.757-1.145 0-1.711-.955-1.711-2.19s.485-2.19 1.711-2.19c.81 0 1.214.594 1.295.804h.012V15.75h.509zm-1.735-.337c.914 0 1.226-.979 1.226-1.747 0-.77-.312-1.748-1.226-1.748-.971 0-1.226.932-1.226 1.748 0 .815.255 1.747 1.226 1.747"/><path id="PIR_Logo_Vector_73" fill="#00427A" d="M135.059 20.922c0 .315 0 .653.034.979h-.497v-.746h-.012c-.173.373-.485.84-1.341.84-1.029 0-1.411-.688-1.411-1.608v-2.668h.509v2.54c0 .791.278 1.292.983 1.292.937 0 1.226-.827 1.226-1.526V17.72h.509v3.203"/><path id="PIR_Logo_Vector_74" fill="#00427A" d="M136.018 21.295c.312.151.682.268 1.087.268.486 0 .914-.268.914-.746 0-.99-1.989-.838-1.989-2.05 0-.827.67-1.142 1.353-1.142.219 0 .659.047 1.029.187l-.046.454a2.3 2.3 0 0 0-.914-.198c-.532 0-.89.163-.89.7 0 .78 2.046.675 2.046 2.05 0 .885-.821 1.188-1.445 1.188-.393 0-.798-.047-1.168-.198l.046-.513z"/><path id="PIR_Logo_Vector_75" fill="#00427A" d="M141.291 18.173h-.948v2.703c0 .372.139.687.555.687.197 0 .324-.047.474-.093l.035.43c-.127.047-.37.117-.625.117-.913 0-.948-.629-.948-1.398v-2.446h-.809v-.443h.809v-1.013l.509-.175v1.188h.948z"/><path id="PIR_Logo_Vector_76" fill="#00427A" d="M142.205 18.662c0-.454 0-.629-.035-.932h.509v.804h.011c.185-.466.532-.897 1.064-.897.127 0 .266.023.359.047v.536a1.2 1.2 0 0 0-.37-.047c-.81 0-1.03.92-1.03 1.678v2.062h-.508z"/><path id="PIR_Logo_Vector_77" fill="#00427A" d="M145.431 16.612h-.509v-.687h.509zm-.521 1.119h.509v4.182h-.509z"/><path id="PIR_Logo_Vector_78" fill="#00427A" d="M149.501 21.773a3.3 3.3 0 0 1-1.203.233c-1.376 0-1.884-.932-1.884-2.19s.705-2.19 1.746-2.19c1.168 0 1.653.955 1.653 2.073v.268h-2.844c0 .885.474 1.596 1.364 1.596.37 0 .914-.151 1.168-.315zm-.254-2.249c0-.734-.289-1.456-1.053-1.456-.763 0-1.225.757-1.225 1.456z"/><path id="PIR_Logo_Vector_79" fill="#00427A" d="M150.461 21.295c.312.151.682.268 1.087.268.485 0 .913-.268.913-.746 0-.99-1.989-.838-1.989-2.05 0-.827.671-1.142 1.353-1.142.22 0 .659.047 1.029.187l-.046.454a2.3 2.3 0 0 0-.913-.198c-.532 0-.891.163-.891.7 0 .78 2.047.675 2.047 2.05 0 .885-.821 1.188-1.445 1.188-.394 0-.798-.047-1.168-.198l.046-.513z"/><path id="PIR_Logo_Vector_80" fill="#00427A" d="M42.079 29.426h-.012c-.231.501-.81.77-1.318.77-1.18 0-1.365-.805-1.365-1.178 0-1.397 1.48-1.467 2.556-1.467h.092v-.21c0-.71-.254-1.072-.948-1.072-.428 0-.832.094-1.226.338v-.5c.313-.152.856-.292 1.226-.292 1.03 0 1.457.466 1.457 1.561v1.84c0 .338 0 .595.046.874h-.508v-.675zm-.047-1.433h-.15c-.89 0-1.943.094-1.943 1.014 0 .547.394.757.868.757 1.202 0 1.225-1.06 1.225-1.503v-.268"/><path id="PIR_Logo_Vector_81" fill="#00427A" d="M43.767 26.898c0-.314 0-.652-.035-.978h.497v.745h.012c.173-.372.486-.838 1.341-.838 1.03 0 1.411.687 1.411 1.607v2.668h-.509v-2.54c0-.78-.277-1.293-.983-1.293-.936 0-1.225.827-1.225 1.526v2.307h-.51v-3.204"/><path id="PIR_Logo_Vector_82" fill="#00427A" d="M51.572 30.09h-.509v-.664h-.011c-.278.536-.706.758-1.295.758-1.145 0-1.712-.956-1.712-2.19 0-1.235.486-2.19 1.712-2.19.809 0 1.214.594 1.295.803h.011V23.94h.509zm-1.746-.337c.913 0 1.226-.98 1.226-1.748 0-.769-.313-1.747-1.226-1.747-.971 0-1.226.932-1.226 1.747s.255 1.748 1.226 1.748"/><path id="PIR_Logo_Vector_83" fill="#00427A" d="M55.134 24.37h1.468c1.006 0 1.665.432 1.665 1.48 0 .734-.566 1.223-1.26 1.316.45.07.555.315.728.7l.972 2.213h-.613l-.821-1.934c-.324-.734-.567-.757-1.11-.757H55.7v2.69h-.567v-5.72zm.566 2.54h.59c.659 0 1.41-.256 1.41-1.048 0-.932-.659-.99-1.433-.99h-.578v2.038z"/><path id="PIR_Logo_Vector_84" fill="#00427A" d="M62.36 29.962a3.3 3.3 0 0 1-1.202.233c-1.376 0-1.885-.932-1.885-2.19s.705-2.19 1.746-2.19c1.168 0 1.654.955 1.654 2.073v.268h-2.845c0 .886.474 1.596 1.365 1.596.37 0 .913-.151 1.168-.314zm-.254-2.248c0-.734-.289-1.456-1.052-1.456s-1.226.757-1.226 1.456z"/><path id="PIR_Logo_Vector_85" fill="#00427A" d="M66.928 29.753c0 1.164-.52 2.12-1.943 2.12-.543 0-1.04-.152-1.248-.222l.046-.512a2.8 2.8 0 0 0 1.225.291c1.319 0 1.434-.967 1.434-2.143h-.011c-.278.605-.729.815-1.26.815-1.33 0-1.747-1.165-1.747-2.085 0-1.27.486-2.19 1.712-2.19.555 0 .913.07 1.295.57h.011v-.477h.51v3.832zm-1.77-.105c.926 0 1.261-.886 1.261-1.643 0-1.013-.289-1.747-1.225-1.747s-1.226.932-1.226 1.747.324 1.643 1.19 1.643"/><path id="PIR_Logo_Vector_86" fill="#00427A" d="M68.674 24.802h-.509v-.688h.51zm-.509 1.118h.51v4.182h-.51z"/><path id="PIR_Logo_Vector_87" fill="#00427A" d="M71.588 25.815c1.341 0 1.931 1.048 1.931 2.19s-.59 2.19-1.931 2.19-1.931-1.048-1.931-2.19.59-2.19 1.93-2.19m0 3.937c.89 0 1.376-.78 1.376-1.747s-.486-1.747-1.376-1.747-1.376.78-1.376 1.747.486 1.747 1.376 1.747"/><path id="PIR_Logo_Vector_88" fill="#00427A" d="M74.49 26.898c0-.314 0-.652-.034-.978h.497v.745h.011c.174-.372.486-.838 1.342-.838 1.029 0 1.41.687 1.41 1.607v2.668h-.508v-2.54c0-.78-.278-1.293-.983-1.293-.937 0-1.226.827-1.226 1.526v2.307h-.509v-3.204"/><path id="PIR_Logo_Vector_89" fill="#00427A" d="M78.688 29.484c.312.152.682.257 1.087.257.485 0 .913-.268.913-.746 0-.99-1.989-.839-1.989-2.05 0-.827.671-1.142 1.353-1.142.22 0 .66.047 1.03.187l-.047.454a2.3 2.3 0 0 0-.913-.198c-.532 0-.89.163-.89.699 0 .78 2.046.675 2.046 2.05 0 .886-.821 1.188-1.445 1.188-.394 0-.798-.046-1.168-.198l.046-.512z"/></g><defs><clipPath id="clip0_2737_1369"><path fill="#fff" d="M0 0h158v33.026H0z"/></clipPath></defs></svg>