<svg xmlns="http://www.w3.org/2000/svg" viewBox="0 0 53.42 52.09"><g id="af49b3e0-9d44-449d-9e9f-17925e9b532d" data-name="Layer 2"><g id="bf9fcf77-0247-4965-99eb-f4ee88f13bf0" data-name="Marine copy"><g id="b0b569a9-936f-4c51-9dbb-78ec160d24fb" data-name="Layer 120 copy"><path d="M51.92 42.46c-3.22 0-4.86-2-6.19-3.54s-2.15-2.46-3.89-2.46-2.57.89-3.89 2.46-3 3.54-6.19 3.54-4.87-2-6.19-3.54-2.16-2.46-3.89-2.46-2.57.89-3.9 2.46-3 3.54-6.19 3.54-4.87-2-6.19-3.54-2.16-2.46-3.9-2.46a1.5 1.5 0 0 1 0-3c3.22 0 4.87 2 6.2 3.53s2.15 2.47 3.89 2.47 2.57-.89 3.9-2.47 3-3.53 6.19-3.53 4.86 2 6.19 3.53 2.15 2.47 3.89 2.47 2.57-.89 3.89-2.47 3-3.53 6.19-3.53 4.87 2 6.19 3.53 2.15 2.47 3.89 2.47a1.5 1.5 0 0 1 0 3M51.92 52.09c-3.22 0-4.86-2-6.19-3.54s-2.15-2.46-3.89-2.46-2.57.91-3.84 2.46-3 3.54-6.19 3.54-4.87-2-6.19-3.54-2.16-2.46-3.89-2.46-2.57.89-3.9 2.47-3 3.53-6.19 3.53-4.87-2-6.19-3.54-2.16-2.46-3.9-2.46a1.5 1.5 0 0 1 0-3c3.22 0 4.87 2 6.2 3.53s2.15 2.47 3.89 2.47 2.57-.89 3.9-2.47 3-3.53 6.19-3.53 4.86 2 6.19 3.53 2.15 2.47 3.89 2.47 2.57-.89 3.89-2.47 3-3.53 6.19-3.53 4.87 2 6.19 3.53 2.15 2.47 3.89 2.47a1.5 1.5 0 0 1 0 3ZM51.92 33.43a1.4 1.4 0 0 1-.34 0 7.8 7.8 0 0 1-4.22-2.79c-1.3-1.43-2.53-2.78-6.63-3.06-4.92-.33-8.6-2.61-10.09-6.24a9.14 9.14 0 0 1 1.54-9.47 8.47 8.47 0 0 1 8.89-2.35 7.5 7.5 0 0 1 2.76 1.65A7.5 7.5 0 0 0 42.34 7a10.54 10.54 0 0 0-8.71-4c-10.21 0-16.41 7.38-20.18 12.93C4.38 29.29 2.36 29 1.28 28.83a1.5 1.5 0 0 1 .22-3c.41-.18 2.63-1.56 9.45-11.59C13.36 10.72 20.65 0 33.63 0a13.52 13.52 0 0 1 11.13 5.21 10.1 10.1 0 0 1 1.63 9.05A1.77 1.77 0 0 1 45 15.49a1.91 1.91 0 0 1-1.85-.79 7.76 7.76 0 0 0-2.82-2.32 5.48 5.48 0 0 0-5.85 1.44 6.2 6.2 0 0 0-1 6.34c1.06 2.57 3.73 4.13 7.53 4.39 5.29.36 7.15 2.4 8.64 4a4.94 4.94 0 0 0 2.68 1.89 1.5 1.5 0 0 1-.34 3Zm-50.2-7.57"/></g></g></g></svg>