<svg width="126" height="194" viewBox="0 0 126 194" fill="none" xmlns="http://www.w3.org/2000/svg">
<rect width="126" height="194" fill="#00325B"></rect>
<g clip-path="url('#clip0_2011_27964')">
<path d="M40.7246 175.878H43.3776V175.703C42.7158 175.686 42.4972 175.604 42.4972 174.917V171.008C42.4972 170.304 42.7217 170.251 43.3776 170.222V170.053H40.7246V170.222C41.4632 170.257 41.5932 170.362 41.5932 171.008V174.917C41.5932 175.54 41.475 175.686 40.7246 175.703V175.878Z" fill="white"></path>
<path d="M49.8652 170.059H47.7677V170.233C48.3763 170.274 48.6185 170.344 48.6185 171.352V174.287H48.6008L45.1856 170.059H43.6553V170.233C44.0098 170.233 44.1516 170.274 44.5179 170.717V174.596C44.5179 175.545 44.3348 175.674 43.6553 175.714V175.883H45.7528V175.714C45.097 175.691 44.9138 175.499 44.9138 174.596V171.159H44.9315L48.8667 175.982H49.0085V171.352C49.0085 170.321 49.298 170.286 49.8652 170.233V170.059Z" fill="white"></path>
<path d="M54.0308 169.931H53.8476C53.8299 170.024 53.7885 170.234 53.5344 170.234C53.3099 170.234 52.8254 169.931 52.2877 169.931C51.4901 169.931 50.6806 170.432 50.6806 171.422C50.6806 172.295 51.2537 172.68 52.075 173.146C53.3867 173.915 53.5285 174.2 53.5285 174.707C53.5285 175.179 53.1681 175.685 52.4591 175.685C51.2537 175.685 50.7988 174.532 50.6333 174.124H50.4265L50.6924 175.988H50.8815C50.8815 175.849 50.9819 175.703 51.1651 175.703C51.431 175.703 51.8682 175.994 52.5477 175.994C53.824 175.994 54.4326 175.155 54.4326 174.398C54.4326 172.598 51.4546 172.418 51.4546 171.113C51.4546 170.56 51.9037 170.286 52.3586 170.286C53.2863 170.286 53.8594 171.072 54.013 171.806H54.2376L54.0367 169.925L54.0308 169.931Z" fill="white"></path>
<path d="M59.0708 175.709C58.3263 175.686 58.2199 175.523 58.2199 174.923V170.426H58.6985C59.6794 170.426 59.9334 170.589 60.1166 171.562H60.3293L60.2761 170.053H55.2302L55.177 171.562H55.3897C55.5788 170.595 55.8329 170.426 56.8078 170.426H57.2864V174.824C57.2864 175.476 57.2627 175.674 56.4474 175.709V175.884H59.0531V175.709H59.0708Z" fill="white"></path>
<path d="M60.7017 175.878H63.3487V175.703C62.687 175.686 62.4802 175.604 62.4802 174.917V171.008C62.4802 170.304 62.6929 170.251 63.3487 170.222V170.053H60.7017V170.222C61.4402 170.257 61.5643 170.362 61.5643 171.008V174.917C61.5643 175.54 61.458 175.686 60.7017 175.703V175.878Z" fill="white"></path>
<path d="M67.5614 175.709C66.8051 175.686 66.6988 175.523 66.6988 174.923V170.426H67.1892C68.1641 170.426 68.4182 170.589 68.6073 171.562H68.8141L68.7668 170.053H63.7268L63.6736 171.562H63.8804C64.0872 170.595 64.3294 170.426 65.2985 170.426H65.7889V174.824C65.7889 175.476 65.7593 175.674 64.9439 175.709V175.884H67.5555V175.709H67.5614Z" fill="white"></path>
<path d="M75.3076 170.059H73.2336V170.234C73.8659 170.263 74.0727 170.414 74.0727 171.352V173.734C74.0727 174.445 73.9781 174.73 73.8718 174.928C73.6059 175.336 73.0977 175.622 72.4123 175.622C70.8525 175.622 70.8525 174.404 70.8525 173.828V171.014C70.8525 170.391 70.9588 170.28 71.656 170.228V170.053H69.1331V170.228C69.8125 170.269 69.9366 170.368 69.9366 171.014V173.764C69.9366 174.288 69.9366 176.006 72.1524 176.006C74.3681 176.006 74.4567 174.352 74.4567 173.641V171.352C74.4567 170.426 74.6163 170.298 75.3017 170.234V170.059H75.3076Z" fill="white"></path>
<path d="M79.5383 175.709C78.7938 175.686 78.6816 175.523 78.6816 174.923V170.426H79.1602C80.141 170.426 80.3892 170.589 80.5782 171.562H80.785L80.7259 170.053H75.7036L75.6445 171.562H75.8572C76.0581 170.595 76.2945 170.426 77.2753 170.426H77.7539V174.824C77.7539 175.476 77.7303 175.674 76.9149 175.709V175.884H79.5206V175.709H79.5383Z" fill="white"></path>
<path d="M86.3271 174.392H86.079C85.6831 175.283 85.2399 175.545 84.1291 175.545C83.2389 175.545 82.7938 175.419 82.7938 175.167V172.994L84.1705 173.012C84.909 173.018 85.0449 173.152 85.1454 173.856H85.3581V171.812H85.1454C85.0568 172.441 84.9622 172.645 84.1705 172.645H82.7938V170.699C82.7938 170.396 82.9001 170.396 83.0951 170.396H84.3005C85.2872 170.396 85.5176 170.536 85.6535 171.323H85.8781L85.8426 170.064H81.1157V170.228C81.677 170.28 81.8838 170.332 81.8838 171.031V174.934C81.8838 175.61 81.6829 175.685 81.1157 175.726V175.883H85.9372L86.333 174.404L86.3271 174.392Z" fill="white"></path>
<path d="M22.7268 127.871H22.5377C22.52 127.97 22.4727 128.173 22.2246 128.173C22.0119 128.173 21.5155 127.871 20.9897 127.871C20.192 127.871 19.3707 128.36 19.3707 129.356C19.3707 130.241 19.9439 130.626 20.7652 131.08C22.0769 131.837 22.2187 132.134 22.2187 132.641C22.2187 133.113 21.8642 133.625 21.1492 133.625C19.9498 133.625 19.5007 132.472 19.3235 132.064H19.1226L19.3766 133.928H19.5775C19.5775 133.788 19.6721 133.643 19.8611 133.643C20.1211 133.643 20.5702 133.94 21.2497 133.94C22.52 133.94 23.1227 133.095 23.1227 132.344C23.1227 130.544 20.1447 130.364 20.1447 129.047C20.1447 128.505 20.6056 128.232 21.0429 128.232C21.9882 128.232 22.5496 129.024 22.7091 129.746H22.9218L22.7327 127.871H22.7268Z" fill="white"></path>
<path d="M29.8704 130.917C29.8704 128.896 28.4169 127.882 26.9574 127.882C25.498 127.882 24.0386 128.896 24.0386 130.917C24.0386 132.798 25.3385 133.94 26.9574 133.94C28.5764 133.94 29.8704 132.793 29.8704 130.917ZM28.8482 130.905C28.8482 132.845 27.9442 133.62 26.9574 133.62C25.9707 133.62 25.0489 132.839 25.0489 130.905C25.0489 128.972 26.0475 128.179 26.9574 128.179C27.8674 128.179 28.8482 128.89 28.8482 130.905Z" fill="white"></path>
<path d="M36.5175 127.993H34.4436V128.168C35.0758 128.197 35.2826 128.348 35.2826 129.286V131.668C35.2826 132.379 35.1881 132.665 35.0817 132.863C34.8158 133.27 34.3195 133.556 33.6223 133.556C32.0624 133.556 32.0624 132.333 32.0624 131.762V128.948C32.0624 128.325 32.1747 128.214 32.8719 128.162V127.987H30.343V128.162C31.0225 128.203 31.1584 128.302 31.1584 128.948V131.698C31.1584 132.222 31.1584 133.94 33.3682 133.94C35.578 133.94 35.6726 132.28 35.6726 131.575V129.286C35.6726 128.366 35.8321 128.232 36.5175 128.168V127.993Z" fill="white"></path>
<path d="M40.7482 133.649C40.0037 133.626 39.8914 133.463 39.8914 132.863V128.366H40.3759C41.3568 128.366 41.6049 128.529 41.794 129.502H42.0067L41.9417 127.993H36.9135L36.8662 129.502H37.0789C37.268 128.535 37.5162 128.366 38.497 128.366H38.9756V132.764C38.9756 133.416 38.952 133.614 38.1366 133.649V133.818H40.7423V133.649H40.7482Z" fill="white"></path>
<path d="M42.3789 133.818H44.8546V133.649C44.1574 133.608 44.0629 133.445 44.0629 132.863V131.045H46.7749V132.764C46.7749 133.422 46.7336 133.614 45.9832 133.649V133.818H48.4648V133.649C47.7676 133.608 47.6848 133.445 47.6848 132.863V128.954C47.6848 128.331 47.7853 128.22 48.4648 128.168V127.999H45.9832V128.168C46.6449 128.22 46.7749 128.308 46.7749 128.954V130.667H44.0629V128.954C44.0629 128.331 44.181 128.22 44.8546 128.168V127.999H42.3789V128.168C43.0348 128.22 43.1588 128.308 43.1588 128.954V132.769C43.1588 133.428 43.1293 133.62 42.3789 133.655V133.824V133.818Z" fill="white"></path>
<path d="M52.3822 131.564L53.4103 129.14L54.4443 131.564H52.3822ZM56.7487 133.655C56.3528 133.631 56.2346 133.526 55.9451 132.886L53.7294 127.888H53.5462L51.685 132.204C51.5136 132.595 51.2359 133.235 51.0291 133.457C50.8696 133.631 50.7219 133.643 50.5801 133.655V133.818H52.3468V133.655C52.1577 133.655 51.7323 133.655 51.7323 133.288C51.7323 133.183 51.7677 133.066 51.8091 132.95L52.2109 131.919H54.5507L54.917 132.763C54.9761 132.886 55.0824 133.171 55.0824 133.317C55.0824 133.643 54.7988 133.655 54.4679 133.655V133.818H56.7428V133.655H56.7487Z" fill="white"></path>
<path d="M62.7342 127.993H60.6662V128.168C61.2925 128.197 61.5052 128.348 61.5052 129.286V131.668C61.5052 132.379 61.4106 132.665 61.2984 132.863C61.0384 133.27 60.5362 133.556 59.8389 133.556C58.285 133.556 58.285 132.333 58.285 131.762V128.948C58.285 128.325 58.3913 128.214 59.1004 128.162V127.987H56.5774V128.162C57.251 128.203 57.3751 128.302 57.3751 128.948V131.698C57.3751 132.222 57.3751 133.94 59.579 133.94C61.9011 133.94 61.9011 132.28 61.9011 131.575V129.286C61.9011 128.366 62.0429 128.232 62.7283 128.168V127.993H62.7342Z" fill="white"></path>
<path d="M66.9233 127.871H66.7402C66.7225 127.97 66.6752 128.173 66.427 128.173C66.2025 128.173 65.718 127.871 65.1803 127.871C64.3826 127.871 63.5732 128.36 63.5732 129.356C63.5732 130.241 64.1404 130.626 64.9676 131.08C66.2675 131.837 66.4211 132.134 66.4211 132.641C66.4211 133.113 66.0607 133.625 65.3517 133.625C64.1404 133.625 63.6913 132.472 63.5259 132.064H63.3191L63.585 133.928H63.7741C63.7741 133.788 63.8745 133.643 64.0577 133.643C64.3236 133.643 64.7667 133.94 65.4462 133.94C66.7225 133.94 67.3192 133.095 67.3192 132.344C67.3192 130.544 64.3413 130.364 64.3413 129.047C64.3413 128.505 64.7962 128.232 65.2453 128.232C66.1848 128.232 66.7579 129.024 66.9056 129.746H67.1302L66.9293 127.871H66.9233Z" fill="white"></path>
<path d="M71.9634 133.649C71.2189 133.626 71.1007 133.463 71.1007 132.863V128.366H71.5852C72.566 128.366 72.8142 128.529 73.0033 129.502H73.2101L73.1569 127.993H68.1287L68.0696 129.502H68.2823C68.4832 128.535 68.7195 128.366 69.6944 128.366H70.1849V132.764C70.1849 133.416 70.1612 133.614 69.3458 133.649V133.818H71.9515V133.649H71.9634Z" fill="white"></path>
<path d="M75.2427 128.64C75.2427 128.383 75.3254 128.319 75.7981 128.319C76.1644 128.319 77.3343 128.343 77.3343 129.513C77.3343 130.772 75.9872 130.789 75.2427 130.807V128.64ZM79.3078 133.649C78.9415 133.631 78.717 133.474 78.5279 133.241L76.6844 131.016C77.1394 130.923 78.2974 130.719 78.2974 129.537C78.2974 128.185 76.8321 127.999 76.0344 127.999H73.5706V128.162C74.191 128.226 74.3328 128.308 74.3328 128.966V132.764C74.3328 133.428 74.2914 133.614 73.5706 133.655V133.818H76.0344V133.655C75.3195 133.626 75.2368 133.451 75.2368 132.868V131.133L75.739 131.115L77.8661 133.818H79.3019V133.655L79.3078 133.649Z" fill="white"></path>
<path d="M81.3462 131.564L82.3743 129.14L83.4024 131.564H81.3462ZM85.7185 133.655C85.3227 133.631 85.2045 133.526 84.915 132.886L82.6992 127.888H82.5161L80.6608 132.204C80.4953 132.595 80.2235 133.235 80.0167 133.457C79.8572 133.631 79.7036 133.643 79.5618 133.655V133.818H81.3284V133.655C81.1394 133.655 80.7139 133.655 80.7139 133.288C80.7139 133.183 80.7435 133.066 80.7908 132.95L81.2044 131.919H83.5383L83.9046 132.763C83.9637 132.886 84.0759 133.171 84.0759 133.317C84.0759 133.643 83.7864 133.655 83.4555 133.655V133.818H85.7304V133.655H85.7185Z" fill="white"></path>
<path d="M88.5312 127.993H86.02V128.168C86.5813 128.209 86.7881 128.255 86.7881 128.954V132.863C86.7881 133.532 86.5872 133.614 86.02 133.649V133.818H90.8237L91.2491 132.28H91.0246C90.5165 133.439 89.9433 133.474 88.608 133.474C87.8635 133.474 87.704 133.468 87.704 133.113V128.948C87.704 128.255 87.9344 128.197 88.5312 128.162V127.987V127.993Z" fill="white"></path>
<path d="M91.5623 133.818H94.2152V133.649C93.5535 133.631 93.3348 133.55 93.3348 132.863V128.954C93.3348 128.249 93.5594 128.197 94.2152 128.168V127.999H91.5623V128.168C92.3008 128.203 92.4308 128.308 92.4308 128.954V132.863C92.4308 133.486 92.3126 133.631 91.5623 133.649V133.818Z" fill="white"></path>
<path d="M96.3245 131.564L97.3526 129.14L98.3866 131.564H96.3245ZM100.685 133.655C100.295 133.631 100.183 133.526 99.8874 132.886L97.6717 127.888H97.4885L95.6332 132.204C95.456 132.595 95.1901 133.235 94.9774 133.457C94.8237 133.631 94.6701 133.643 94.5283 133.655V133.818H96.295V133.655C96.1059 133.655 95.6864 133.655 95.6864 133.288C95.6864 133.183 95.71 133.066 95.7514 132.95L96.1591 131.919H98.4989L98.8652 132.763C98.9243 132.886 99.0425 133.171 99.0425 133.317C99.0425 133.643 98.753 133.655 98.4221 133.655V133.818H100.685V133.655Z" fill="white"></path>
<path d="M107.191 127.993H105.093V128.168C105.708 128.209 105.95 128.279 105.95 129.286V132.222H105.932L102.523 127.993H100.987V128.168C101.353 128.168 101.495 128.209 101.855 128.651V132.531C101.855 133.48 101.666 133.608 100.987 133.649V133.818H103.084V133.649C102.44 133.626 102.245 133.433 102.245 132.531V129.094H102.263L106.186 133.923H106.346V129.292C106.346 128.261 106.629 128.232 107.191 128.174V127.999V127.993Z" fill="white"></path>
<path d="M21.3089 155.66C21.303 155.299 21.2853 154.891 22.012 154.891C23.9678 154.891 24.2277 158.351 24.2277 159.831C24.2277 163.71 23.2351 164.747 21.9529 164.747C21.4034 164.747 21.303 164.461 21.303 163.809V155.666L21.3089 155.66ZM18.52 165.312H22.1184C24.9781 165.189 26.2071 162.656 26.2071 159.667C26.2071 157.163 25.1731 154.344 21.9825 154.344H18.52V154.746C18.975 154.81 19.4654 154.845 19.4654 155.835V163.844C19.4654 164.45 19.2409 164.916 18.52 164.916V165.317V165.312Z" fill="white"></path>
<path d="M26.8157 154.746C27.3415 154.804 27.8201 154.833 27.8201 155.905V163.756C27.8201 164.764 27.4597 164.811 26.8157 164.915V165.317H33.4688L33.9178 161.939H33.5929C32.8779 164.385 31.7257 164.811 30.6149 164.811C29.8763 164.811 29.6518 164.618 29.6518 163.902V159.97C30.7804 159.97 31.3594 160.46 31.4953 162.498H31.7907V157.006H31.4953C31.3299 159.027 30.7508 159.44 29.6518 159.429V155.666C29.6518 154.961 29.8645 154.897 30.479 154.897C32.0212 154.897 32.8247 155.305 33.0847 157.611H33.3683V154.338H26.8157V154.746Z" fill="white"></path>
<path d="M42.2431 154.344H39.8205V154.751C40.4705 154.792 40.8014 154.856 40.8014 155.497C40.8014 155.817 40.6832 156.243 40.5768 156.615L39.1351 161.957L37.6403 156.831C37.5339 156.423 37.2976 155.742 37.2976 155.433C37.2976 154.81 37.5634 154.81 38.2784 154.757V154.35H34.4614V154.757C34.9518 154.862 35.1173 154.915 35.4127 155.887L38.3257 165.609H38.6329L41.2209 156.079C41.469 155.171 41.6168 154.862 42.2431 154.751V154.344Z" fill="white"></path>
<path d="M42.7275 154.746C43.2534 154.804 43.7261 154.833 43.7261 155.905V163.756C43.7261 164.764 43.3657 164.811 42.7275 164.915V165.317H49.3747L49.8297 161.939H49.5047C48.7898 164.385 47.6317 164.811 46.5209 164.811C45.7823 164.811 45.5696 164.618 45.5696 163.902V159.97C46.6981 159.97 47.2713 160.46 47.4131 162.498H47.7144V157.006H47.4131C47.2417 159.027 46.6686 159.44 45.5696 159.429V155.666C45.5696 154.961 45.7705 154.897 46.3968 154.897C47.9212 154.897 48.7366 155.305 48.9907 157.611H49.2802V154.338H42.7275V154.746Z" fill="white"></path>
<path d="M57.4282 161.63H57.0973C56.5832 163.465 55.9451 164.811 54.2257 164.811C53.4635 164.811 53.2153 164.683 53.2153 163.902V156.248C53.2153 154.81 53.5639 154.792 54.3675 154.74V154.338H50.4028V154.74C50.911 154.792 51.3778 154.821 51.3778 155.899V163.751C51.3778 164.741 51.0351 164.787 50.4028 164.904V165.312H56.9673L57.4341 161.625L57.4282 161.63Z" fill="white"></path>
<path d="M66.2675 159.866C66.2675 156.324 64.4417 154.099 62.2496 154.099C60.0575 154.099 58.22 156.324 58.22 159.866C58.22 163.407 59.9098 165.62 62.2496 165.62C64.5895 165.62 66.2675 163.273 66.2675 159.866ZM64.2527 159.866C64.2527 161.281 64.1877 165.09 62.2496 165.09C60.3116 165.09 60.2348 161.281 60.2348 159.866C60.2348 157.495 60.6484 154.641 62.2496 154.641C63.8509 154.641 64.2527 157.495 64.2527 159.866Z" fill="white"></path>
<path d="M69.7063 155.485C69.7123 155.124 69.8718 154.915 70.2558 154.915C71.1953 154.915 71.603 155.538 71.603 157.384C71.603 159.394 71.089 159.86 69.7123 159.836V155.485H69.7063ZM66.9234 165.323H70.7049V164.916C69.925 164.77 69.7063 164.735 69.7063 163.419V160.401C71.2071 160.384 71.7921 160.372 72.507 159.79C73.4229 159.056 73.541 157.908 73.541 157.338C73.541 154.588 71.4789 154.344 70.5749 154.344H66.9175V154.763C67.5143 154.845 67.8629 154.885 67.8629 156.248V163.419C67.8629 164.327 67.7151 164.549 67.5733 164.688C67.4906 164.77 67.467 164.787 66.9175 164.921V165.329L66.9234 165.323Z" fill="white"></path>
<path d="M84.1943 164.91C83.4498 164.77 83.1898 164.712 83.1898 163.424V156.243C83.1898 154.845 83.5561 154.81 84.1943 154.746V154.344H81.3345L79.0597 162.009L76.7849 154.344H73.9133V154.746C74.7109 154.827 74.9296 155.054 74.9296 155.899V163.611C74.9296 164.549 74.77 164.805 73.8896 164.91V165.317H76.5426V164.91C75.6031 164.828 75.3963 164.444 75.3963 163.296V155.753H75.4141L78.262 165.312H78.5693L81.4054 155.509H81.429V163.687C81.429 164.764 81.0982 164.805 80.4187 164.904V165.312H84.1943V164.904V164.91Z" fill="white"></path>
<path d="M84.7261 154.746C85.2519 154.804 85.7246 154.833 85.7246 155.905V163.756C85.7246 164.764 85.3642 164.811 84.7261 164.915V165.317H91.3733L91.8282 161.939H91.5151C90.7942 164.385 89.6302 164.811 88.5194 164.811C87.7808 164.811 87.5681 164.618 87.5681 163.902V159.97C88.6967 159.97 89.2698 160.46 89.4116 162.498H89.707V157.006H89.4116C89.2403 159.027 88.6671 159.44 87.5681 159.429V155.666C87.5681 154.961 87.7749 154.897 88.3953 154.897C89.9316 154.897 90.7351 155.305 90.9892 157.611H91.2787V154.338H84.7261V154.746Z" fill="white"></path>
<path d="M92.3599 165.323H94.9479V164.904C94.103 164.782 93.8607 164.467 93.8607 163.308V156.808H93.8843L98.9362 165.609H99.2612V156.05C99.2612 155.276 99.3262 154.903 100.136 154.752V154.35H97.7072V154.752C98.623 154.856 98.7589 155.386 98.7589 156.365V161.281H98.7235L94.7824 154.355H92.3954V154.757C92.5372 154.757 92.7144 154.804 93.3585 155.934V163.622C93.3585 164.694 93.0335 164.811 92.354 164.916V165.335L92.3599 165.323Z" fill="white"></path>
<path d="M106.281 164.91C105.436 164.828 105.17 164.805 105.17 163.424V154.862C105.95 154.926 107.12 155.019 107.35 157.611H107.681L107.657 154.35H100.833L100.797 157.611H101.128C101.359 155.019 102.529 154.932 103.32 154.862V163.424C103.32 164.782 103.054 164.817 102.215 164.91V165.317H106.281V164.91Z" fill="white"></path>
<path d="M26.1539 149.079C26.0121 149.079 25.8466 149.061 25.6812 148.77L23.4005 144.151C24.0149 143.871 25.1849 143.365 25.1849 141.367C25.1849 138.641 22.78 138.507 21.9824 138.507H18.325V138.926C18.969 138.984 19.3235 139.014 19.3235 140.412V147.582C19.3235 148.898 19.099 148.95 18.325 149.079V149.486H22.1537V149.079C21.4092 148.927 21.1611 148.881 21.1611 147.582V144.401H21.4683L23.8259 149.492H26.1539V149.084V149.079ZM21.1611 139.742C21.2202 139.241 21.2438 139.066 21.8701 139.066C22.78 139.066 23.2468 139.759 23.2468 141.408C23.2468 143.516 22.6619 143.877 21.167 143.895V139.747L21.1611 139.742Z" fill="white"></path>
<path d="M26.4551 138.915C26.9869 138.967 27.4596 138.996 27.4596 140.074V147.925C27.4596 148.933 27.1051 148.98 26.4551 149.079V149.486H33.1023L33.5573 146.108H33.2323C32.5174 148.554 31.3652 148.98 30.2544 148.98C29.5158 148.98 29.2913 148.782 29.2913 148.071V144.139C30.4198 144.139 30.9989 144.629 31.1347 146.656H31.4302V141.169H31.1347C30.9693 143.178 30.3903 143.603 29.2913 143.592V139.829C29.2913 139.124 29.4981 139.06 30.1185 139.06C31.6547 139.06 32.4642 139.474 32.7242 141.769H33.0137V138.507H26.4492V138.915H26.4551Z" fill="white"></path>
<path d="M39.3951 141.774V138.25H39.0524C38.9874 138.553 38.9343 138.798 38.6802 138.798C38.3493 138.798 37.8116 138.268 36.9076 138.268C34.7391 138.268 34.3905 140.476 34.3905 141.466C34.3905 142.211 34.3905 143.609 36.3345 144.943L37.0967 145.456C37.8353 145.962 38.3729 146.347 38.3729 147.436C38.3729 147.657 38.3139 149.253 36.949 149.253C35.5841 149.253 34.8514 147.424 34.6151 145.788H34.2842V149.801H34.6151C34.6682 149.533 34.7155 149.247 34.9578 149.247C35.3123 149.247 35.8204 149.801 36.9076 149.801C38.9874 149.801 39.7201 147.832 39.7201 146.399C39.7201 144.634 38.8574 143.691 38.4734 143.417L36.8012 142.229C35.85 141.553 35.6313 141.192 35.6313 140.307C35.6313 139.252 36.2636 138.769 36.8485 138.769C38.1839 138.769 38.8634 140.633 39.082 141.78H39.3951V141.774Z" fill="white"></path>
<path d="M40.4172 138.915C40.949 138.967 41.4217 138.996 41.4217 140.074V147.925C41.4217 148.933 41.0613 148.98 40.4172 149.079V149.486H47.0703L47.5194 146.108H47.1944C46.4795 148.554 45.3273 148.98 44.2165 148.98C43.4779 148.98 43.2534 148.782 43.2534 148.071V144.139C44.3819 144.139 44.9669 144.629 45.0969 146.656H45.3982V141.169H45.0969C44.9314 143.178 44.3524 143.603 43.2534 143.592V139.829C43.2534 139.124 43.4602 139.06 44.0924 139.06C45.6227 139.06 46.4322 139.474 46.6863 141.769H46.9758V138.507H40.4172V138.915Z" fill="white"></path>
<path d="M50.007 145.653L51.0764 141.71L52.2227 145.653H50.007ZM55.6911 149.078C55.1357 149.107 54.9584 148.554 54.4503 146.812L51.9214 138.285H51.6023L49.0793 147.174C48.7366 148.397 48.5889 148.938 47.9685 149.078V149.48H50.2729V149.078C49.8829 149.049 49.3452 148.997 49.3452 148.385C49.3452 148.123 49.5166 147.453 49.8415 146.282H52.3941C52.5536 146.807 52.9199 148.007 52.9199 148.449C52.9199 148.973 52.719 148.997 52.0159 149.078V149.48H55.697V149.078H55.6911Z" fill="white"></path>
<path d="M64.2291 149.079C64.0991 149.079 63.9218 149.061 63.7623 148.77L61.4697 144.151C62.0901 143.871 63.2541 143.365 63.2541 141.367C63.2541 138.641 60.8552 138.507 60.0517 138.507H56.4001V138.926C57.0501 138.984 57.3987 139.014 57.3987 140.412V147.582C57.3987 148.898 57.1624 148.95 56.4001 149.079V149.486H60.2348V149.079C59.4904 148.927 59.2363 148.881 59.2363 147.582V144.401H59.5435L61.8892 149.492H64.2232V149.084L64.2291 149.079ZM59.2422 139.742C59.2895 139.241 59.319 139.066 59.9453 139.066C60.8611 139.066 61.3161 139.759 61.3161 141.408C61.3161 143.516 60.7253 143.877 59.2422 143.895V139.747V139.742Z" fill="white"></path>
<path d="M71.8156 147.016C70.8702 148.525 70.0253 149.002 69.1272 149.002C68.7786 149.002 67.8864 148.764 67.4019 147.599C66.9883 146.562 66.9115 145.007 66.9115 144.022C66.9115 141.285 67.3605 138.798 69.0208 138.798C70.3089 138.798 71.2661 140.702 71.662 142.118H71.9515V138.314H71.6443C71.532 138.722 71.4197 139.06 71.1243 139.06C70.8289 139.06 69.9544 138.268 68.9263 138.268C66.5451 138.268 64.9084 140.801 64.9084 144.092C64.9084 147.133 66.3324 149.795 68.9913 149.795C70.4448 149.795 71.3252 148.769 72.1583 147.424L71.8156 147.022V147.016Z" fill="white"></path>
<path d="M81.2162 149.079C80.6076 148.974 80.2117 148.898 80.2117 147.925V140.068C80.2117 139.014 80.7257 138.967 81.2162 138.915V138.507H77.3519V138.915C77.8601 138.967 78.38 138.996 78.38 140.068V143.44H75.6325V140.068C75.6325 138.996 76.1643 138.967 76.6606 138.915V138.507H72.8259V138.915C73.3045 138.979 73.7949 139.014 73.7949 140.068V147.925C73.7949 148.881 73.4286 148.968 72.8259 149.079V149.481H76.6606V149.079C76.0638 148.974 75.6325 148.916 75.6325 147.925V144.198H78.38V147.925C78.38 148.916 77.9546 148.968 77.3519 149.079V149.481H81.2162V149.079Z" fill="white"></path>
<path d="M85.819 145.653L86.8885 141.71L88.0348 145.653H85.819ZM91.5031 149.078C90.9477 149.107 90.7705 148.554 90.2682 146.812L87.7275 138.285H87.4085L84.8855 147.174C84.5428 148.397 84.3951 148.938 83.7747 149.078V149.48H86.0908V149.078C85.7009 149.049 85.1514 148.997 85.1514 148.385C85.1514 148.123 85.3345 147.453 85.6595 146.282H88.212C88.3657 146.807 88.7261 148.007 88.7261 148.449C88.7261 148.973 88.5252 148.997 87.8221 149.078V149.48H91.509V149.078H91.5031Z" fill="white"></path>
<path d="M92.0999 149.48H94.6819V149.078C93.8429 148.95 93.6006 148.636 93.6006 147.476V140.976H93.6184L98.682 149.777H98.9952V140.219C98.9952 139.438 99.072 139.066 99.8815 138.92V138.524H97.4412V138.92C98.363 139.019 98.493 139.561 98.493 140.533V145.449H98.4693L94.5283 138.524H92.1294V138.92C92.2712 138.92 92.4662 138.972 93.1043 140.091V147.785C93.1043 148.857 92.7793 148.973 92.0999 149.084V149.486V149.48Z" fill="white"></path>
<path d="M103.108 139.823C103.102 139.462 103.072 139.066 103.811 139.066C105.761 139.066 106.027 142.525 106.027 143.999C106.027 147.878 105.022 148.915 103.746 148.915C103.208 148.915 103.108 148.635 103.108 147.983V139.829V139.823ZM100.319 149.48H103.911C106.771 149.358 108 146.812 108 143.836C108 141.337 106.972 138.512 103.787 138.512H100.319V138.908C100.768 138.978 101.258 139.007 101.258 139.998V148.006C101.258 148.612 101.046 149.078 100.319 149.078V149.48Z" fill="white"></path>
<path d="M69.6118 96.575V96.0682H65.1804V96.575C66.2971 96.7031 66.5984 96.7497 66.5984 97.536C66.5984 98.5495 65.653 99.697 64.9736 100.512L61.7238 95.9925C63.1242 95.5149 64.9913 94.6179 64.9913 92.8763C64.9913 91.7288 64.0873 90.3076 61.3811 90.3076C59.449 90.3076 57.2096 91.1405 57.2096 93.6976C57.2096 94.6587 57.576 95.4974 58.3323 96.7322C56.9142 97.4079 54.1135 98.7359 54.1135 101.508C54.1135 104.042 56.152 105.26 58.22 105.26C60.4121 105.26 62.1551 104.06 62.9883 103.419C63.8037 104.304 64.6899 105.283 66.2498 105.283C66.6162 105.283 67.8688 105.131 68.7492 104.095C68.8023 104.054 69.6768 102.615 69.6945 102.58L69.2691 102.336C69.0032 102.802 68.5837 103.139 68.0342 103.139C67.0298 103.139 66.368 102.359 65.464 101.217C66.3936 99.9397 67.2503 98.6738 68.0342 97.4195C68.4006 96.8487 68.6428 96.6507 69.6118 96.5691M61.3102 95.3751C60.7962 94.7635 59.7208 93.3423 59.7208 92.2589C59.7208 91.2337 60.3294 91.0066 60.8553 91.0066C62.0783 91.0066 62.8228 92.5734 62.8228 93.6335C62.8228 94.845 61.8952 95.177 61.3102 95.3751ZM62.4978 102.825C61.907 103.25 61.2216 103.652 60.5539 103.652C58.5391 103.652 57.1033 100.891 57.1033 99.4349C57.1033 98.5088 57.5523 97.9962 58.6868 97.3729L59.7149 98.8932C60.5657 100.151 61.6706 101.771 62.4919 102.825" fill="white"></path>
<path d="M28.9487 59.2678C33.2856 59.2678 37.0612 59.2678 40.5 61.7957C44.0393 64.2246 45.865 68.1737 45.865 72.018C45.865 75.8623 43.9152 79.8929 40.2637 82.4208C36.1394 85.1526 31.4598 85.3565 26.6679 85.3565H18V86.6554L44.0393 119.128H67.3369C79.3314 119.128 88.9329 116.501 97.0513 108.411C104.012 101.526 107.557 92.4334 107.557 83.2305C107.557 73.212 103.905 63.5023 96.0232 56.4312C87.7866 49.0455 78.9828 46.9253 67.5614 46.9253H58.8758V59.2561H65.7357C73.2751 59.2561 79.3314 59.8619 84.9269 64.9177C89.961 69.6765 92.0231 76.7534 92.0231 83.2305C92.0231 89.0901 89.8487 95.7652 85.3996 100.32C80.0168 105.778 73.281 106.692 65.5053 106.692H53.0676L41.1795 93.2314C53.5167 92.3228 61.4047 81.9141 61.4047 71.4937C61.4047 64.1197 58.084 57.3398 51.6909 52.4879C45.2978 47.6301 38.3256 46.9253 30.3195 46.9253H18V59.2561H28.9487V59.2678Z" fill="white"></path>
<path d="M18.4551 28.9562H18.9691C19.2705 30.7327 19.7491 32.0258 20.399 32.8237C21.0549 33.6276 21.8053 34.0353 22.662 34.0353C23.5188 34.0353 24.0742 33.7557 24.4228 33.2024C24.7714 32.6548 24.9368 32.0665 24.9368 31.455C24.9368 30.7443 24.7537 30.1619 24.3991 29.7134C24.151 29.4221 23.6724 29.0377 22.9397 28.5659L21.7639 27.7971C20.594 27.0399 19.7786 26.2826 19.3 25.5487C18.8273 24.8032 18.5851 23.8829 18.5851 22.7937C18.5851 21.6346 18.8982 20.5512 19.5304 19.5493C20.1627 18.5417 21.1317 18.0291 22.4375 18.0291C23.0992 18.0291 23.7492 18.1572 24.3696 18.431C24.9841 18.6931 25.3386 18.8212 25.4331 18.8212C25.634 18.8212 25.7758 18.7455 25.8468 18.5941C25.9236 18.4485 25.9767 18.2446 26.0299 17.9941H26.5676V23.1723H26.0713C25.829 21.9724 25.4095 20.9414 24.7832 20.0677C24.1746 19.2115 23.4419 18.7746 22.5675 18.7746C21.953 18.7746 21.4744 18.996 21.108 19.4387C20.7594 19.8755 20.5763 20.3997 20.5763 21.023C20.5763 21.7744 20.7417 22.3393 21.0844 22.7063C21.4153 23.0849 22.148 23.6441 23.2883 24.3838L24.6414 25.2575C25.25 25.6594 25.7345 26.0963 26.0949 26.5739C26.7567 27.4767 27.0994 28.5601 27.0994 29.8532C27.0994 31.0472 26.733 32.183 26.0122 33.249C25.2973 34.3149 24.1451 34.8449 22.5557 34.8449C22.1893 34.8449 21.8289 34.7925 21.4389 34.6993C21.0726 34.6177 20.7004 34.4838 20.334 34.2974L19.9854 34.1227C19.9027 34.0935 19.8259 34.0644 19.755 34.0586C19.6723 34.0353 19.6073 34.012 19.5541 34.012C19.3709 34.012 19.2291 34.0935 19.1641 34.2391C19.0991 34.3673 19.04 34.577 18.975 34.8449H18.461V28.9562H18.4551Z" fill="white"></path>
<path d="M36.5589 33.9074C36.9902 33.8666 37.3447 33.6045 37.6106 33.1269C37.7761 32.824 38.0242 32.16 38.3433 31.129L42.3552 18.1226H42.8575L46.899 30.6048C47.348 32.0086 47.6907 32.9172 47.9093 33.3249C48.1339 33.7269 48.447 33.9249 48.8724 33.9074V34.5132H43.0052V33.9074C43.596 33.8725 43.986 33.8084 44.1574 33.7036C44.3464 33.6045 44.441 33.3541 44.441 32.9405C44.441 32.76 44.3996 32.4745 44.311 32.1018C44.2519 31.8688 44.1633 31.6008 44.0687 31.2805L43.6138 29.8418H39.5427C39.2768 30.7796 39.1114 31.4028 39.0346 31.6824C38.8692 32.294 38.7923 32.7425 38.7923 33.0221C38.7923 33.3599 38.9755 33.6104 39.3241 33.7618C39.525 33.8492 39.8264 33.9016 40.2459 33.9074V34.5132H36.553V33.9074H36.5589ZM43.342 28.8924L41.6048 23.3939H41.4571L39.8204 28.8924H43.3361H43.342Z" fill="white"></path>
<path d="M70.3798 34.5015V33.9365C70.2203 33.919 70.0726 33.884 69.9662 33.8374C69.8599 33.7617 69.7417 33.6511 69.6531 33.453L66.0134 26.6906C66.6279 26.545 67.2187 26.1838 67.7741 25.6247C68.5068 24.8791 68.8613 23.8598 68.8613 22.5667C68.8613 20.8193 68.1405 19.6136 66.681 18.9321C65.9306 18.5943 64.9616 18.437 63.7504 18.437H57.9363V19.037C58.5567 19.1127 58.9467 19.2408 59.1239 19.4214C59.3898 19.7068 59.5198 20.3067 59.5198 21.2212V31.7289C59.5198 32.6143 59.4134 33.1851 59.1889 33.4472C58.9644 33.7093 58.5508 33.8666 57.9363 33.9073V34.5073H64.0399V33.9073C63.4077 33.8782 62.9881 33.7093 62.7695 33.4239C62.5627 33.1385 62.4564 32.5735 62.4564 31.7289V27.075H62.935L66.681 34.5015H70.3857H70.3798ZM65.7534 22.7822C65.7534 24.2792 65.4934 25.2461 64.9912 25.6596C64.4771 26.0673 63.6381 26.2887 62.4564 26.3061V20.266C62.4564 19.9048 62.5332 19.6427 62.675 19.4796C62.8345 19.3224 63.1477 19.2408 63.6381 19.2408C64.5185 19.2408 65.133 19.6893 65.4698 20.598C65.6647 21.128 65.7593 21.8561 65.7593 22.7822" fill="white"></path>
<path d="M91.5208 26.5217C91.5208 24.1277 90.989 22.2114 89.9314 20.7844C88.7497 19.2292 87.0598 18.4429 84.8205 18.4429H79.2959V19.0428C79.7686 19.1069 80.0995 19.2001 80.3004 19.334C80.6312 19.5787 80.8026 19.9981 80.8026 20.6096V32.3464C80.8026 32.9696 80.6194 33.4181 80.2649 33.6453C80.0758 33.7851 79.745 33.8666 79.2959 33.9074V34.5131H85.0095C87.0716 34.5131 88.7083 33.6744 89.9196 31.9911C90.989 30.4941 91.5208 28.671 91.5208 26.5217ZM88.3774 26.4809C88.3774 29.3001 88.0288 31.2047 87.3375 32.2066C86.6521 33.2026 85.7717 33.6919 84.6964 33.6919C84.3064 33.6919 84.0405 33.587 83.9283 33.3657C83.8042 33.156 83.7392 32.8007 83.7215 32.3114V20.6096C83.7215 20.1262 83.7628 19.8 83.8633 19.6253C84.0051 19.3573 84.3123 19.2234 84.785 19.2234C86.2031 19.2292 87.2253 20.1961 87.822 22.1357C88.1943 23.3531 88.3774 24.7918 88.3774 26.4809Z" fill="white"></path>
<path d="M100.732 33.9073C101.246 33.8898 101.619 33.8083 101.837 33.6627C102.204 33.4064 102.387 32.9404 102.387 32.2298V20.7261C102.387 20.0213 102.21 19.5553 101.861 19.3107C101.654 19.1709 101.282 19.0719 100.732 19.0427V18.4312H107.066V19.0369C106.493 19.0719 106.103 19.1592 105.897 19.299C105.548 19.5437 105.365 20.0213 105.365 20.7261V32.2298C105.365 32.8996 105.512 33.3423 105.79 33.5695C106.074 33.7966 106.493 33.9073 107.066 33.9073V34.5131H100.732V33.9073Z" fill="white"></path>
</g>
<defs>
<clipPath id="clip0_2011_27964">
<rect width="90" height="158" fill="white" transform="translate(18 18)"></rect>
</clipPath>
</defs>
</svg>
