<svg xmlns="http://www.w3.org/2000/svg" width="126" height="194" fill="none"><path fill="#00325B" d="M0 0h126v194H0z"/><g fill="#fff" clip-path="url('#clip0_2011_27964')"><path d="M40.725 175.878h2.653v-.175c-.662-.017-.88-.099-.88-.786v-3.909c0-.704.224-.757.88-.786v-.169h-2.653v.169c.738.035.868.14.868.786v3.909c0 .623-.118.769-.868.786zM49.865 170.059h-2.097v.174c.608.041.85.111.85 1.119v2.935h-.017l-3.415-4.228h-1.53v.174c.354 0 .496.041.862.484v3.879c0 .949-.183 1.078-.863 1.118v.169h2.098v-.169c-.656-.023-.84-.215-.84-1.118v-3.437h.019l3.935 4.823h.142v-4.63c0-1.031.289-1.066.856-1.119zM54.03 169.931h-.182c-.018.093-.06.303-.314.303-.224 0-.709-.303-1.246-.303-.798 0-1.607.501-1.607 1.491 0 .873.573 1.258 1.394 1.724 1.312.769 1.453 1.054 1.453 1.561 0 .472-.36.978-1.069.978-1.205 0-1.66-1.153-1.826-1.561h-.207l.266 1.864h.19c0-.139.1-.285.283-.285.266 0 .703.291 1.383.291 1.276 0 1.885-.839 1.885-1.596 0-1.8-2.978-1.98-2.978-3.285 0-.553.449-.827.904-.827.927 0 1.5.786 1.654 1.52h.225l-.201-1.881zM59.07 175.709c-.744-.023-.85-.186-.85-.786v-4.497h.479c.98 0 1.234.163 1.418 1.136h.212l-.053-1.509H55.23l-.053 1.509h.213c.189-.967.443-1.136 1.418-1.136h.478v4.398c0 .652-.023.85-.839.885v.175h2.606v-.175zM60.702 175.878h2.647v-.175c-.662-.017-.869-.099-.869-.786v-3.909c0-.704.213-.757.869-.786v-.169h-2.647v.169c.738.035.862.14.862.786v3.909c0 .623-.106.769-.862.786zM67.561 175.709c-.756-.023-.862-.186-.862-.786v-4.497h.49c.975 0 1.23.163 1.418 1.136h.207l-.047-1.509h-5.04l-.053 1.509h.206c.207-.967.45-1.136 1.419-1.136h.49v4.398c0 .652-.03.85-.845.885v.175h2.611v-.175zM75.308 170.059h-2.074v.175c.632.029.839.18.839 1.118v2.382c0 .711-.095.996-.201 1.194-.266.408-.774.694-1.46.694-1.56 0-1.56-1.218-1.56-1.794v-2.814c0-.623.107-.734.804-.786v-.175h-2.523v.175c.68.041.804.14.804.786v2.75c0 .524 0 2.242 2.215 2.242 2.216 0 2.305-1.654 2.305-2.365v-2.289c0-.926.16-1.054.845-1.118v-.175zM79.538 175.709c-.744-.023-.856-.186-.856-.786v-4.497h.478c.981 0 1.23.163 1.418 1.136h.207l-.06-1.509h-5.021l-.06 1.509h.213c.201-.967.438-1.136 1.418-1.136h.479v4.398c0 .652-.024.85-.84.885v.175h2.607v-.175zM86.327 174.392h-.248c-.396.891-.84 1.153-1.95 1.153q-1.335 0-1.335-.378v-2.173l1.377.018c.738.006.874.14.974.844h.213v-2.044h-.213c-.088.629-.183.833-.974.833h-1.377v-1.946c0-.303.106-.303.301-.303h1.206c.986 0 1.217.14 1.352.927h.225l-.035-1.259h-4.727v.164c.561.052.768.104.768.803v3.903c0 .676-.201.751-.768.792v.157h4.821l.396-1.479zM22.727 127.871h-.19c-.017.099-.064.302-.312.302-.213 0-.71-.302-1.235-.302-.798 0-1.62.489-1.62 1.485 0 .885.574 1.27 1.395 1.724 1.312.757 1.454 1.054 1.454 1.561 0 .472-.355.984-1.07.984-1.2 0-1.648-1.153-1.826-1.561h-.2l.254 1.864h.2c0-.14.095-.285.284-.285.26 0 .71.297 1.389.297 1.27 0 1.873-.845 1.873-1.596 0-1.8-2.978-1.98-2.978-3.297 0-.542.46-.815.898-.815.945 0 1.507.792 1.666 1.514h.213l-.19-1.875zM29.87 130.917c0-2.021-1.453-3.035-2.913-3.035s-2.918 1.014-2.918 3.035c0 1.881 1.3 3.023 2.918 3.023 1.62 0 2.913-1.147 2.913-3.023m-1.022-.012c0 1.94-.904 2.715-1.89 2.715-.987 0-1.91-.781-1.91-2.715s1-2.726 1.91-2.726 1.89.711 1.89 2.726M36.518 127.993h-2.074v.175c.632.029.839.18.839 1.118v2.382c0 .711-.095.997-.201 1.195-.266.407-.763.693-1.46.693-1.56 0-1.56-1.223-1.56-1.794v-2.814c0-.623.113-.734.81-.786v-.175h-2.529v.175c.68.041.815.14.815.786v2.75c0 .524 0 2.242 2.21 2.242s2.305-1.66 2.305-2.365v-2.289c0-.92.16-1.054.844-1.118zM40.748 133.649c-.744-.023-.857-.186-.857-.786v-4.497h.485c.98 0 1.229.163 1.418 1.136h.213l-.065-1.509h-5.029l-.047 1.509h.213c.189-.967.437-1.136 1.418-1.136h.479v4.398c0 .652-.024.85-.84.885v.169h2.606v-.169zM42.379 133.818h2.476v-.169c-.698-.041-.792-.204-.792-.786v-1.818h2.712v1.719c0 .658-.041.85-.792.885v.169h2.482v-.169c-.697-.041-.78-.204-.78-.786v-3.909c0-.623.1-.734.78-.786v-.169h-2.482v.169c.662.052.792.14.792.786v1.713h-2.712v-1.713c0-.623.118-.734.792-.786v-.169h-2.476v.169c.656.052.78.14.78.786v3.815c0 .659-.03.851-.78.886v.169zM52.382 131.564l1.028-2.424 1.034 2.424zm4.367 2.091c-.396-.024-.514-.129-.804-.769l-2.216-4.998h-.183l-1.861 4.316c-.171.391-.45 1.031-.656 1.253-.16.174-.307.186-.449.198v.163h1.767v-.163c-.19 0-.615 0-.615-.367 0-.105.036-.222.077-.338l.402-1.031h2.34l.366.844c.06.123.165.408.165.554 0 .326-.283.338-.614.338v.163h2.275v-.163zM62.734 127.993h-2.068v.175c.627.029.84.18.84 1.118v2.382c0 .711-.095.997-.208 1.195-.26.407-.762.693-1.46.693-1.553 0-1.553-1.223-1.553-1.794v-2.814c0-.623.106-.734.815-.786v-.175h-2.523v.175c.674.041.798.14.798.786v2.75c0 .524 0 2.242 2.204 2.242 2.322 0 2.322-1.66 2.322-2.365v-2.289c0-.92.142-1.054.827-1.118v-.175zM66.923 127.871h-.183c-.017.099-.065.302-.313.302-.225 0-.709-.302-1.247-.302-.797 0-1.607.489-1.607 1.485 0 .885.567 1.27 1.395 1.724 1.3.757 1.453 1.054 1.453 1.561 0 .472-.36.984-1.07.984-1.21 0-1.66-1.153-1.825-1.561h-.207l.266 1.864h.19c0-.14.1-.285.283-.285.266 0 .709.297 1.388.297 1.276 0 1.873-.845 1.873-1.596 0-1.8-2.978-1.98-2.978-3.297 0-.542.455-.815.904-.815.94 0 1.513.792 1.66 1.514h.225l-.2-1.875zM71.963 133.649c-.744-.023-.862-.186-.862-.786v-4.497h.484c.981 0 1.23.163 1.418 1.136h.207l-.053-1.509h-5.028l-.06 1.509h.213c.201-.967.438-1.136 1.412-1.136h.49v4.398c0 .652-.023.85-.838.885v.169h2.605v-.169zM75.243 128.64c0-.257.082-.321.555-.321.366 0 1.536.024 1.536 1.194 0 1.259-1.347 1.276-2.091 1.294zm4.065 5.009c-.367-.018-.591-.175-.78-.408l-1.844-2.225c.455-.093 1.613-.297 1.613-1.479 0-1.352-1.465-1.538-2.263-1.538h-2.463v.163c.62.064.762.146.762.804v3.798c0 .664-.042.85-.762.891v.163h2.463v-.163c-.715-.029-.797-.204-.797-.787v-1.735l.502-.018 2.127 2.703h1.436v-.163zM81.346 131.564l1.028-2.424 1.028 2.424zm4.373 2.091c-.396-.024-.514-.129-.804-.769l-2.216-4.998h-.183l-1.855 4.316c-.166.391-.437 1.031-.644 1.253-.16.174-.313.186-.455.198v.163h1.766v-.163c-.189 0-.614 0-.614-.367 0-.105.03-.222.077-.338l.413-1.031h2.334l.367.844c.059.123.17.408.17.554 0 .326-.289.338-.62.338v.163h2.275v-.163zM88.531 127.993H86.02v.175c.561.041.768.087.768.786v3.909c0 .669-.2.751-.768.786v.169h4.804l.425-1.538h-.224c-.509 1.159-1.082 1.194-2.417 1.194-.745 0-.904-.006-.904-.361v-4.165c0-.693.23-.751.827-.786v-.175zM91.562 133.818h2.653v-.169c-.662-.018-.88-.099-.88-.786v-3.909c0-.705.224-.757.88-.786v-.169h-2.653v.169c.739.035.869.14.869.786v3.909c0 .623-.118.768-.869.786zM96.325 131.564l1.028-2.424 1.034 2.424zm4.36 2.091c-.39-.024-.502-.129-.798-.769l-2.215-4.998h-.183l-1.856 4.316c-.177.391-.443 1.031-.656 1.253-.153.174-.307.186-.449.198v.163h1.767v-.163c-.19 0-.609 0-.609-.367 0-.105.024-.222.065-.338l.408-1.031h2.34l.366.844c.06.123.178.408.178.554 0 .326-.29.338-.62.338v.163h2.262zM107.191 127.993h-2.098v.175c.615.041.857.111.857 1.118v2.936h-.018l-3.409-4.229h-1.536v.175c.366 0 .508.041.868.483v3.88c0 .949-.189 1.077-.868 1.118v.169h2.097v-.169c-.644-.023-.839-.216-.839-1.118v-3.437h.018l3.923 4.829h.16v-4.631c0-1.031.283-1.06.845-1.118v-.181M21.309 155.66c-.006-.361-.024-.769.703-.769 1.956 0 2.216 3.46 2.216 4.94 0 3.879-.993 4.916-2.275 4.916-.55 0-.65-.286-.65-.938v-8.143zm-2.789 9.652h3.598c2.86-.123 4.09-2.656 4.09-5.645 0-2.504-1.035-5.323-4.225-5.323H18.52v.402c.455.064.945.099.945 1.089v8.009c0 .606-.224 1.072-.945 1.072v.401zM26.816 154.746c.526.058 1.004.087 1.004 1.159v7.851c0 1.008-.36 1.055-1.004 1.159v.402h6.653l.449-3.378h-.325c-.715 2.446-1.867 2.872-2.978 2.872-.739 0-.963-.193-.963-.909v-3.932c1.128 0 1.707.49 1.843 2.528h.296v-5.492h-.296c-.165 2.021-.744 2.434-1.843 2.423v-3.763c0-.705.212-.769.827-.769 1.542 0 2.346.408 2.606 2.714h.283v-3.273h-6.552zM42.243 154.344h-2.422v.407c.65.041.98.105.98.746 0 .32-.118.746-.224 1.118l-1.442 5.342-1.495-5.126c-.106-.408-.342-1.089-.342-1.398 0-.623.265-.623.98-.676v-.407h-3.817v.407c.49.105.656.158.952 1.13l2.913 9.722h.307l2.588-9.53c.248-.908.396-1.217 1.022-1.328zM42.728 154.746c.525.058.998.087.998 1.159v7.851c0 1.008-.36 1.055-.998 1.159v.402h6.647l.455-3.378h-.325c-.715 2.446-1.873 2.872-2.984 2.872-.739 0-.951-.193-.951-.909v-3.932c1.128 0 1.701.49 1.843 2.528h.301v-5.492h-.3c-.172 2.021-.745 2.434-1.844 2.423v-3.763c0-.705.2-.769.827-.769 1.524 0 2.34.408 2.594 2.714h.29v-3.273h-6.553zM57.428 161.63h-.33c-.515 1.835-1.153 3.181-2.872 3.181-.762 0-1.01-.128-1.01-.909v-7.654c0-1.438.348-1.456 1.151-1.508v-.402h-3.964v.402c.508.052.975.081.975 1.159v7.852c0 .99-.343 1.036-.975 1.153v.408h6.564l.467-3.687zM66.268 159.866c0-3.542-1.826-5.767-4.018-5.767-2.193 0-4.03 2.225-4.03 5.767 0 3.541 1.69 5.754 4.03 5.754s4.017-2.347 4.017-5.754m-2.015 0c0 1.415-.065 5.224-2.003 5.224s-2.015-3.809-2.015-5.224c0-2.371.413-5.225 2.015-5.225 1.6 0 2.003 2.854 2.003 5.225M69.706 155.485c.006-.361.166-.57.55-.57.94 0 1.347.623 1.347 2.469 0 2.01-.514 2.476-1.89 2.452v-4.351zm-2.783 9.838h3.782v-.407c-.78-.146-.999-.181-.999-1.497v-3.018c1.501-.017 2.086-.029 2.801-.611.916-.734 1.034-1.882 1.034-2.452 0-2.75-2.062-2.994-2.966-2.994h-3.657v.419c.596.082.945.122.945 1.485v7.171c0 .908-.148 1.13-.29 1.269-.082.082-.106.099-.655.233v.408zM84.194 164.91c-.744-.14-1.004-.198-1.004-1.486v-7.181c0-1.398.366-1.433 1.004-1.497v-.402h-2.86l-2.274 7.665-2.275-7.665h-2.872v.402c.798.081 1.017.308 1.017 1.153v7.712c0 .938-.16 1.194-1.04 1.299v.407h2.653v-.407c-.94-.082-1.147-.466-1.147-1.614v-7.543h.018l2.848 9.559h.307l2.836-9.803h.024v8.178c0 1.077-.33 1.118-1.01 1.217v.408h3.775v-.408zM84.726 154.746c.526.058.999.087.999 1.159v7.851c0 1.008-.36 1.055-.999 1.159v.402h6.647l.455-3.378h-.313c-.72 2.446-1.885 2.872-2.996 2.872-.738 0-.95-.193-.95-.909v-3.932c1.128 0 1.7.49 1.843 2.528h.295v-5.492h-.295c-.172 2.021-.745 2.434-1.844 2.423v-3.763c0-.705.207-.769.827-.769 1.537 0 2.34.408 2.594 2.714h.29v-3.273h-6.553zM92.36 165.323h2.588v-.419c-.845-.122-1.087-.437-1.087-1.596v-6.5h.023l5.052 8.801h.325v-9.559c0-.774.065-1.147.875-1.298v-.402h-2.429v.402c.916.104 1.052.634 1.052 1.613v4.916h-.035l-3.942-6.926h-2.387v.402c.142 0 .32.047.964 1.177v7.688c0 1.072-.325 1.189-1.005 1.294v.419zM106.281 164.91c-.845-.082-1.111-.105-1.111-1.486v-8.562c.78.064 1.95.157 2.18 2.749h.331l-.024-3.261h-6.824l-.036 3.261h.331c.231-2.592 1.401-2.679 2.192-2.749v8.562c0 1.358-.266 1.393-1.105 1.486v.407h4.066zM26.154 149.079c-.142 0-.307-.018-.473-.309l-2.28-4.619c.614-.28 1.784-.786 1.784-2.784 0-2.726-2.405-2.86-3.203-2.86h-3.657v.419c.644.058.999.088.999 1.486v7.17c0 1.316-.225 1.368-.999 1.497v.407h3.829v-.407c-.745-.152-.993-.198-.993-1.497v-3.181h.307l2.358 5.091h2.328v-.413m-4.993-9.337c.06-.501.083-.676.71-.676.909 0 1.376.693 1.376 2.342 0 2.108-.585 2.469-2.08 2.487v-4.148zM26.455 138.915c.532.052 1.005.081 1.005 1.159v7.851c0 1.008-.355 1.055-1.005 1.154v.407h6.647l.455-3.378h-.325c-.715 2.446-1.867 2.872-2.978 2.872-.738 0-.963-.198-.963-.909v-3.932c1.129 0 1.708.49 1.844 2.517h.295v-5.487h-.295c-.166 2.009-.745 2.434-1.844 2.423v-3.763c0-.705.207-.769.828-.769 1.536 0 2.345.414 2.605 2.709h.29v-3.262h-6.565v.408zM39.395 141.774v-3.524h-.343c-.065.303-.118.548-.372.548-.33 0-.868-.53-1.772-.53-2.169 0-2.517 2.208-2.517 3.198 0 .745 0 2.143 1.944 3.477l.762.513c.738.506 1.276.891 1.276 1.98 0 .221-.06 1.817-1.424 1.817-1.365 0-2.098-1.829-2.334-3.465h-.33v4.013h.33c.053-.268.1-.554.343-.554.354 0 .862.554 1.95.554 2.08 0 2.812-1.969 2.812-3.402 0-1.765-.863-2.708-1.247-2.982l-1.672-1.188c-.951-.676-1.17-1.037-1.17-1.922 0-1.055.633-1.538 1.218-1.538 1.335 0 2.014 1.864 2.233 3.011h.313zM40.417 138.915c.532.052 1.005.081 1.005 1.159v7.851c0 1.008-.36 1.055-1.005 1.154v.407h6.653l.45-3.378h-.326c-.715 2.446-1.867 2.872-2.977 2.872-.74 0-.964-.198-.964-.909v-3.932c1.129 0 1.714.49 1.844 2.517h.301v-5.487h-.301c-.166 2.009-.745 2.434-1.844 2.423v-3.763c0-.705.207-.769.84-.769 1.53 0 2.34.414 2.593 2.709h.29v-3.262h-6.559zM50.007 145.653l1.07-3.943 1.146 3.943zm5.684 3.425c-.555.029-.733-.524-1.24-2.266l-2.53-8.527h-.319l-2.523 8.889c-.342 1.223-.49 1.764-1.11 1.904v.402h2.304v-.402c-.39-.029-.928-.081-.928-.693 0-.262.172-.932.497-2.103h2.552c.16.525.526 1.725.526 2.167 0 .524-.201.548-.904.629v.402h3.681v-.402zM64.23 149.079c-.13 0-.308-.018-.468-.309l-2.292-4.619c.62-.28 1.784-.786 1.784-2.784 0-2.726-2.399-2.86-3.202-2.86H56.4v.419c.65.058.999.088.999 1.486v7.17c0 1.316-.237 1.368-.999 1.497v.407h3.835v-.407c-.745-.152-.999-.198-.999-1.497v-3.181h.308l2.345 5.091h2.334v-.408zm-4.988-9.337c.047-.501.077-.676.703-.676.916 0 1.371.693 1.371 2.342 0 2.108-.59 2.469-2.074 2.487v-4.153M71.816 147.016c-.946 1.509-1.79 1.986-2.689 1.986-.348 0-1.24-.238-1.725-1.403-.414-1.037-.49-2.592-.49-3.577 0-2.737.448-5.224 2.109-5.224 1.288 0 2.245 1.904 2.641 3.32h.29v-3.804h-.308c-.112.408-.224.746-.52.746-.295 0-1.17-.792-2.198-.792-2.38 0-4.018 2.533-4.018 5.824 0 3.041 1.424 5.703 4.083 5.703 1.454 0 2.334-1.026 3.167-2.371l-.342-.402zM81.216 149.079c-.608-.105-1.004-.181-1.004-1.154v-7.857c0-1.054.514-1.101 1.004-1.153v-.408h-3.864v.408c.508.052 1.028.081 1.028 1.153v3.372h-2.748v-3.372c0-1.072.532-1.101 1.029-1.153v-.408h-3.835v.408c.479.064.969.099.969 1.153v7.857c0 .956-.366 1.043-.97 1.154v.402h3.836v-.402c-.597-.105-1.029-.163-1.029-1.154v-3.727h2.748v3.727c0 .991-.425 1.043-1.028 1.154v.402h3.864zM85.819 145.653l1.07-3.943 1.146 3.943zm5.684 3.425c-.555.029-.733-.524-1.235-2.266l-2.54-8.527h-.32l-2.523 8.889c-.342 1.223-.49 1.764-1.11 1.904v.402h2.316v-.402c-.39-.029-.94-.081-.94-.693 0-.262.184-.932.508-2.103h2.553c.154.525.514 1.725.514 2.167 0 .524-.2.548-.904.629v.402h3.687v-.402zM92.1 149.48h2.582v-.402c-.84-.128-1.081-.442-1.081-1.602v-6.5h.017l5.064 8.801h.313v-9.558c0-.781.077-1.153.886-1.299v-.396h-2.44v.396c.922.099 1.052.641 1.052 1.613v4.916h-.024l-3.94-6.925h-2.4v.396c.142 0 .337.052.975 1.171v7.694c0 1.072-.325 1.188-1.004 1.299v.402zM103.108 139.823c-.006-.361-.036-.757.703-.757 1.95 0 2.216 3.459 2.216 4.933 0 3.879-1.005 4.916-2.281 4.916-.538 0-.638-.28-.638-.932v-8.16m-2.789 9.657h3.592c2.86-.122 4.089-2.668 4.089-5.644 0-2.499-1.028-5.324-4.213-5.324h-3.468v.396c.449.07.939.099.939 1.09v8.008c0 .606-.212 1.072-.939 1.072zM69.612 96.575v-.507H65.18v.507c1.117.128 1.418.175 1.418.961 0 1.013-.945 2.161-1.624 2.976l-3.25-4.52c1.4-.477 3.267-1.374 3.267-3.116 0-1.147-.904-2.568-3.61-2.568-1.932 0-4.171.832-4.171 3.39 0 .96.366 1.8 1.122 3.034-1.418.676-4.218 2.004-4.218 4.776 0 2.534 2.038 3.752 4.106 3.752 2.192 0 3.935-1.2 4.768-1.841.816.885 1.702 1.864 3.262 1.864.366 0 1.619-.152 2.5-1.188.052-.041.927-1.48.945-1.515l-.426-.244c-.266.466-.685.803-1.235.803-1.004 0-1.666-.78-2.57-1.922a65 65 0 0 0 2.57-3.797c.367-.571.609-.77 1.578-.85m-8.302-1.195c-.514-.612-1.59-2.033-1.59-3.116 0-1.025.61-1.252 1.135-1.252 1.223 0 1.968 1.566 1.968 2.626 0 1.212-.928 1.544-1.513 1.742m1.188 7.45c-.591.425-1.276.827-1.944.827-2.015 0-3.45-2.761-3.45-4.217 0-.926.448-1.439 1.583-2.062l1.028 1.52c.85 1.258 1.956 2.878 2.777 3.932"/><path d="M28.949 59.268c4.337 0 8.112 0 11.551 2.528 3.54 2.429 5.365 6.378 5.365 10.222s-1.95 7.875-5.601 10.403c-4.125 2.732-8.804 2.935-13.596 2.935H18v1.3l26.04 32.472h23.297c11.994 0 21.596-2.627 29.714-10.717 6.961-6.885 10.506-15.978 10.506-25.18 0-10.019-3.652-19.729-11.534-26.8-8.236-7.385-17.04-9.506-28.462-9.506h-8.685v12.331h6.86c7.54 0 13.595.606 19.19 5.662 5.035 4.758 7.097 11.835 7.097 18.313 0 5.86-2.174 12.534-6.623 17.089-5.383 5.458-12.119 6.372-19.895 6.372H53.068L41.18 93.232c12.337-.91 20.225-11.318 20.225-21.738 0-7.374-3.321-14.154-9.714-19.006-6.393-4.858-13.365-5.563-21.371-5.563H18v12.331h10.949zM18.455 28.956h.514c.301 1.777.78 3.07 1.43 3.868.656.804 1.406 1.211 2.263 1.211s1.412-.28 1.76-.833a3.2 3.2 0 0 0 .515-1.747c0-.71-.183-1.293-.538-1.742-.248-.29-.727-.675-1.46-1.147l-1.175-.769c-1.17-.757-1.985-1.514-2.464-2.248-.473-.746-.715-1.666-.715-2.755q-.002-1.741.945-3.245c.633-1.007 1.602-1.52 2.907-1.52.662 0 1.312.128 1.933.402q.922.392 1.063.39c.201 0 .343-.076.414-.227.077-.146.13-.35.183-.6h.538v5.178h-.497c-.242-1.2-.662-2.23-1.288-3.104-.608-.857-1.341-1.293-2.216-1.293-.614 0-1.093.221-1.459.664-.349.436-.532.96-.532 1.584 0 .751.166 1.316.508 1.683q.495.568 2.204 1.678l1.353.874q.914.6 1.454 1.316c.662.903 1.004 1.986 1.004 3.28 0 1.193-.366 2.329-1.087 3.395q-1.073 1.598-3.456 1.596c-.367 0-.727-.053-1.117-.146a4.7 4.7 0 0 1-1.105-.402l-.349-.174c-.082-.03-.16-.059-.23-.064-.083-.024-.148-.047-.2-.047-.184 0-.326.081-.39.227-.066.128-.125.338-.19.606h-.514v-5.889zM36.559 33.907c.431-.04.786-.302 1.052-.78.165-.303.413-.967.732-1.998l4.012-13.006h.503l4.041 12.482c.449 1.404.792 2.312 1.01 2.72.225.402.538.6.963.582v.606h-5.867v-.606c.591-.034.981-.099 1.152-.203.19-.1.284-.35.284-.764 0-.18-.041-.465-.13-.838-.06-.233-.148-.501-.242-.821l-.455-1.44h-4.071c-.266.939-.432 1.562-.508 1.841-.166.612-.243 1.06-.243 1.34 0 .338.183.588.532.74.201.087.502.14.922.145v.606h-3.693v-.606zm6.783-5.015-1.737-5.498h-.148l-1.637 5.498h3.522M70.38 34.502v-.566a1.5 1.5 0 0 1-.414-.099.9.9 0 0 1-.313-.384l-3.64-6.762c.615-.146 1.206-.507 1.761-1.066.733-.746 1.087-1.765 1.087-3.058 0-1.748-.72-2.953-2.18-3.635-.75-.338-1.72-.495-2.93-.495h-5.815v.6c.62.076 1.01.204 1.188.384q.397.429.396 1.8V31.73c0 .885-.107 1.456-.331 1.718s-.638.42-1.253.46v.6h6.104v-.6c-.632-.029-1.052-.198-1.27-.483q-.312-.428-.314-1.695v-4.654h.479l3.746 7.427h3.705zm-4.627-11.72c0 1.497-.26 2.464-.762 2.878-.514.407-1.353.629-2.535.646v-6.04c0-.361.077-.623.219-.786.16-.158.473-.24.963-.24.88 0 1.495.45 1.832 1.358q.291.795.29 2.184M91.52 26.522c0-2.394-.531-4.31-1.589-5.738-1.181-1.555-2.871-2.341-5.11-2.341h-5.525v.6c.473.064.803.157 1.004.291.331.245.503.664.503 1.276v11.736c0 .624-.184 1.072-.538 1.3-.19.14-.52.22-.97.261v.606h5.715q3.093.001 4.91-2.522 1.602-2.245 1.6-5.47m-3.143-.041c0 2.82-.348 4.724-1.04 5.726-.685.996-1.565 1.485-2.64 1.485-.39 0-.657-.105-.769-.326-.124-.21-.189-.565-.206-1.055V20.61c0-.484.04-.81.141-.985q.214-.402.922-.402c1.418.006 2.44.973 3.037 2.913.372 1.217.555 2.656.555 4.345M100.732 33.907c.514-.017.887-.099 1.105-.244.367-.257.55-.723.55-1.433V20.726c0-.705-.177-1.17-.526-1.415-.207-.14-.579-.24-1.129-.268v-.612h6.334v.606q-.86.052-1.169.262c-.349.245-.532.722-.532 1.427V32.23c0 .67.147 1.112.425 1.34.284.227.703.337 1.276.337v.606h-6.334z"/></g><defs><clipPath id="clip0_2011_27964"><path fill="#fff" d="M18 18h90v158H18z"/></clipPath></defs></svg>