<svg xmlns="http://www.w3.org/2000/svg" viewBox="0 0 54 54" style="fill: inherit">
                                    <g id="a658435c-47d6-43a3-bcf9-868baab82175" data-name="Layer 2">
                                        <g id="be56aa35-6d83-495d-9aec-97f4d1f33ba6" data-name="Shrub">
                                            <g id="af42e94c-dd61-44d2-86e3-9212d29bac73" data-name="bounding box" opacity="0.01">
                                                <path d="M54,0V54H0V0H54m0,0H0V54H54V0Z"></path>
                                            </g>
                                            <path id="e873c164-e6bc-4ae7-9a79-69d991d772c7" data-name="iocn" d="M53.84,39.66a4.48,4.48,0,0,0-1.92-2.57,7.32,7.32,0,0,0-.44-5.3A5.85,5.85,0,0,0,47.63,29a6.7,6.7,0,0,0-2.23-3.7A6.91,6.91,0,0,0,42.62,24a8.23,8.23,0,0,0-1-3.39,6.91,6.91,0,0,0-4.22-3.17,10.28,10.28,0,0,0-3.45-6.74C31.86,9,29.12,8.51,25.77,9.12a7.65,7.65,0,0,0-6.12-1,9.43,9.43,0,0,0-7.36,6.37,9.24,9.24,0,0,0-6.15,3.06c-1.47,1.82-2,4.23-1.46,7.19C2.5,26.22-1.89,30.46.9,39.52a1.51,1.51,0,0,0,1.44,1.06H15.63a11,11,0,0,0,.78,4.53,1.49,1.49,0,0,0,1.4,1H51.06a1.51,1.51,0,0,0,1.18-.57C52.48,45.2,54.59,42.4,53.84,39.66ZM16,38.42a6.52,6.52,0,0,1,.29-.73C16.22,37.93,16.13,38.17,16,38.42Zm-.34,1.44s0-.07,0-.11S15.7,39.83,15.7,39.86Zm.13-.72c0-.09.05-.18.08-.28C15.88,39,15.85,39.05,15.83,39.14Zm.56-1.56H3.47c-2-8.19,3.24-10.61,3.47-10.7a1.52,1.52,0,0,0,.88-1.74c-.6-2.5-.38-4.42.64-5.7,1.6-2,4.79-2,5-2h0a1.5,1.5,0,0,0,1.47-1.2,6.51,6.51,0,0,1,5.31-5.15c1.94-.39,3.48.07,3.8.54a1.5,1.5,0,0,0,1.58.62c2.79-.65,4.94-.39,6.42.78,2.37,1.87,2.42,5.58,2.42,5.61a1.51,1.51,0,0,0,1.25,1.48,4.39,4.39,0,0,1,3.29,2,4.93,4.93,0,0,1,.54,1.58h0a17.19,17.19,0,0,0-1.81.17,7.46,7.46,0,0,0-5.56-1.47,7.73,7.73,0,0,0-5.8,4.4A6.17,6.17,0,0,0,22,28c-1.56,1.27-2.32,3.35-2.28,6.18A8,8,0,0,0,16.39,37.58Zm33.87,5.5H18.9A5.91,5.91,0,0,1,19,39a5.19,5.19,0,0,1,2.68-2.48,1.51,1.51,0,0,0,1-1.53c-.13-1.6,0-3.7,1.12-4.66a3.81,3.81,0,0,1,3-.48A1.48,1.48,0,0,0,28.61,29c1-2.21,2.3-3.44,4-3.68a4.22,4.22,0,0,1,3.49,1.06,1.52,1.52,0,0,0,1.44.52c2.68-.51,4.74-.27,5.94.71a3.77,3.77,0,0,1,1.33,2.67,1.5,1.5,0,0,0,1.29,1.49,3.55,3.55,0,0,1,2.78,1.47c.73,1.29.15,3.32-.13,4a1.49,1.49,0,0,0,.82,2c1.19.47,1.34,1,1.4,1.22A4,4,0,0,1,50.26,43.08Z"></path>
                                        </g>
                                    </g>
                                </svg>