<svg xmlns="http://www.w3.org/2000/svg" style="fill:inherit" viewBox="0 0 54 54"><g id="a658435c-47d6-43a3-bcf9-868baab82175" data-name="Layer 2"><g id="be56aa35-6d83-495d-9aec-97f4d1f33ba6" data-name="Shrub"><path id="af42e94c-dd61-44d2-86e3-9212d29bac73" d="M54 0v54H0V0zm0 0H0v54h54z" data-name="bounding box" opacity=".01"/><path id="e873c164-e6bc-4ae7-9a79-69d991d772c7" d="M53.84 39.66a4.48 4.48 0 0 0-1.92-2.57 7.32 7.32 0 0 0-.44-5.3A5.85 5.85 0 0 0 47.63 29a6.7 6.7 0 0 0-2.23-3.7 6.9 6.9 0 0 0-2.78-1.3 8.2 8.2 0 0 0-1-3.39 6.9 6.9 0 0 0-4.22-3.17 10.28 10.28 0 0 0-3.45-6.74c-2.09-1.7-4.83-2.19-8.18-1.58a7.65 7.65 0 0 0-6.12-1 9.43 9.43 0 0 0-7.36 6.37 9.24 9.24 0 0 0-6.15 3.06c-1.47 1.82-2 4.23-1.46 7.19C2.5 26.22-1.89 30.46.9 39.52a1.51 1.51 0 0 0 1.44 1.06h13.29a11 11 0 0 0 .78 4.53 1.49 1.49 0 0 0 1.4 1h33.25a1.51 1.51 0 0 0 1.18-.57c.24-.34 2.35-3.14 1.6-5.88M16 38.42a7 7 0 0 1 .29-.73c-.07.24-.16.48-.29.73m-.34 1.44v-.11c0-.04.04.08.04.11Zm.13-.72c0-.09.05-.18.08-.28.01.14-.02.19-.04.28Zm.56-1.56H3.47c-2-8.19 3.24-10.61 3.47-10.7a1.52 1.52 0 0 0 .88-1.74c-.6-2.5-.38-4.42.64-5.7 1.6-2 4.79-2 5-2a1.5 1.5 0 0 0 1.47-1.2 6.51 6.51 0 0 1 5.31-5.15c1.94-.39 3.48.07 3.8.54a1.5 1.5 0 0 0 1.58.62c2.79-.65 4.94-.39 6.42.78 2.37 1.87 2.42 5.58 2.42 5.61a1.51 1.51 0 0 0 1.25 1.48 4.39 4.39 0 0 1 3.29 2 4.9 4.9 0 0 1 .54 1.58 17 17 0 0 0-1.81.17 7.46 7.46 0 0 0-5.56-1.47 7.73 7.73 0 0 0-5.8 4.4A6.17 6.17 0 0 0 22 28c-1.56 1.27-2.32 3.35-2.28 6.18a8 8 0 0 0-3.33 3.4Zm33.87 5.5H18.9A5.9 5.9 0 0 1 19 39a5.2 5.2 0 0 1 2.68-2.48 1.51 1.51 0 0 0 1-1.53c-.13-1.6 0-3.7 1.12-4.66a3.8 3.8 0 0 1 3-.48 1.48 1.48 0 0 0 1.81-.85c1-2.21 2.3-3.44 4-3.68a4.22 4.22 0 0 1 3.49 1.06 1.52 1.52 0 0 0 1.44.52c2.68-.51 4.74-.27 5.94.71a3.77 3.77 0 0 1 1.33 2.67 1.5 1.5 0 0 0 1.29 1.49 3.55 3.55 0 0 1 2.78 1.47c.73 1.29.15 3.32-.13 4a1.49 1.49 0 0 0 .82 2c1.19.47 1.34 1 1.4 1.22a4 4 0 0 1-.71 2.62Z" data-name="iocn"/></g></g></svg>