<svg xmlns="http://www.w3.org/2000/svg" viewBox="0 0 54 54">
                                    <g id="a02a99eb-b498-43d9-8c92-378ae901d169" data-name="Layer 2">
                                        <g id="a765c702-b62c-41f8-af32-41ff7f6abf84" data-name="Tree">
                                            <g id="f38db6bd-3fea-4f85-b248-4330a0e04b58" data-name="bounding-box" opacity="0.01">
                                                <path d="M54,0V54H0V0H54m0,0H0V54H54V0Z"></path>
                                            </g>
                                            <g id="a28ab5cc-fa31-4ed2-ab5e-011c1da3c016" data-name="icon">
                                                <path d="M36.74,19.46a1.5,1.5,0,1,0-1.22-2.74A20.37,20.37,0,0,0,29,21.65V15.49a2,2,0,0,0-2-2h0a2,2,0,0,0-2,2L25,29.9a17.49,17.49,0,0,0-7.09-4.78A1.5,1.5,0,0,0,17.09,28c2.44.7,6.21,3.85,7.2,6,.3.64.54,1.25.73,1.78V52a2,2,0,0,0,4,0l0-25.51C30.27,24.61,33,21.13,36.74,19.46Z"></path>
                                                <path d="M44.54,13.26a10.21,10.21,0,0,0-6.94-6A11.08,11.08,0,0,0,26.87.05,11.68,11.68,0,0,0,16.11,7.29a10.15,10.15,0,0,0-6.89,4.78c-1.62,2.81-1.46,6.13.44,9.36-1.93,2.45-2.53,5.86-1.52,9.68,1.3,4.88,5.27,9.36,10,9.36a7.29,7.29,0,0,0,1.59-.17,1.5,1.5,0,0,0-.62-2.93c-3.66.78-7-3-8.07-7-.93-3.51-.28-7.78,4.33-9.27a1.5,1.5,0,0,0-.92-2.85A10.82,10.82,0,0,0,12,19.38a5.76,5.76,0,0,1-.13-5.81,7,7,0,0,1,5.29-3.37h.06a1.45,1.45,0,0,0,1.48-1.08,8.66,8.66,0,0,1,8.28-6.07,8.2,8.2,0,0,1,8.14,6,1.52,1.52,0,0,0,1.26,1c3.16.36,4.79,3,5.47,4.46a11.92,11.92,0,0,1,.35,9,9.65,9.65,0,0,0-.81-.62,1.5,1.5,0,1,0-1.68,2.49,6.4,6.4,0,0,1,2.14,8.08,7,7,0,0,1-8.33,4,1.5,1.5,0,0,0-.67,2.93,11.92,11.92,0,0,0,2.59.3,10,10,0,0,0,9.17-6.09,9.74,9.74,0,0,0-.31-8.59A14.56,14.56,0,0,0,44.54,13.26Z"></path>
                                            </g>
                                        </g>
                                    </g>
                                </svg>