<svg xmlns="http://www.w3.org/2000/svg" viewBox="0 0 54 54">
                                    <g id="a6a25b73-6182-48d7-b0ea-f0aab4c8a180" data-name="Layer 2">
                                        <g id="a7171356-0793-4097-99f7-55be40c0d5da" data-name="Climber">
                                            <g id="ab6b66b4-995d-4782-abc3-58caf7b4f7fa" data-name="bounding-box" opacity="0.01">
                                                <path d="M54,0V54H0V0H54m0,0H0V54H54V0Z"></path>
                                            </g>
                                            <path id="f1e14fdd-73f3-4f3c-9f4d-fb5f837f6b6c" data-name="icon" d="M45.74,21.83a21.69,21.69,0,0,0-3.85-.35C35.09,21.48,30,25,28,30.61c-1.74-6.17-.78-10.13.31-14.64,1-3.94,2.05-8.4,1.15-14.68a1.5,1.5,0,0,0-3,.42c.82,5.71-.15,9.7-1.09,13.55l0,.11C23,10.69,18.29,7.84,12.14,7.84a22.11,22.11,0,0,0-3.88.35C6.31,19.24,12.66,27,22.84,27c.45,0,.92,0,1.39-.06a31.08,31.08,0,0,0,1.67,6.91c3,8.49-.79,18-.83,18.08a1.51,1.51,0,0,0,.82,2,1.65,1.65,0,0,0,.57.11,1.5,1.5,0,0,0,1.39-.93,34.24,34.24,0,0,0,2.22-12.63c.4,0,.81.06,1.2.06C41.37,40.5,47.68,32.79,45.74,21.83ZM13.55,20.12A12.82,12.82,0,0,1,11,10.88c.4,0,.8,0,1.19,0,3.95,0,7.16,1.34,9.29,3.88a12.23,12.23,0,0,1,2.63,7.86L16.49,15a1,1,0,0,0-1.42,1.42L22.65,24C18.79,24,15.64,22.62,13.55,20.12ZM40.47,33.66a11.46,11.46,0,0,1-9,3.83l7.29-7.29a1,1,0,1,0-1.41-1.41l-7.29,7.29a12.12,12.12,0,0,1,2.61-7.76c2.11-2.51,5.29-3.84,9.2-3.84.38,0,.77,0,1.16,0A12.67,12.67,0,0,1,40.47,33.66Z"></path>
                                        </g>
                                    </g>
                                </svg>